999
dxfrw 0.5.10
0
SECTION
2
HEADER
9
$ACADVER
1
AC1021
9
$HANDSEED
5
20000
9
$DWGCODEPAGE
3
ANSI_1252
9
$INSBASE
10
0
20
0
30
0
9
$EXTMIN
10
-10.465032
20
-18.06915904
30
0
9
$EXTMAX
10
47.1942221323
20
41.344
30
0
9
$LIMMIN
10
0
20
0
9
$LIMMAX
10
420
20
297
9
$ORTHOMODE
70
0
9
$LTSCALE
40
1
9
$TEXTSTYLE
7
STANDARD
9
$CLAYER
8
0
9
$DIMASZ
40
2.5
9
$DIMLFAC
40
1
9
$DIMSCALE
40
1
9
$DIMEXO
40
0.625
9
$DIMEXE
40
1.25
9
$DIMTXT
40
2.5
9
$DIMTSZ
40
0
9
$DIMAUNIT
70
0
9
$DIMADEC
70
2
9
$DIMLUNIT
70
2
9
$DIMSTYLE
2
STANDARD
9
$DIMGAP
40
0.625
9
$DIMTIH
70
0
9
$LUNITS
70
2
9
$LUPREC
70
4
9
$AUNITS
70
0
9
$AUPREC
70
2
9
$SPLINESEGS
70
8
9
$GRIDMODE
70
1
9
$SNAPSTYLE
70
0
9
$GRIDUNIT
10
0
20
0
9
$PINSBASE
10
0.0913165385895
20
0.0687635361663
30
0
9
$PLIMMIN
10
0
20
0
9
$PLIMMAX
10
0.297
20
0.21
9
$INSUNITS
70
6
9
$PSVPSCALE
40
0.00311379035472
0
ENDSEC
0
SECTION
2
CLASSES
0
ENDSEC
0
SECTION
2
TABLES
0
TABLE
2
VPORT
5
8
330
0
100
AcDbSymbolTable
70
1
0
VPORT
5
31
330
2
100
AcDbSymbolTableRecord
100
AcDbViewportTableRecord
2
*ACTIVE
70
0
10
0
20
0
11
1
21
1
12
49.378001847
22
24.0543999206
13
0
23
0
14
10
24
10
15
10
25
10
16
0
26
0
36
1
17
0
27
0
37
0
40
95.2505886302
41
1.91370558376
42
50
43
0
44
0
50
0
51
0
71
0
72
100
73
1
74
3
75
0
76
1
77
0
78
0
281
0
65
1
110
0
120
0
130
0
111
1
121
0
131
0
112
0
122
1
132
0
79
0
146
0
348
10020
60
7
61
5
292
1
282
1
141
0
142
0
63
250
421
3358443
0
ENDTAB
0
TABLE
2
LTYPE
5
5
330
0
100
AcDbSymbolTable
70
4
0
LTYPE
5
14
330
5
100
AcDbSymbolTableRecord
100
AcDbLinetypeTableRecord
2
ByBlock
70
0
3

72
65
73
0
40
0
0
LTYPE
5
15
330
5
100
AcDbSymbolTableRecord
100
AcDbLinetypeTableRecord
2
ByLayer
70
0
3

72
65
73
0
40
0
0
LTYPE
5
16
330
5
100
AcDbSymbolTableRecord
100
AcDbLinetypeTableRecord
2
Continuous
70
0
3
Solid line
72
65
73
0
40
0
0
LTYPE
5
32
330
5
100
AcDbSymbolTableRecord
100
AcDbLinetypeTableRecord
2
DOT
70
0
3
Dot . . . . . . . . . . . . . . . . . . . . . .
72
65
73
2
40
6.35
49
0
74
0
49
-6.35
74
0
0
LTYPE
5
33
330
5
100
AcDbSymbolTableRecord
100
AcDbLinetypeTableRecord
2
DOT2
70
0
3
Dot (.5x) .....................................
72
65
73
2
40
3.175
49
0
74
0
49
-3.175
74
0
0
LTYPE
5
34
330
5
100
AcDbSymbolTableRecord
100
AcDbLinetypeTableRecord
2
DOTX2
70
0
3
Dot (2x) .  .  .  .  .  .  .  .  .  .  .  .  .
72
65
73
2
40
12.7
49
0
74
0
49
-12.7
74
0
0
LTYPE
5
35
330
5
100
AcDbSymbolTableRecord
100
AcDbLinetypeTableRecord
2
DASHED
70
0
3
Dot . . . . . . . . . . . . . . . . . . . . . .
72
65
73
2
40
19.05
49
12.7
74
0
49
-6.35
74
0
0
LTYPE
5
36
330
5
100
AcDbSymbolTableRecord
100
AcDbLinetypeTableRecord
2
DASHED2
70
0
3
Dashed (.5x) _ _ _ _ _ _ _ _ _ _ _ _ _ _ _ _ _
72
65
73
2
40
9.525
49
6.35
74
0
49
-3.175
74
0
0
LTYPE
5
37
330
5
100
AcDbSymbolTableRecord
100
AcDbLinetypeTableRecord
2
DASHEDX2
70
0
3
Dashed (2x) ____  ____  ____  ____  ____  ___
72
65
73
2
40
38.1
49
25.4
74
0
49
-12.7
74
0
0
LTYPE
5
38
330
5
100
AcDbSymbolTableRecord
100
AcDbLinetypeTableRecord
2
DASHDOT
70
0
3
Dash dot __ . __ . __ . __ . __ . __ . __ . __
72
65
73
4
40
25.4
49
12.7
74
0
49
-6.35
74
0
49
0
74
0
49
-6.35
74
0
0
LTYPE
5
39
330
5
100
AcDbSymbolTableRecord
100
AcDbLinetypeTableRecord
2
DASHDOT2
70
0
3
Dash dot (.5x) _._._._._._._._._._._._._._._.
72
65
73
4
40
12.7
49
6.35
74
0
49
-3.175
74
0
49
0
74
0
49
-3.175
74
0
0
LTYPE
5
3A
330
5
100
AcDbSymbolTableRecord
100
AcDbLinetypeTableRecord
2
DASHDOTX2
70
0
3
Dash dot (2x) ____  .  ____  .  ____  .  ___
72
65
73
4
40
50.8
49
25.4
74
0
49
-12.7
74
0
49
0
74
0
49
-12.7
74
0
0
LTYPE
5
3B
330
5
100
AcDbSymbolTableRecord
100
AcDbLinetypeTableRecord
2
DIVIDE
70
0
3
Divide ____ . . ____ . . ____ . . ____ . . ____
72
65
73
6
40
31.75
49
12.7
74
0
49
-6.35
74
0
49
0
74
0
49
-6.35
74
0
49
0
74
0
49
-6.35
74
0
0
LTYPE
5
3C
330
5
100
AcDbSymbolTableRecord
100
AcDbLinetypeTableRecord
2
DIVIDE2
70
0
3
Divide (.5x) __..__..__..__..__..__..__..__.._
72
65
73
6
40
15.875
49
6.35
74
0
49
-3.175
74
0
49
0
74
0
49
-3.175
74
0
49
0
74
0
49
-3.175
74
0
0
LTYPE
5
3D
330
5
100
AcDbSymbolTableRecord
100
AcDbLinetypeTableRecord
2
DIVIDEX2
70
0
3
Divide (2x) ________  .  .  ________  .  .  _
72
65
73
6
40
63.5
49
25.4
74
0
49
-12.7
74
0
49
0
74
0
49
-12.7
74
0
49
0
74
0
49
-12.7
74
0
0
LTYPE
5
3E
330
5
100
AcDbSymbolTableRecord
100
AcDbLinetypeTableRecord
2
BORDER
70
0
3
Border __ __ . __ __ . __ __ . __ __ . __ __ .
72
65
73
6
40
44.45
49
12.7
74
0
49
-6.35
74
0
49
12.7
74
0
49
-6.35
74
0
49
0
74
0
49
-6.35
74
0
0
LTYPE
5
3F
330
5
100
AcDbSymbolTableRecord
100
AcDbLinetypeTableRecord
2
BORDER2
70
0
3
Border (.5x) __.__.__.__.__.__.__.__.__.__.__.
72
65
73
6
40
22.225
49
6.35
74
0
49
-3.175
74
0
49
6.35
74
0
49
-3.175
74
0
49
0
74
0
49
-3.175
74
0
0
LTYPE
5
40
330
5
100
AcDbSymbolTableRecord
100
AcDbLinetypeTableRecord
2
BORDERX2
70
0
3
Border (2x) ____  ____  .  ____  ____  .  ___
72
65
73
6
40
88.9
49
25.4
74
0
49
-12.7
74
0
49
25.4
74
0
49
-12.7
74
0
49
0
74
0
49
-12.7
74
0
0
LTYPE
5
41
330
5
100
AcDbSymbolTableRecord
100
AcDbLinetypeTableRecord
2
CENTER
70
0
3
Center ____ _ ____ _ ____ _ ____ _ ____ _ ____
72
65
73
4
40
50.8
49
31.75
74
0
49
-6.35
74
0
49
6.35
74
0
49
-6.35
74
0
0
LTYPE
5
42
330
5
100
AcDbSymbolTableRecord
100
AcDbLinetypeTableRecord
2
CENTER2
70
0
3
Center (.5x) ___ _ ___ _ ___ _ ___ _ ___ _ ___
72
65
73
4
40
28.575
49
19.05
74
0
49
-3.175
74
0
49
3.175
74
0
49
-3.175
74
0
0
LTYPE
5
43
330
5
100
AcDbSymbolTableRecord
100
AcDbLinetypeTableRecord
2
CENTERX2
70
0
3
Center (2x) ________  __  ________  __  _____
72
65
73
4
40
101.6
49
63.5
74
0
49
-12.7
74
0
49
12.7
74
0
49
-12.7
74
0
0
ENDTAB
0
TABLE
2
LAYER
5
2
330
0
100
AcDbSymbolTable
70
1
0
LAYER
5
10
330
2
100
AcDbSymbolTableRecord
100
AcDbLayerTableRecord
2
0
70
0
62
7
6
CONTINUOUS
370
50
390
F
0
LAYER
5
44
330
2
100
AcDbSymbolTableRecord
100
AcDbLayerTableRecord
2
quote
70
0
62
7
6
CONTINUOUS
370
0
390
F
0
ENDTAB
0
TABLE
2
STYLE
5
3
330
0
100
AcDbSymbolTable
70
3
0
STYLE
5
45
330
2
100
AcDbSymbolTableRecord
100
AcDbTextStyleTableRecord
2
standard
70
0
40
0
41
1
50
0
71
0
42
1
3
standard
4

0
ENDTAB
0
TABLE
2
VIEW
5
6
330
0
100
AcDbSymbolTable
70
0
0
ENDTAB
0
TABLE
2
UCS
5
7
330
0
100
AcDbSymbolTable
70
0
0
ENDTAB
0
TABLE
2
APPID
5
9
330
0
100
AcDbSymbolTable
70
1
0
APPID
5
12
330
9
100
AcDbSymbolTableRecord
100
AcDbRegAppTableRecord
2
ACAD
70
0
0
ENDTAB
0
TABLE
2
DIMSTYLE
5
A
330
0
100
AcDbSymbolTable
70
1
100
AcDbDimStyleTable
71
1
0
DIMSTYLE
105
46
330
A
100
AcDbSymbolTableRecord
100
AcDbDimStyleTableRecord
2
Standard
70
0
40
1
41
2.5
42
0.625
43
0.38
44
1.25
45
0
46
0
47
0
48
0
140
2.5
141
0.09
142
0
143
25.4
144
1
145
0
146
1
147
0.625
148
0
71
0
72
0
73
0
74
1
75
0
76
0
77
0
78
0
79
0
170
0
171
2
172
0
173
0
174
0
175
0
176
0
177
0
178
0
179
0
271
4
272
4
273
2
274
2
275
0
276
0
277
2
278
46
279
0
280
0
281
0
282
0
283
1
284
0
285
0
286
0
288
0
289
3
340
Standard
341

371
-2
372
-2
0
ENDTAB
0
TABLE
2
BLOCK_RECORD
5
1
330
0
100
AcDbSymbolTable
70
2
0
BLOCK_RECORD
5
1F
330
1
100
AcDbSymbolTableRecord
100
AcDbBlockTableRecord
2
*Model_Space
70
0
280
1
281
0
0
BLOCK_RECORD
5
1E
330
1
100
AcDbSymbolTableRecord
100
AcDbBlockTableRecord
2
*Paper_Space
70
0
280
1
281
0
0
BLOCK_RECORD
5
47
330
1
100
AcDbSymbolTableRecord
100
AcDbBlockTableRecord
2
*D2
70
0
280
1
281
0
0
BLOCK_RECORD
5
4A
330
1
100
AcDbSymbolTableRecord
100
AcDbBlockTableRecord
2
*D4
70
0
280
1
281
0
0
BLOCK_RECORD
5
4D
330
1
100
AcDbSymbolTableRecord
100
AcDbBlockTableRecord
2
*D1
70
0
280
1
281
0
0
BLOCK_RECORD
5
50
330
1
100
AcDbSymbolTableRecord
100
AcDbBlockTableRecord
2
*D8
70
0
280
1
281
0
0
BLOCK_RECORD
5
53
330
1
100
AcDbSymbolTableRecord
100
AcDbBlockTableRecord
2
*D6
70
0
280
1
281
0
0
BLOCK_RECORD
5
56
330
1
100
AcDbSymbolTableRecord
100
AcDbBlockTableRecord
2
*D3
70
0
280
1
281
0
0
BLOCK_RECORD
5
59
330
1
100
AcDbSymbolTableRecord
100
AcDbBlockTableRecord
2
*D5
70
0
280
1
281
0
0
BLOCK_RECORD
5
5C
330
1
100
AcDbSymbolTableRecord
100
AcDbBlockTableRecord
2
*D7
70
0
280
1
281
0
0
ENDTAB
0
ENDSEC
0
SECTION
2
BLOCKS
0
BLOCK
5
20
330
1F
100
AcDbEntity
8
0
100
AcDbBlockBegin
2
*Model_Space
70
0
10
0
20
0
30
0
3
*Model_Space
1

0
ENDBLK
5
21
330
1F
100
AcDbEntity
8
0
100
AcDbBlockEnd
0
BLOCK
5
1C
330
1B
100
AcDbEntity
8
0
100
AcDbBlockBegin
2
*Paper_Space
70
0
10
0
20
0
30
0
3
*Paper_Space
1

0
ENDBLK
5
1D
330
1F
100
AcDbEntity
8
0
100
AcDbBlockEnd
0
BLOCK
5
48
330
47
100
AcDbEntity
8
0
100
AcDbBlockBegin
2
*D2
70
1
10
0
20
0
3
*D2
1

0
LINE
5
5F
100
AcDbEntity
8
quote
6
CONTINUOUS
62
7
370
0
100
AcDbLine
10
0.143505808343
20
-2.05009354723
11
0.792171701904
21
-9.70109083974
0
LINE
5
60
100
AcDbEntity
8
quote
6
CONTINUOUS
62
7
370
0
100
AcDbLine
10
16.9787993766
20
-0.622765797878
11
17.6274652702
21
-8.27376309039
0
LINE
5
61
100
AcDbEntity
8
quote
6
CONTINUOUS
62
7
370
0
100
AcDbLine
10
0.686573198254
20
-8.45555924399
11
17.5218667665
21
-7.02823149463
0
SOLID
5
62
100
AcDbEntity
8
quote
6
CONTINUOUS
62
7
370
0
100
AcDbTrace
10
0.686573198254
20
-8.45555924399
30
0
11
3.1424691602
21
-7.82956568142
31
0
12
3.21280361933
22
-8.65915879195
32
0
13
3.21280361933
23
-8.65915879195
33
0
0
SOLID
5
63
100
AcDbEntity
8
quote
6
CONTINUOUS
62
7
370
0
100
AcDbTrace
10
17.5218667665
20
-7.02823149463
30
0
11
15.0659708046
21
-7.6542250572
31
0
12
14.9956363454
22
-6.82463194667
32
0
13
14.9956363454
23
-6.82463194667
33
0
0
MTEXT
5
64
100
AcDbEntity
8
quote
6
CONTINUOUS
62
7
370
0
100
AcDbMText
10
8.94582222691
20
-5.87359797568
30
0
40
2.5
41
11.1111111111
71
5
72
1
1
16.8957
7
standard
210
0
220
0
230
1
50
4.84605467795
73
2
44
1
0
ENDBLK
5
49
330
47
100
AcDbEntity
8
0
100
AcDbBlockEnd
0
BLOCK
5
4B
330
4A
100
AcDbEntity
8
0
100
AcDbBlockBegin
2
*D4
70
1
10
0
20
0
3
*D4
1

0
LINE
5
65
100
AcDbEntity
8
quote
6
CONTINUOUS
62
7
370
0
100
AcDbLine
10
0
20
16.7247872
11
33.8214704458
21
16.7247872
0
SOLID
5
66
100
AcDbEntity
8
quote
6
CONTINUOUS
62
7
370
0
100
AcDbTrace
10
0
20
16.7247872
30
0
11
2.5
21
17.1410718578
31
0
12
2.5
22
16.3085025422
32
0
13
2.5
23
16.3085025422
33
0
0
SOLID
5
67
100
AcDbEntity
8
quote
6
CONTINUOUS
62
7
370
0
100
AcDbTrace
10
33.8214704458
20
16.7247872
30
0
11
31.3214704458
21
16.3085025422
31
0
12
31.3214704458
22
17.1410718578
32
0
13
31.3214704458
23
17.1410718578
33
0
0
MTEXT
5
68
100
AcDbEntity
8
quote
6
CONTINUOUS
62
7
370
0
100
AcDbMText
10
16.9107352229
20
18.5997872
30
0
40
2.5
41
11.1111111111
71
5
72
1
1
33.8215
7
standard
210
0
220
0
230
1
50
0
73
2
44
1
0
LINE
5
69
100
AcDbEntity
8
quote
6
CONTINUOUS
62
7
370
0
100
AcDbLine
10
3.82702124734e-17
20
0.625
11
7.65404249467e-17
21
17.9747872
0
LINE
5
6A
100
AcDbEntity
8
quote
6
CONTINUOUS
62
7
370
0
100
AcDbLine
10
33.8214704458
20
2.05742964726
11
33.8214704458
21
17.9747872
0
ENDBLK
5
4C
330
4A
100
AcDbEntity
8
0
100
AcDbBlockEnd
0
BLOCK
5
4E
330
4D
100
AcDbEntity
8
0
100
AcDbBlockBegin
2
*D1
70
1
10
0
20
0
3
*D1
1

0
LINE
5
6B
100
AcDbEntity
8
quote
6
CONTINUOUS
62
7
370
0
100
AcDbLine
10
-7.46069872548e-14
20
9.261023232
11
16.9260001248
21
9.261023232
0
SOLID
5
6C
100
AcDbEntity
8
quote
6
CONTINUOUS
62
7
370
0
100
AcDbTrace
10
-7.46069872548e-14
20
9.261023232
30
0
11
2.5
21
9.67730788977
31
0
12
2.5
22
8.84473857423
32
0
13
2.5
23
8.84473857423
33
0
0
SOLID
5
6D
100
AcDbEntity
8
quote
6
CONTINUOUS
62
7
370
0
100
AcDbTrace
10
16.9260001248
20
9.261023232
30
0
11
14.4260001248
21
8.84473857423
31
0
12
14.4260001248
22
9.67730788977
32
0
13
14.4260001248
23
9.67730788977
33
0
0
MTEXT
5
6E
100
AcDbEntity
8
quote
6
CONTINUOUS
62
7
370
0
100
AcDbMText
10
8.46300006239
20
11.136023232
30
0
40
2.5
41
9.16666666667
71
5
72
1
1
16.926
7
standard
210
0
220
0
230
1
50
0
73
2
44
1
0
LINE
5
6F
100
AcDbEntity
8
quote
6
CONTINUOUS
62
7
370
0
100
AcDbLine
10
-7.35793156144e-14
20
0.625
11
-7.4808002586e-14
21
10.511023232
0
LINE
5
70
100
AcDbEntity
8
quote
6
CONTINUOUS
62
7
370
0
100
AcDbLine
10
16.9260001248
20
0.625
11
16.9260001248
21
10.511023232
0
ENDBLK
5
4F
330
4D
100
AcDbEntity
8
0
100
AcDbBlockEnd
0
BLOCK
5
51
330
50
100
AcDbEntity
8
0
100
AcDbBlockBegin
2
*D8
70
1
10
0
20
0
3
*D8
1

0
LINE
5
71
100
AcDbEntity
8
quote
6
CONTINUOUS
62
7
370
0
100
AcDbLine
10
33.8214704458
20
-16.81915904
11
0.0907065565178
21
-16.81915904
0
SOLID
5
72
100
AcDbEntity
8
quote
6
CONTINUOUS
62
7
370
0
100
AcDbTrace
10
33.8214704458
20
-16.81915904
30
0
11
31.3214704458
21
-17.2354436978
31
0
12
31.3214704458
22
-16.4028743822
32
0
13
31.3214704458
23
-16.4028743822
33
0
0
SOLID
5
73
100
AcDbEntity
8
quote
6
CONTINUOUS
62
7
370
0
100
AcDbTrace
10
0.0907065565178
20
-16.81915904
30
0
11
2.59070655652
21
-16.4028743822
31
0
12
2.59070655652
22
-17.2354436978
32
0
13
2.59070655652
23
-17.2354436978
33
0
0
MTEXT
5
74
100
AcDbEntity
8
quote
6
CONTINUOUS
62
7
370
0
100
AcDbMText
10
16.9560885012
20
-14.94415904
30
0
40
2.5
41
11.6666666667
71
5
72
1
1
33.7308
7
standard
210
0
220
0
230
1
50
360
73
2
44
1
0
LINE
5
75
100
AcDbEntity
8
quote
6
CONTINUOUS
62
7
370
0
100
AcDbLine
10
33.8214704458
20
0.807429647264
11
33.8214704458
21
-18.06915904
0
LINE
5
76
100
AcDbEntity
8
quote
6
CONTINUOUS
62
7
370
0
100
AcDbLine
10
0.0907065565178
20
-2.05232774935
11
0.0907065565178
21
-18.06915904
0
ENDBLK
5
52
330
50
100
AcDbEntity
8
0
100
AcDbBlockEnd
0
BLOCK
5
54
330
53
100
AcDbEntity
8
0
100
AcDbBlockBegin
2
*D6
70
1
10
0
20
0
3
*D6
1

0
LINE
5
77
100
AcDbEntity
8
quote
6
CONTINUOUS
62
7
370
0
100
AcDbLine
10
34.4442362437
20
1.48522889909
11
45.0979403261
21
2.38846990338
0
LINE
5
78
100
AcDbEntity
8
quote
6
CONTINUOUS
62
7
370
0
100
AcDbLine
10
34.477
20
0
11
45.1990085106
21
0
0
ARC
5
79
100
AcDbEntity
8
quote
6
CONTINUOUS
62
7
370
0
100
AcDbCircle
10
16.9260001248
20
-0
40
27.0230083858
100
AcDbArc
50
0
51
4.84605467795
0
SOLID
5
7A
100
AcDbEntity
8
quote
6
CONTINUOUS
62
7
370
0
100
AcDbTrace
10
43.8524087303
20
2.28287139973
30
0
11
43.3406463388
21
4.76508657392
31
0
12
44.1726043603
22
4.79698509542
32
0
13
44.1726043603
23
4.79698509542
33
0
0
SOLID
5
7B
100
AcDbEntity
8
quote
6
CONTINUOUS
62
7
370
0
100
AcDbTrace
10
43.9490085106
20
0
30
0
11
44.4804488452
21
-2.47807669112
31
0
12
43.6487700946
22
-2.51657501574
32
0
13
43.6487700946
23
-2.51657501574
33
0
0
MTEXT
5
7C
100
AcDbEntity
8
quote
6
CONTINUOUS
62
7
370
0
100
AcDbMText
10
44.5492889644
20
1.168880399
30
0
40
2.5
41
7.77777777778
71
8
72
1
1
4.85%%D
7
standard
210
0
220
0
230
1
50
272.423027339
73
2
44
1
0
ENDBLK
5
55
330
53
100
AcDbEntity
8
0
100
AcDbBlockEnd
0
BLOCK
5
57
330
56
100
AcDbEntity
8
0
100
AcDbBlockBegin
2
*D3
70
1
10
0
20
0
3
*D3
1

0
LINE
5
7D
100
AcDbEntity
8
quote
6
CONTINUOUS
62
7
370
0
100
AcDbLine
10
16.9787993766
20
-0.622765797878
11
17.6220116939
21
-8.20943830024
0
LINE
5
7E
100
AcDbEntity
8
quote
6
CONTINUOUS
62
7
370
0
100
AcDbLine
10
33.8143709513
20
0.804585521383
11
34.4575832686
21
-6.78208698098
0
LINE
5
7F
100
AcDbEntity
8
quote
6
CONTINUOUS
62
7
370
0
100
AcDbLine
10
17.5164131902
20
-6.96390670448
11
34.3519847649
21
-5.53655538522
0
SOLID
5
80
100
AcDbEntity
8
quote
6
CONTINUOUS
62
7
370
0
100
AcDbTrace
10
17.5164131902
20
-6.96390670448
30
0
11
19.9723091522
21
-6.33791314191
31
0
12
20.0426436113
22
-7.16750625245
32
0
13
20.0426436113
23
-7.16750625245
33
0
0
SOLID
5
81
100
AcDbEntity
8
quote
6
CONTINUOUS
62
7
370
0
100
AcDbTrace
10
34.3519847649
20
-5.53655538522
30
0
11
31.896088803
21
-6.16254894779
31
0
12
31.8257543439
22
-5.33295583725
32
0
13
31.8257543439
23
-5.33295583725
33
0
0
MTEXT
5
82
100
AcDbEntity
8
quote
6
CONTINUOUS
62
7
370
0
100
AcDbMText
10
25.7758012221
20
-4.38193365122
30
0
40
2.5
41
9.16666666667
71
5
72
1
1
16.896
7
standard
210
0
220
0
230
1
50
4.84605467795
73
2
44
1
0
ENDBLK
5
58
330
56
100
AcDbEntity
8
0
100
AcDbBlockEnd
0
BLOCK
5
5A
330
59
100
AcDbEntity
8
0
100
AcDbBlockBegin
2
*D5
70
1
10
0
20
0
3
*D5
1

0
LINE
5
83
100
AcDbEntity
8
quote
6
CONTINUOUS
62
7
370
0
100
AcDbLine
10
16.9260001248
20
9.240576
11
33.8214704457
21
9.240576
0
SOLID
5
84
100
AcDbEntity
8
quote
6
CONTINUOUS
62
7
370
0
100
AcDbTrace
10
16.9260001248
20
9.240576
30
0
11
19.4260001248
21
9.65686065777
31
0
12
19.4260001248
22
8.82429134223
32
0
13
19.4260001248
23
8.82429134223
33
0
0
SOLID
5
85
100
AcDbEntity
8
quote
6
CONTINUOUS
62
7
370
0
100
AcDbTrace
10
33.8214704457
20
9.240576
30
0
11
31.3214704457
21
8.82429134223
31
0
12
31.3214704457
22
9.65686065777
32
0
13
31.3214704457
23
9.65686065777
33
0
0
MTEXT
5
86
100
AcDbEntity
8
quote
6
CONTINUOUS
62
7
370
0
100
AcDbMText
10
25.3737352852
20
11.115576
30
0
40
2.5
41
11.1111111111
71
5
72
1
1
16.8955
7
standard
210
0
220
0
230
1
50
0
73
2
44
1
0
LINE
5
87
100
AcDbEntity
8
quote
6
CONTINUOUS
62
7
370
0
100
AcDbLine
10
16.9260001248
20
0.625
11
16.9260001248
21
10.490576
0
LINE
5
88
100
AcDbEntity
8
quote
6
CONTINUOUS
62
7
370
0
100
AcDbLine
10
33.8214704457
20
2.05742964726
11
33.8214704457
21
10.490576
0
ENDBLK
5
5B
330
59
100
AcDbEntity
8
0
100
AcDbBlockEnd
0
BLOCK
5
5D
330
5C
100
AcDbEntity
8
0
100
AcDbBlockBegin
2
*D7
70
1
10
0
20
0
3
*D7
1

0
LINE
5
89
100
AcDbEntity
8
quote
6
CONTINUOUS
62
7
370
0
100
AcDbLine
10
-7.340032
20
5
11
-7.340032
21
-6.4324532592
0
SOLID
5
8A
100
AcDbEntity
8
quote
6
CONTINUOUS
62
7
370
0
100
AcDbTrace
10
-7.340032
20
4.4408920985e-16
30
0
11
-7.75631665777
21
2.5
31
0
12
-6.92374734223
22
2.5
32
0
13
-6.92374734223
23
2.5
33
0
0
SOLID
5
8B
100
AcDbEntity
8
quote
6
CONTINUOUS
62
7
370
0
100
AcDbTrace
10
-7.340032
20
-1.4324532592
30
0
11
-6.92374734223
21
-3.9324532592
31
0
12
-7.75631665777
22
-3.9324532592
32
0
13
-7.75631665777
23
-3.9324532592
33
0
0
MTEXT
5
8C
100
AcDbEntity
8
quote
6
CONTINUOUS
62
7
370
0
100
AcDbMText
10
-9.215032
20
5.34722222222
30
0
40
2.5
41
9.44444444444
71
5
72
1
1
1.4325
7
standard
210
0
220
0
230
1
50
90
73
2
44
1
0
LINE
5
8D
100
AcDbEntity
8
quote
6
CONTINUOUS
62
7
370
0
100
AcDbLine
10
-0.625
20
7.65404249467e-17
11
-8.590032
21
5.97170059743e-16
0
LINE
5
8E
100
AcDbEntity
8
quote
6
CONTINUOUS
62
7
370
0
100
AcDbLine
10
-0.594748698461
20
-1.4324532592
11
-8.590032
21
-1.4324532592
0
ENDBLK
5
5E
330
5C
100
AcDbEntity
8
0
100
AcDbBlockEnd
0
ENDSEC
0
SECTION
2
ENTITIES
0
ARC
5
8F
100
AcDbEntity
8
0
6
ByLayer
62
256
370
-1
100
AcDbCircle
10
0
20
400
40
400
100
AcDbArc
50
270
51
270.85036
0
ARC
5
90
100
AcDbEntity
8
0
6
ByLayer
62
256
370
-1
100
AcDbCircle
10
0
20
400
40
400
100
AcDbArc
50
270
51
274.85036
0
ARC
5
91
100
AcDbEntity
8
0
6
ByLayer
62
256
370
-1
100
AcDbCircle
10
33.852
20
-400
40
400
100
AcDbArc
50
90
51
94.8504
0
LINE
5
92
100
AcDbEntity
8
0
6
ByLayer
62
256
370
-1
100
AcDbLine
10
-7.34788079488e-14
20
0
11
33.852
21
0
0
DIMENSION
5
93
100
AcDbEntity
8
quote
6
ByLayer
62
256
370
-1
100
AcDbDimension
2
*D1
10
16.9260001248
20
9.261023232
30
0
11
8.46300006239
21
11.136023232
31
0
70
32
71
5
3
Standard
53
0
210
0
220
0
230
1
100
AcDbAlignedDimension
13
-7.34788079488e-14
23
0
33
0
14
16.9260001248
24
0
34
0
100
AcDbRotatedDimension
0
DIMENSION
5
94
100
AcDbEntity
8
quote
6
ByLayer
62
256
370
-1
100
AcDbDimension
2
*D2
10
17.5218667665
20
-7.02823149463
30
0
11
8.94582222691
21
-5.87359797568
31
0
70
33
71
5
3
Standard
53
0
210
0
220
0
230
1
100
AcDbAlignedDimension
13
0.0907065565178
23
-1.42732774935
33
0
14
16.9260001248
24
0
34
0
0
DIMENSION
5
95
100
AcDbEntity
8
quote
6
ByLayer
62
256
370
-1
100
AcDbDimension
2
*D3
10
34.3519847649
20
-5.53655538522
30
0
11
25.7758012221
21
-4.38193365122
31
0
70
33
71
5
3
Standard
53
0
210
0
220
0
230
1
100
AcDbAlignedDimension
13
16.9260001248
23
0
33
0
14
33.7615716995
24
1.42735131926
34
0
0
DIMENSION
5
96
100
AcDbEntity
8
quote
6
ByLayer
62
256
370
-1
100
AcDbDimension
2
*D4
10
33.8214704458
20
16.7247872
30
0
11
16.9107352229
21
18.5997872
31
0
70
32
71
5
3
Standard
53
0
210
0
220
0
230
1
100
AcDbAlignedDimension
13
0
23
0
33
0
14
33.8214704458
24
1.43242964726
34
0
100
AcDbRotatedDimension
0
LINE
5
97
100
AcDbEntity
8
quote
6
ByLayer
62
256
370
-1
100
AcDbLine
10
0.0302513015393
20
-1.4324532592
11
33.8214704458
21
1.43242964726
0
DIMENSION
5
98
100
AcDbEntity
8
quote
6
ByLayer
62
256
370
-1
100
AcDbDimension
2
*D5
10
33.8214704457
20
9.240576
30
0
11
25.3737352852
21
11.115576
31
0
70
32
71
5
3
Standard
53
0
210
0
220
0
230
1
100
AcDbAlignedDimension
13
16.9260001248
23
0
33
0
14
33.8214704457
24
1.43242964726
34
0
100
AcDbRotatedDimension
0
DIMENSION
5
99
100
AcDbEntity
8
quote
6
ByLayer
62
256
370
-1
100
AcDbDimension
2
*D6
10
-7.34788079488e-14
20
0
30
0
11
0
21
0
31
0
70
34
71
5
3
Standard
53
0
210
0
220
0
230
1
100
AcDb2LineAngularDimension
13
33.8214704458
23
1.43242964726
33
0
14
0.0302513015393
24
-1.4324532592
34
0
15
33.852
25
0
35
0
16
43.9296
26
1.024
36
0
0
DIMENSION
5
9A
100
AcDbEntity
8
quote
6
ByLayer
62
256
370
-1
100
AcDbDimension
2
*D7
10
-7.340032
20
-1.4324532592
30
0
11
-9.215032
21
-0.716226629601
31
0
70
32
71
5
3
Standard
53
0
210
0
220
0
230
1
100
AcDbAlignedDimension
13
0
23
0
33
0
14
0.0302513015393
24
-1.4324532592
34
0
50
90
100
AcDbRotatedDimension
0
DIMENSION
5
9B
100
AcDbEntity
8
quote
6
ByLayer
62
256
370
-1
100
AcDbDimension
2
*D8
10
0.0907065565178
20
-16.81915904
30
0
11
16.9560885012
21
-14.94415904
31
0
70
32
71
5
3
Standard
53
0
210
0
220
0
230
1
100
AcDbAlignedDimension
13
33.8214704458
23
1.43242964726
33
0
14
0.0907065565178
24
-1.42732774935
34
0
100
AcDbRotatedDimension
0
MTEXT
5
9C
100
AcDbEntity
8
0
6
ByLayer
62
256
370
-1
100
AcDbMText
10
-3.84
20
41.344
30
0
40
4
41
44.7777798349
71
1
72
1
1
Deviatoio inglese
7
standard
210
0
220
0
230
1
50
0
73
2
44
1
0
ENDSEC
0
SECTION
2
OBJECTS
0
DICTIONARY
5
C
330
0
100
AcDbDictionary
281
1
3
ACAD_GROUP
350
D
0
DICTIONARY
5
D
330
C
100
AcDbDictionary
281
1
0
ENDSEC
0
EOF
