999
dxfrw 0.5.10
0
SECTION
2
HEADER
9
$ACADVER
1
AC1021
9
$HANDSEED
5
20000
9
$DWGCODEPAGE
3
ANSI_1252
9
$INSBASE
10
0
20
0
30
0
9
$EXTMIN
10
-8.66049725907e-14
20
-40.7933753944
30
0
9
$EXTMAX
10
383.524524159
20
50.5370497996
30
0
9
$LIMMIN
10
0
20
0
9
$LIMMAX
10
420
20
297
9
$ORTHOMODE
70
0
9
$LTSCALE
40
1
9
$TEXTSTYLE
7
STANDARD
9
$CLAYER
8
quote3
9
$DIMASZ
40
2.5
9
$DIMLFAC
40
1
9
$DIMSCALE
40
1
9
$DIMEXO
40
0.625
9
$DIMEXE
40
1.25
9
$DIMTXT
40
2.5
9
$DIMTSZ
40
0
9
$DIMAUNIT
70
0
9
$DIMADEC
70
2
9
$DIMLUNIT
70
2
9
$DIMSTYLE
2
STANDARD
9
$DIMGAP
40
0.625
9
$DIMTIH
70
0
9
$LUNITS
70
2
9
$LUPREC
70
4
9
$AUNITS
70
0
9
$AUPREC
70
2
9
$SPLINESEGS
70
8
9
$GRIDMODE
70
1
9
$SNAPSTYLE
70
0
9
$GRIDUNIT
10
0
20
0
9
$PINSBASE
10
0.0125
20
0.101544837069
30
0
9
$PLIMMIN
10
0
20
0
9
$PLIMMAX
10
0.297
20
0.21
9
$INSUNITS
70
6
9
$PSVPSCALE
40
0.000709211492007
0
ENDSEC
0
SECTION
2
CLASSES
0
ENDSEC
0
SECTION
2
TABLES
0
TABLE
2
VPORT
5
8
330
0
100
AcDbSymbolTable
70
1
0
VPORT
5
31
330
2
100
AcDbSymbolTableRecord
100
AcDbViewportTableRecord
2
*ACTIVE
70
0
10
0
20
0
11
1
21
1
12
3.52650793956
22
-44.4882540068
13
0
23
0
14
10
24
10
15
10
25
10
16
0
26
0
36
1
17
0
27
0
37
0
40
17.3612698563
41
1.71875
42
50
43
0
44
0
50
0
51
0
71
0
72
100
73
1
74
3
75
0
76
1
77
0
78
0
281
0
65
1
110
0
120
0
130
0
111
1
121
0
131
0
112
0
122
1
132
0
79
0
146
0
348
10020
60
7
61
5
292
1
282
1
141
0
142
0
63
250
421
3358443
0
ENDTAB
0
TABLE
2
LTYPE
5
5
330
0
100
AcDbSymbolTable
70
4
0
LTYPE
5
14
330
5
100
AcDbSymbolTableRecord
100
AcDbLinetypeTableRecord
2
ByBlock
70
0
3

72
65
73
0
40
0
0
LTYPE
5
15
330
5
100
AcDbSymbolTableRecord
100
AcDbLinetypeTableRecord
2
ByLayer
70
0
3

72
65
73
0
40
0
0
LTYPE
5
16
330
5
100
AcDbSymbolTableRecord
100
AcDbLinetypeTableRecord
2
Continuous
70
0
3
Solid line
72
65
73
0
40
0
0
LTYPE
5
32
330
5
100
AcDbSymbolTableRecord
100
AcDbLinetypeTableRecord
2
DOT
70
0
3
Dot . . . . . . . . . . . . . . . . . . . . . .
72
65
73
2
40
6.35
49
0
74
0
49
-6.35
74
0
0
LTYPE
5
33
330
5
100
AcDbSymbolTableRecord
100
AcDbLinetypeTableRecord
2
DOT2
70
0
3
Dot (.5x) .....................................
72
65
73
2
40
3.175
49
0
74
0
49
-3.175
74
0
0
LTYPE
5
34
330
5
100
AcDbSymbolTableRecord
100
AcDbLinetypeTableRecord
2
DOTX2
70
0
3
Dot (2x) .  .  .  .  .  .  .  .  .  .  .  .  .
72
65
73
2
40
12.7
49
0
74
0
49
-12.7
74
0
0
LTYPE
5
35
330
5
100
AcDbSymbolTableRecord
100
AcDbLinetypeTableRecord
2
DASHED
70
0
3
Dot . . . . . . . . . . . . . . . . . . . . . .
72
65
73
2
40
19.05
49
12.7
74
0
49
-6.35
74
0
0
LTYPE
5
36
330
5
100
AcDbSymbolTableRecord
100
AcDbLinetypeTableRecord
2
DASHED2
70
0
3
Dashed (.5x) _ _ _ _ _ _ _ _ _ _ _ _ _ _ _ _ _
72
65
73
2
40
9.525
49
6.35
74
0
49
-3.175
74
0
0
LTYPE
5
37
330
5
100
AcDbSymbolTableRecord
100
AcDbLinetypeTableRecord
2
DASHEDX2
70
0
3
Dashed (2x) ____  ____  ____  ____  ____  ___
72
65
73
2
40
38.1
49
25.4
74
0
49
-12.7
74
0
0
LTYPE
5
38
330
5
100
AcDbSymbolTableRecord
100
AcDbLinetypeTableRecord
2
DASHDOT
70
0
3
Dash dot __ . __ . __ . __ . __ . __ . __ . __
72
65
73
4
40
25.4
49
12.7
74
0
49
-6.35
74
0
49
0
74
0
49
-6.35
74
0
0
LTYPE
5
39
330
5
100
AcDbSymbolTableRecord
100
AcDbLinetypeTableRecord
2
DASHDOT2
70
0
3
Dash dot (.5x) _._._._._._._._._._._._._._._.
72
65
73
4
40
12.7
49
6.35
74
0
49
-3.175
74
0
49
0
74
0
49
-3.175
74
0
0
LTYPE
5
3A
330
5
100
AcDbSymbolTableRecord
100
AcDbLinetypeTableRecord
2
DASHDOTX2
70
0
3
Dash dot (2x) ____  .  ____  .  ____  .  ___
72
65
73
4
40
50.8
49
25.4
74
0
49
-12.7
74
0
49
0
74
0
49
-12.7
74
0
0
LTYPE
5
3B
330
5
100
AcDbSymbolTableRecord
100
AcDbLinetypeTableRecord
2
DIVIDE
70
0
3
Divide ____ . . ____ . . ____ . . ____ . . ____
72
65
73
6
40
31.75
49
12.7
74
0
49
-6.35
74
0
49
0
74
0
49
-6.35
74
0
49
0
74
0
49
-6.35
74
0
0
LTYPE
5
3C
330
5
100
AcDbSymbolTableRecord
100
AcDbLinetypeTableRecord
2
DIVIDE2
70
0
3
Divide (.5x) __..__..__..__..__..__..__..__.._
72
65
73
6
40
15.875
49
6.35
74
0
49
-3.175
74
0
49
0
74
0
49
-3.175
74
0
49
0
74
0
49
-3.175
74
0
0
LTYPE
5
3D
330
5
100
AcDbSymbolTableRecord
100
AcDbLinetypeTableRecord
2
DIVIDEX2
70
0
3
Divide (2x) ________  .  .  ________  .  .  _
72
65
73
6
40
63.5
49
25.4
74
0
49
-12.7
74
0
49
0
74
0
49
-12.7
74
0
49
0
74
0
49
-12.7
74
0
0
LTYPE
5
3E
330
5
100
AcDbSymbolTableRecord
100
AcDbLinetypeTableRecord
2
BORDER
70
0
3
Border __ __ . __ __ . __ __ . __ __ . __ __ .
72
65
73
6
40
44.45
49
12.7
74
0
49
-6.35
74
0
49
12.7
74
0
49
-6.35
74
0
49
0
74
0
49
-6.35
74
0
0
LTYPE
5
3F
330
5
100
AcDbSymbolTableRecord
100
AcDbLinetypeTableRecord
2
BORDER2
70
0
3
Border (.5x) __.__.__.__.__.__.__.__.__.__.__.
72
65
73
6
40
22.225
49
6.35
74
0
49
-3.175
74
0
49
6.35
74
0
49
-3.175
74
0
49
0
74
0
49
-3.175
74
0
0
LTYPE
5
40
330
5
100
AcDbSymbolTableRecord
100
AcDbLinetypeTableRecord
2
BORDERX2
70
0
3
Border (2x) ____  ____  .  ____  ____  .  ___
72
65
73
6
40
88.9
49
25.4
74
0
49
-12.7
74
0
49
25.4
74
0
49
-12.7
74
0
49
0
74
0
49
-12.7
74
0
0
LTYPE
5
41
330
5
100
AcDbSymbolTableRecord
100
AcDbLinetypeTableRecord
2
CENTER
70
0
3
Center ____ _ ____ _ ____ _ ____ _ ____ _ ____
72
65
73
4
40
50.8
49
31.75
74
0
49
-6.35
74
0
49
6.35
74
0
49
-6.35
74
0
0
LTYPE
5
42
330
5
100
AcDbSymbolTableRecord
100
AcDbLinetypeTableRecord
2
CENTER2
70
0
3
Center (.5x) ___ _ ___ _ ___ _ ___ _ ___ _ ___
72
65
73
4
40
28.575
49
19.05
74
0
49
-3.175
74
0
49
3.175
74
0
49
-3.175
74
0
0
LTYPE
5
43
330
5
100
AcDbSymbolTableRecord
100
AcDbLinetypeTableRecord
2
CENTERX2
70
0
3
Center (2x) ________  __  ________  __  _____
72
65
73
4
40
101.6
49
63.5
74
0
49
-12.7
74
0
49
12.7
74
0
49
-12.7
74
0
0
ENDTAB
0
TABLE
2
LAYER
5
2
330
0
100
AcDbSymbolTable
70
1
0
LAYER
5
10
330
2
100
AcDbSymbolTableRecord
100
AcDbLayerTableRecord
2
0
70
4
62
7
6
CONTINUOUS
370
50
390
F
0
LAYER
5
44
330
2
100
AcDbSymbolTableRecord
100
AcDbLayerTableRecord
2
quote1
70
5
62
7
6
CONTINUOUS
370
0
390
F
0
LAYER
5
45
330
2
100
AcDbSymbolTableRecord
100
AcDbLayerTableRecord
2
help1
70
5
62
56
420
8421376
6
CONTINUOUS
290
0
370
0
390
F
0
LAYER
5
46
330
2
100
AcDbSymbolTableRecord
100
AcDbLayerTableRecord
2
help4
70
5
62
136
420
32896
6
CONTINUOUS
290
0
370
0
390
F
0
LAYER
5
47
330
2
100
AcDbSymbolTableRecord
100
AcDbLayerTableRecord
2
help0
70
5
62
96
420
32768
6
CONTINUOUS
290
0
370
0
390
F
0
LAYER
5
48
330
2
100
AcDbSymbolTableRecord
100
AcDbLayerTableRecord
2
help3
70
5
62
56
420
8421376
6
CONTINUOUS
290
0
370
0
390
F
0
LAYER
5
49
330
2
100
AcDbSymbolTableRecord
100
AcDbLayerTableRecord
2
help2
70
5
62
136
420
32896
6
CONTINUOUS
290
0
370
0
390
F
0
LAYER
5
4A
330
2
100
AcDbSymbolTableRecord
100
AcDbLayerTableRecord
2
quote2
70
1
62
7
6
CONTINUOUS
370
0
390
F
0
LAYER
5
4B
330
2
100
AcDbSymbolTableRecord
100
AcDbLayerTableRecord
2
quote3
70
5
62
7
6
CONTINUOUS
370
0
390
F
0
LAYER
5
4C
330
2
100
AcDbSymbolTableRecord
100
AcDbLayerTableRecord
2
quote12
70
5
62
7
6
CONTINUOUS
370
0
390
F
0
LAYER
5
4D
330
2
100
AcDbSymbolTableRecord
100
AcDbLayerTableRecord
2
quote4
70
0
62
7
6
CONTINUOUS
370
0
390
F
0
ENDTAB
0
TABLE
2
STYLE
5
3
330
0
100
AcDbSymbolTable
70
3
0
STYLE
5
4E
330
2
100
AcDbSymbolTableRecord
100
AcDbTextStyleTableRecord
2
standard
70
0
40
0
41
1
50
0
71
0
42
1
3
standard
4

0
ENDTAB
0
TABLE
2
VIEW
5
6
330
0
100
AcDbSymbolTable
70
0
0
ENDTAB
0
TABLE
2
UCS
5
7
330
0
100
AcDbSymbolTable
70
0
0
ENDTAB
0
TABLE
2
APPID
5
9
330
0
100
AcDbSymbolTable
70
1
0
APPID
5
12
330
9
100
AcDbSymbolTableRecord
100
AcDbRegAppTableRecord
2
ACAD
70
0
0
ENDTAB
0
TABLE
2
DIMSTYLE
5
A
330
0
100
AcDbSymbolTable
70
1
100
AcDbDimStyleTable
71
1
0
DIMSTYLE
105
4F
330
A
100
AcDbSymbolTableRecord
100
AcDbDimStyleTableRecord
2
Standard
70
0
40
1
41
2.5
42
0.625
43
0.38
44
1.25
45
0
46
0
47
0
48
0
140
2.5
141
0.09
142
0
143
25.4
144
1
145
0
146
1
147
0.625
148
0
71
0
72
0
73
0
74
1
75
0
76
0
77
0
78
0
79
0
170
0
171
2
172
0
173
0
174
0
175
0
176
0
177
0
178
0
179
0
271
4
272
4
273
2
274
2
275
0
276
0
277
2
278
46
279
0
280
0
281
0
282
0
283
1
284
0
285
0
286
0
288
0
289
3
340
Standard
341

371
-2
372
-2
0
ENDTAB
0
TABLE
2
BLOCK_RECORD
5
1
330
0
100
AcDbSymbolTable
70
2
0
BLOCK_RECORD
5
1F
330
1
100
AcDbSymbolTableRecord
100
AcDbBlockTableRecord
2
*Model_Space
70
0
280
1
281
0
0
BLOCK_RECORD
5
1E
330
1
100
AcDbSymbolTableRecord
100
AcDbBlockTableRecord
2
*Paper_Space
70
0
280
1
281
0
0
BLOCK_RECORD
5
50
330
1
100
AcDbSymbolTableRecord
100
AcDbBlockTableRecord
2
*D50
70
0
280
1
281
0
0
BLOCK_RECORD
5
53
330
1
100
AcDbSymbolTableRecord
100
AcDbBlockTableRecord
2
*D29
70
0
280
1
281
0
0
BLOCK_RECORD
5
56
330
1
100
AcDbSymbolTableRecord
100
AcDbBlockTableRecord
2
*D39
70
0
280
1
281
0
0
BLOCK_RECORD
5
59
330
1
100
AcDbSymbolTableRecord
100
AcDbBlockTableRecord
2
*D25
70
0
280
1
281
0
0
BLOCK_RECORD
5
5C
330
1
100
AcDbSymbolTableRecord
100
AcDbBlockTableRecord
2
*D27
70
0
280
1
281
0
0
BLOCK_RECORD
5
5F
330
1
100
AcDbSymbolTableRecord
100
AcDbBlockTableRecord
2
*D51
70
0
280
1
281
0
0
BLOCK_RECORD
5
62
330
1
100
AcDbSymbolTableRecord
100
AcDbBlockTableRecord
2
*D4
70
0
280
1
281
0
0
BLOCK_RECORD
5
65
330
1
100
AcDbSymbolTableRecord
100
AcDbBlockTableRecord
2
*D11
70
0
280
1
281
0
0
BLOCK_RECORD
5
68
330
1
100
AcDbSymbolTableRecord
100
AcDbBlockTableRecord
2
*D54
70
0
280
1
281
0
0
BLOCK_RECORD
5
6B
330
1
100
AcDbSymbolTableRecord
100
AcDbBlockTableRecord
2
*D33
70
0
280
1
281
0
0
BLOCK_RECORD
5
6E
330
1
100
AcDbSymbolTableRecord
100
AcDbBlockTableRecord
2
*D20
70
0
280
1
281
0
0
BLOCK_RECORD
5
71
330
1
100
AcDbSymbolTableRecord
100
AcDbBlockTableRecord
2
*D52
70
0
280
1
281
0
0
BLOCK_RECORD
5
74
330
1
100
AcDbSymbolTableRecord
100
AcDbBlockTableRecord
2
*D26
70
0
280
1
281
0
0
BLOCK_RECORD
5
77
330
1
100
AcDbSymbolTableRecord
100
AcDbBlockTableRecord
2
*D46
70
0
280
1
281
0
0
BLOCK_RECORD
5
7A
330
1
100
AcDbSymbolTableRecord
100
AcDbBlockTableRecord
2
*D48
70
0
280
1
281
0
0
BLOCK_RECORD
5
7D
330
1
100
AcDbSymbolTableRecord
100
AcDbBlockTableRecord
2
*D43
70
0
280
1
281
0
0
BLOCK_RECORD
5
80
330
1
100
AcDbSymbolTableRecord
100
AcDbBlockTableRecord
2
*D37
70
0
280
1
281
0
0
BLOCK_RECORD
5
83
330
1
100
AcDbSymbolTableRecord
100
AcDbBlockTableRecord
2
*D9
70
0
280
1
281
0
0
BLOCK_RECORD
5
86
330
1
100
AcDbSymbolTableRecord
100
AcDbBlockTableRecord
2
*D47
70
0
280
1
281
0
0
BLOCK_RECORD
5
89
330
1
100
AcDbSymbolTableRecord
100
AcDbBlockTableRecord
2
*D38
70
0
280
1
281
0
0
BLOCK_RECORD
5
8C
330
1
100
AcDbSymbolTableRecord
100
AcDbBlockTableRecord
2
*D49
70
0
280
1
281
0
0
BLOCK_RECORD
5
8F
330
1
100
AcDbSymbolTableRecord
100
AcDbBlockTableRecord
2
*D24
70
0
280
1
281
0
0
BLOCK_RECORD
5
92
330
1
100
AcDbSymbolTableRecord
100
AcDbBlockTableRecord
2
*D35
70
0
280
1
281
0
0
BLOCK_RECORD
5
95
330
1
100
AcDbSymbolTableRecord
100
AcDbBlockTableRecord
2
*D36
70
0
280
1
281
0
0
BLOCK_RECORD
5
98
330
1
100
AcDbSymbolTableRecord
100
AcDbBlockTableRecord
2
*D14
70
0
280
1
281
0
0
BLOCK_RECORD
5
9B
330
1
100
AcDbSymbolTableRecord
100
AcDbBlockTableRecord
2
*D23
70
0
280
1
281
0
0
BLOCK_RECORD
5
9E
330
1
100
AcDbSymbolTableRecord
100
AcDbBlockTableRecord
2
*D7
70
0
280
1
281
0
0
BLOCK_RECORD
5
A1
330
1
100
AcDbSymbolTableRecord
100
AcDbBlockTableRecord
2
*D28
70
0
280
1
281
0
0
BLOCK_RECORD
5
A4
330
1
100
AcDbSymbolTableRecord
100
AcDbBlockTableRecord
2
*D15
70
0
280
1
281
0
0
BLOCK_RECORD
5
A7
330
1
100
AcDbSymbolTableRecord
100
AcDbBlockTableRecord
2
*D41
70
0
280
1
281
0
0
BLOCK_RECORD
5
AA
330
1
100
AcDbSymbolTableRecord
100
AcDbBlockTableRecord
2
*D32
70
0
280
1
281
0
0
BLOCK_RECORD
5
AD
330
1
100
AcDbSymbolTableRecord
100
AcDbBlockTableRecord
2
*D13
70
0
280
1
281
0
0
BLOCK_RECORD
5
B0
330
1
100
AcDbSymbolTableRecord
100
AcDbBlockTableRecord
2
*D21
70
0
280
1
281
0
0
BLOCK_RECORD
5
B3
330
1
100
AcDbSymbolTableRecord
100
AcDbBlockTableRecord
2
*D19
70
0
280
1
281
0
0
BLOCK_RECORD
5
B6
330
1
100
AcDbSymbolTableRecord
100
AcDbBlockTableRecord
2
*D10
70
0
280
1
281
0
0
BLOCK_RECORD
5
B9
330
1
100
AcDbSymbolTableRecord
100
AcDbBlockTableRecord
2
*D2
70
0
280
1
281
0
0
BLOCK_RECORD
5
BC
330
1
100
AcDbSymbolTableRecord
100
AcDbBlockTableRecord
2
*D30
70
0
280
1
281
0
0
BLOCK_RECORD
5
BF
330
1
100
AcDbSymbolTableRecord
100
AcDbBlockTableRecord
2
*D40
70
0
280
1
281
0
0
BLOCK_RECORD
5
C2
330
1
100
AcDbSymbolTableRecord
100
AcDbBlockTableRecord
2
*D6
70
0
280
1
281
0
0
BLOCK_RECORD
5
C5
330
1
100
AcDbSymbolTableRecord
100
AcDbBlockTableRecord
2
*D5
70
0
280
1
281
0
0
BLOCK_RECORD
5
C8
330
1
100
AcDbSymbolTableRecord
100
AcDbBlockTableRecord
2
*D3
70
0
280
1
281
0
0
BLOCK_RECORD
5
CB
330
1
100
AcDbSymbolTableRecord
100
AcDbBlockTableRecord
2
*D53
70
0
280
1
281
0
0
BLOCK_RECORD
5
CE
330
1
100
AcDbSymbolTableRecord
100
AcDbBlockTableRecord
2
*D12
70
0
280
1
281
0
0
BLOCK_RECORD
5
D1
330
1
100
AcDbSymbolTableRecord
100
AcDbBlockTableRecord
2
*D8
70
0
280
1
281
0
0
BLOCK_RECORD
5
D4
330
1
100
AcDbSymbolTableRecord
100
AcDbBlockTableRecord
2
*D18
70
0
280
1
281
0
0
BLOCK_RECORD
5
D7
330
1
100
AcDbSymbolTableRecord
100
AcDbBlockTableRecord
2
*D34
70
0
280
1
281
0
0
BLOCK_RECORD
5
DA
330
1
100
AcDbSymbolTableRecord
100
AcDbBlockTableRecord
2
*D17
70
0
280
1
281
0
0
BLOCK_RECORD
5
DD
330
1
100
AcDbSymbolTableRecord
100
AcDbBlockTableRecord
2
*D45
70
0
280
1
281
0
0
BLOCK_RECORD
5
E0
330
1
100
AcDbSymbolTableRecord
100
AcDbBlockTableRecord
2
*D42
70
0
280
1
281
0
0
BLOCK_RECORD
5
E3
330
1
100
AcDbSymbolTableRecord
100
AcDbBlockTableRecord
2
*D22
70
0
280
1
281
0
0
BLOCK_RECORD
5
E6
330
1
100
AcDbSymbolTableRecord
100
AcDbBlockTableRecord
2
*D1
70
0
280
1
281
0
0
BLOCK_RECORD
5
E9
330
1
100
AcDbSymbolTableRecord
100
AcDbBlockTableRecord
2
*D44
70
0
280
1
281
0
0
BLOCK_RECORD
5
EC
330
1
100
AcDbSymbolTableRecord
100
AcDbBlockTableRecord
2
*D16
70
0
280
1
281
0
0
BLOCK_RECORD
5
EF
330
1
100
AcDbSymbolTableRecord
100
AcDbBlockTableRecord
2
*D31
70
0
280
1
281
0
0
ENDTAB
0
ENDSEC
0
SECTION
2
BLOCKS
0
BLOCK
5
20
330
1F
100
AcDbEntity
8
0
100
AcDbBlockBegin
2
*Model_Space
70
0
10
0
20
0
30
0
3
*Model_Space
1

0
ENDBLK
5
21
330
1F
100
AcDbEntity
8
0
100
AcDbBlockEnd
0
BLOCK
5
1C
330
1B
100
AcDbEntity
8
0
100
AcDbBlockBegin
2
*Paper_Space
70
0
10
0
20
0
30
0
3
*Paper_Space
1

0
ENDBLK
5
1D
330
1F
100
AcDbEntity
8
0
100
AcDbBlockEnd
0
BLOCK
5
51
330
50
100
AcDbEntity
8
0
100
AcDbBlockBegin
2
*D50
70
1
10
0
20
0
3
*D50
1

0
LINE
5
F2
100
AcDbEntity
8
quote4
6
CONTINUOUS
62
7
370
0
100
AcDbLine
10
398.664584481
20
-2.40257035274
11
398.664584481
21
-16.4025703527
0
SOLID
5
F3
100
AcDbEntity
8
quote4
6
CONTINUOUS
62
7
370
0
100
AcDbTrace
10
398.664584481
20
-7.40257035274
30
0
11
398.248299823
21
-4.90257035274
31
0
12
399.080869139
22
-4.90257035274
32
0
13
399.080869139
23
-4.90257035274
33
0
0
SOLID
5
F4
100
AcDbEntity
8
quote4
6
CONTINUOUS
62
7
370
0
100
AcDbTrace
10
398.664584481
20
-11.4025703527
30
0
11
399.080869139
21
-13.9025703527
31
0
12
398.248299823
22
-13.9025703527
32
0
13
398.248299823
23
-13.9025703527
33
0
0
MTEXT
5
F5
100
AcDbEntity
8
quote4
6
CONTINUOUS
62
7
370
0
100
AcDbMText
10
396.789584481
20
-9.40257035274
30
0
40
2.5
41
1.38888888889
71
5
72
1
1
4
7
standard
210
0
220
0
230
1
50
90
73
2
44
1
0
LINE
5
F6
100
AcDbEntity
8
quote4
6
CONTINUOUS
62
7
370
0
100
AcDbLine
10
303.193524159
20
-7.40257035274
11
399.914584481
21
-7.40257035274
0
LINE
5
F7
100
AcDbEntity
8
quote4
6
CONTINUOUS
62
7
370
0
100
AcDbLine
10
350.328053714
20
-11.4025703527
11
399.914584481
21
-11.4025703527
0
ENDBLK
5
52
330
50
100
AcDbEntity
8
0
100
AcDbBlockEnd
0
BLOCK
5
54
330
53
100
AcDbEntity
8
0
100
AcDbBlockBegin
2
*D29
70
1
10
0
20
0
3
*D29
1

0
LINE
5
F8
100
AcDbEntity
8
quote1
6
CONTINUOUS
62
7
370
0
100
AcDbLine
10
185.075470446
20
-12
11
198.452529554
21
-12
0
SOLID
5
F9
100
AcDbEntity
8
quote1
6
CONTINUOUS
62
7
370
0
100
AcDbTrace
10
185.075470446
20
-12
30
0
11
187.575470446
21
-11.5837153422
31
0
12
187.575470446
22
-12.4162846578
32
0
13
187.575470446
23
-12.4162846578
33
0
0
SOLID
5
FA
100
AcDbEntity
8
quote1
6
CONTINUOUS
62
7
370
0
100
AcDbTrace
10
198.452529554
20
-12
30
0
11
195.952529554
21
-12.4162846578
31
0
12
195.952529554
22
-11.5837153422
32
0
13
195.952529554
23
-11.5837153422
33
0
0
MTEXT
5
FB
100
AcDbEntity
8
quote1
6
CONTINUOUS
62
7
370
0
100
AcDbMText
10
191.764
20
-10.125
30
0
40
2.5
41
10.5555555556
71
5
72
1
1
13.3771
7
standard
210
0
220
0
230
1
50
0
73
2
44
1
0
LINE
5
FC
100
AcDbEntity
8
quote1
6
CONTINUOUS
62
7
370
0
100
AcDbLine
10
185.075470446
20
1.94257035274
11
185.075470446
21
-13.25
0
LINE
5
FD
100
AcDbEntity
8
quote1
6
CONTINUOUS
62
7
370
0
100
AcDbLine
10
198.452529554
20
0.80742964726
11
198.452529554
21
-13.25
0
ENDBLK
5
55
330
53
100
AcDbEntity
8
0
100
AcDbBlockEnd
0
BLOCK
5
57
330
56
100
AcDbEntity
8
0
100
AcDbBlockBegin
2
*D39
70
1
10
0
20
0
3
*D39
1

0
LINE
5
FE
100
AcDbEntity
8
quote3
6
CONTINUOUS
62
7
370
0
100
AcDbLine
10
336.390001212
20
-39.5433753944
11
0
21
-39.5433753944
0
SOLID
5
FF
100
AcDbEntity
8
quote3
6
CONTINUOUS
62
7
370
0
100
AcDbTrace
10
336.390001212
20
-39.5433753944
30
0
11
333.890001212
21
-39.9596600522
31
0
12
333.890001212
22
-39.1270907366
32
0
13
333.890001212
23
-39.1270907366
33
0
0
SOLID
5
100
100
AcDbEntity
8
quote3
6
CONTINUOUS
62
7
370
0
100
AcDbTrace
10
0
20
-39.5433753944
30
0
11
2.5
21
-39.1270907366
31
0
12
2.5
22
-39.9596600522
32
0
13
2.5
23
-39.9596600522
33
0
0
MTEXT
5
101
100
AcDbEntity
8
quote3
6
CONTINUOUS
62
7
370
0
100
AcDbMText
10
168.195000606
20
-37.6683753944
30
0
40
2.5
41
9.72222222222
71
5
72
1
1
336.39
7
standard
210
0
220
0
230
1
50
360
73
2
44
1
0
LINE
5
102
100
AcDbEntity
8
quote3
6
CONTINUOUS
62
7
370
0
100
AcDbLine
10
336.390001212
20
-9.46
11
336.390001212
21
-40.7933753944
0
LINE
5
103
100
AcDbEntity
8
quote3
6
CONTINUOUS
62
7
370
0
100
AcDbLine
10
-1.1481063742e-16
20
-0.625
11
-2.2962127484e-16
21
-40.7933753944
0
ENDBLK
5
58
330
56
100
AcDbEntity
8
0
100
AcDbBlockEnd
0
BLOCK
5
5A
330
59
100
AcDbEntity
8
0
100
AcDbBlockBegin
2
*D25
70
1
10
0
20
0
3
*D25
1

0
LINE
5
104
100
AcDbEntity
8
quote1
6
CONTINUOUS
62
7
370
0
100
AcDbLine
10
81.020003163
20
-12
11
151.253996696
21
-12
0
SOLID
5
105
100
AcDbEntity
8
quote1
6
CONTINUOUS
62
7
370
0
100
AcDbTrace
10
81.020003163
20
-12
30
0
11
83.520003163
21
-11.5837153422
31
0
12
83.520003163
22
-12.4162846578
32
0
13
83.520003163
23
-12.4162846578
33
0
0
SOLID
5
106
100
AcDbEntity
8
quote1
6
CONTINUOUS
62
7
370
0
100
AcDbTrace
10
151.253996696
20
-12
30
0
11
148.753996696
21
-12.4162846578
31
0
12
148.753996696
22
-11.5837153422
32
0
13
148.753996696
23
-11.5837153422
33
0
0
MTEXT
5
107
100
AcDbEntity
8
quote1
6
CONTINUOUS
62
7
370
0
100
AcDbMText
10
116.13699993
20
-10.125
30
0
40
2.5
41
10
71
5
72
1
1
70.234
7
standard
210
0
220
0
230
1
50
0
73
2
44
1
0
LINE
5
108
100
AcDbEntity
8
quote1
6
CONTINUOUS
62
7
370
0
100
AcDbLine
10
81.020003163
20
3.375
11
81.020003163
21
-13.25
0
LINE
5
109
100
AcDbEntity
8
quote1
6
CONTINUOUS
62
7
370
0
100
AcDbLine
10
151.253996696
20
3.375
11
151.253996696
21
-13.25
0
ENDBLK
5
5B
330
59
100
AcDbEntity
8
0
100
AcDbBlockEnd
0
BLOCK
5
5D
330
5C
100
AcDbEntity
8
0
100
AcDbBlockBegin
2
*D27
70
1
10
0
20
0
3
*D27
1

0
LINE
5
10A
100
AcDbEntity
8
quote1
6
CONTINUOUS
62
7
370
0
100
AcDbLine
10
151.254
20
-36
11
0
21
-36
0
SOLID
5
10B
100
AcDbEntity
8
quote1
6
CONTINUOUS
62
7
370
0
100
AcDbTrace
10
151.254
20
-36
30
0
11
148.754
21
-36.4162846578
31
0
12
148.754
22
-35.5837153422
32
0
13
148.754
23
-35.5837153422
33
0
0
SOLID
5
10C
100
AcDbEntity
8
quote1
6
CONTINUOUS
62
7
370
0
100
AcDbTrace
10
0
20
-36
30
0
11
2.5
21
-35.5837153422
31
0
12
2.5
22
-36.4162846578
32
0
13
2.5
23
-36.4162846578
33
0
0
MTEXT
5
10D
100
AcDbEntity
8
quote1
6
CONTINUOUS
62
7
370
0
100
AcDbMText
10
75.627
20
-34.125
30
0
40
2.5
41
10.8333333333
71
5
72
1
1
151.254
7
standard
210
0
220
0
230
1
50
360
73
2
44
1
0
LINE
5
10E
100
AcDbEntity
8
quote1
6
CONTINUOUS
62
7
370
0
100
AcDbLine
10
151.254
20
3.375
11
151.254
21
-37.25
0
LINE
5
10F
100
AcDbEntity
8
quote1
6
CONTINUOUS
62
7
370
0
100
AcDbLine
10
-1.1481063742e-16
20
-0.625
11
-2.2962127484e-16
21
-37.25
0
ENDBLK
5
5E
330
5C
100
AcDbEntity
8
0
100
AcDbBlockEnd
0
BLOCK
5
60
330
5F
100
AcDbEntity
8
0
100
AcDbBlockBegin
2
*D51
70
1
10
0
20
0
3
*D51
1

0
LINE
5
110
100
AcDbEntity
8
quote4
6
CONTINUOUS
62
7
370
0
100
AcDbLine
10
405.6792106
20
-6.4025703527
11
405.6792106
21
-17.835
0
SOLID
5
111
100
AcDbEntity
8
quote4
6
CONTINUOUS
62
7
370
0
100
AcDbTrace
10
405.6792106
20
-11.4025703527
30
0
11
405.262925942
21
-8.9025703527
31
0
12
406.095495258
22
-8.9025703527
32
0
13
406.095495258
23
-8.9025703527
33
0
0
SOLID
5
112
100
AcDbEntity
8
quote4
6
CONTINUOUS
62
7
370
0
100
AcDbTrace
10
405.6792106
20
-12.835
30
0
11
406.095495258
21
-15.335
31
0
12
405.262925942
22
-15.335
32
0
13
405.262925942
23
-15.335
33
0
0
MTEXT
5
113
100
AcDbEntity
8
quote4
6
CONTINUOUS
62
7
370
0
100
AcDbMText
10
403.8042106
20
-5.91645924164
30
0
40
2.5
41
9.72222222222
71
5
72
1
1
1.4324
7
standard
210
0
220
0
230
1
50
90
73
2
44
1
0
LINE
5
114
100
AcDbEntity
8
quote4
6
CONTINUOUS
62
7
370
0
100
AcDbLine
10
350.328053714
20
-11.4025703527
11
406.9292106
21
-11.4025703527
0
LINE
5
115
100
AcDbEntity
8
quote4
6
CONTINUOUS
62
7
370
0
100
AcDbLine
10
384.149524159
20
-12.835
11
406.9292106
21
-12.835
0
ENDBLK
5
61
330
5F
100
AcDbEntity
8
0
100
AcDbBlockEnd
0
BLOCK
5
63
330
62
100
AcDbEntity
8
0
100
AcDbBlockBegin
2
*D4
70
1
10
0
20
0
3
*D4
1

0
LINE
5
116
100
AcDbEntity
8
quote1
6
CONTINUOUS
62
7
370
0
100
AcDbLine
10
0
20
-12
11
33.8214704458
21
-12
0
SOLID
5
117
100
AcDbEntity
8
quote1
6
CONTINUOUS
62
7
370
0
100
AcDbTrace
10
0
20
-12
30
0
11
2.5
21
-11.5837153422
31
0
12
2.5
22
-12.4162846578
32
0
13
2.5
23
-12.4162846578
33
0
0
SOLID
5
118
100
AcDbEntity
8
quote1
6
CONTINUOUS
62
7
370
0
100
AcDbTrace
10
33.8214704458
20
-12
30
0
11
31.3214704458
21
-12.4162846578
31
0
12
31.3214704458
22
-11.5837153422
32
0
13
31.3214704458
23
-11.5837153422
33
0
0
MTEXT
5
119
100
AcDbEntity
8
quote1
6
CONTINUOUS
62
7
370
0
100
AcDbMText
10
16.9107352229
20
-10.125
30
0
40
2.5
41
11.1111111111
71
5
72
1
1
33.8215
7
standard
210
0
220
0
230
1
50
0
73
2
44
1
0
LINE
5
11A
100
AcDbEntity
8
quote1
6
CONTINUOUS
62
7
370
0
100
AcDbLine
10
-1.1481063742e-16
20
-0.625
11
-2.2962127484e-16
21
-13.25
0
LINE
5
11B
100
AcDbEntity
8
quote1
6
CONTINUOUS
62
7
370
0
100
AcDbLine
10
33.8214704458
20
0.80742964726
11
33.8214704458
21
-13.25
0
ENDBLK
5
64
330
62
100
AcDbEntity
8
0
100
AcDbBlockEnd
0
BLOCK
5
66
330
65
100
AcDbEntity
8
0
100
AcDbBlockBegin
2
*D11
70
1
10
0
20
0
3
*D11
1

0
LINE
5
11C
100
AcDbEntity
8
quote2
6
CONTINUOUS
62
7
370
0
100
AcDbLine
10
-2
20
6.4025703527
11
-2
21
17.835
0
SOLID
5
11D
100
AcDbEntity
8
quote2
6
CONTINUOUS
62
7
370
0
100
AcDbTrace
10
-2
20
11.4025703527
30
0
11
-1.58371534223
21
8.9025703527
31
0
12
-2.41628465777
22
8.9025703527
32
0
13
-2.41628465777
23
8.9025703527
33
0
0
SOLID
5
11E
100
AcDbEntity
8
quote2
6
CONTINUOUS
62
7
370
0
100
AcDbTrace
10
-2
20
12.835
30
0
11
-2.41628465777
21
15.335
31
0
12
-1.58371534223
22
15.335
32
0
13
-1.58371534223
23
15.335
33
0
0
MTEXT
5
11F
100
AcDbEntity
8
quote2
6
CONTINUOUS
62
7
370
0
100
AcDbMText
10
-3.875
20
18.3211111112
30
0
40
2.5
41
9.72222222222
71
5
72
1
1
1.4324
7
standard
210
0
220
0
230
1
50
90
73
2
44
1
0
LINE
5
120
100
AcDbEntity
8
quote2
6
CONTINUOUS
62
7
370
0
100
AcDbLine
10
80.3344704458
20
11.4025703527
11
-3.25
21
11.4025703527
0
LINE
5
121
100
AcDbEntity
8
quote2
6
CONTINUOUS
62
7
370
0
100
AcDbLine
10
46.513003504
20
12.835
11
-3.25
21
12.835
0
ENDBLK
5
67
330
65
100
AcDbEntity
8
0
100
AcDbBlockEnd
0
BLOCK
5
69
330
68
100
AcDbEntity
8
0
100
AcDbBlockBegin
2
*D54
70
1
10
0
20
0
3
*D54
1

0
LINE
5
122
100
AcDbEntity
8
quote2
6
CONTINUOUS
62
7
370
0
100
AcDbLine
10
80.9066245543
20
6.05519148918
11
78.3419672658
21
36.2783677973
0
LINE
5
123
100
AcDbEntity
8
quote2
6
CONTINUOUS
62
7
370
0
100
AcDbLine
10
151.261683662
20
12.0253321946
11
148.697026374
21
42.2485085027
0
LINE
5
124
100
AcDbEntity
8
quote2
6
CONTINUOUS
62
7
370
0
100
AcDbLine
10
78.4476590488
20
35.0328441135
11
148.802718157
21
41.0029848189
0
SOLID
5
125
100
AcDbEntity
8
quote2
6
CONTINUOUS
62
7
370
0
100
AcDbTrace
10
78.4476590488
20
35.0328441135
30
0
11
80.9035081223
21
35.6590216
31
0
12
80.9739047107
22
34.8294337592
32
0
13
80.9739047107
23
34.8294337592
33
0
0
SOLID
5
126
100
AcDbEntity
8
quote2
6
CONTINUOUS
62
7
370
0
100
AcDbTrace
10
148.802718157
20
41.0029848189
30
0
11
146.346869084
21
40.3768073324
31
0
12
146.276472495
22
41.2063951732
32
0
13
146.276472495
23
41.2063951732
33
0
0
MTEXT
5
127
100
AcDbEntity
8
quote2
6
CONTINUOUS
62
7
370
0
100
AcDbMText
10
113.466650928
20
39.8861999919
30
0
40
2.5
41
11.6666666667
71
5
72
1
1
70.6079
7
standard
210
0
220
0
230
1
50
4.85034564376
73
2
44
1
0
ENDBLK
5
6A
330
68
100
AcDbEntity
8
0
100
AcDbBlockEnd
0
BLOCK
5
6C
330
6B
100
AcDbEntity
8
0
100
AcDbBlockBegin
2
*D33
70
1
10
0
20
0
3
*D33
1

0
LINE
5
128
100
AcDbEntity
8
quote3
6
CONTINUOUS
62
7
370
0
100
AcDbLine
10
-8.52651282912e-14
20
-19.976094243
11
198.391994605
21
-19.976094243
0
SOLID
5
129
100
AcDbEntity
8
quote3
6
CONTINUOUS
62
7
370
0
100
AcDbTrace
10
-8.52651282912e-14
20
-19.976094243
30
0
11
2.5
21
-19.5598095852
31
0
12
2.5
22
-20.3923789008
32
0
13
2.5
23
-20.3923789008
33
0
0
SOLID
5
12A
100
AcDbEntity
8
quote3
6
CONTINUOUS
62
7
370
0
100
AcDbTrace
10
198.391994605
20
-19.976094243
30
0
11
195.891994605
21
-20.3923789008
31
0
12
195.891994605
22
-19.5598095852
32
0
13
195.891994605
23
-19.5598095852
33
0
0
MTEXT
5
12B
100
AcDbEntity
8
quote3
6
CONTINUOUS
62
7
370
0
100
AcDbMText
10
99.1959973026
20
-18.101094243
30
0
40
2.5
41
11.1111111111
71
5
72
1
1
198.392
7
standard
210
0
220
0
230
1
50
0
73
2
44
1
0
LINE
5
12C
100
AcDbEntity
8
quote3
6
CONTINUOUS
62
7
370
0
100
AcDbLine
10
-7.41487300985e-14
20
-0.625
11
-8.66049725907e-14
21
-21.226094243
0
LINE
5
12D
100
AcDbEntity
8
quote3
6
CONTINUOUS
62
7
370
0
100
AcDbLine
10
198.391994605
20
-0.625
11
198.391994605
21
-21.226094243
0
ENDBLK
5
6D
330
6B
100
AcDbEntity
8
0
100
AcDbBlockEnd
0
BLOCK
5
6F
330
6E
100
AcDbEntity
8
0
100
AcDbBlockBegin
2
*D20
70
1
10
0
20
0
3
*D20
1

0
LINE
5
12E
100
AcDbEntity
8
quote2
6
CONTINUOUS
62
7
370
0
100
AcDbLine
10
80.9594704458
20
-5
11
116.137
21
-5
0
SOLID
5
12F
100
AcDbEntity
8
quote2
6
CONTINUOUS
62
7
370
0
100
AcDbTrace
10
80.9594704458
20
-5
30
0
11
83.4594704458
21
-4.58371534223
31
0
12
83.4594704458
22
-5.41628465777
32
0
13
83.4594704458
23
-5.41628465777
33
0
0
SOLID
5
130
100
AcDbEntity
8
quote2
6
CONTINUOUS
62
7
370
0
100
AcDbTrace
10
116.137
20
-5
30
0
11
113.637
21
-5.41628465777
31
0
12
113.637
22
-4.58371534223
32
0
13
113.637
23
-4.58371534223
33
0
0
MTEXT
5
131
100
AcDbEntity
8
quote2
6
CONTINUOUS
62
7
370
0
100
AcDbMText
10
98.5482352229
20
-3.125
30
0
40
2.5
41
11.1111111111
71
5
72
1
1
35.1775
7
standard
210
0
220
0
230
1
50
0
73
2
44
1
0
LINE
5
132
100
AcDbEntity
8
quote2
6
CONTINUOUS
62
7
370
0
100
AcDbLine
10
80.9594704458
20
4.80742964726
11
80.9594704458
21
-6.25
0
LINE
5
133
100
AcDbEntity
8
quote2
6
CONTINUOUS
62
7
370
0
100
AcDbLine
10
116.137
20
7.7925
11
116.137
21
-6.25
0
ENDBLK
5
70
330
6E
100
AcDbEntity
8
0
100
AcDbBlockEnd
0
BLOCK
5
72
330
71
100
AcDbEntity
8
0
100
AcDbBlockBegin
2
*D52
70
1
10
0
20
0
3
*D52
1

0
LINE
5
134
100
AcDbEntity
8
quote4
6
CONTINUOUS
62
7
370
0
100
AcDbLine
10
412.070314399
20
-2.40257035274
11
412.070314399
21
-17.835
0
SOLID
5
135
100
AcDbEntity
8
quote4
6
CONTINUOUS
62
7
370
0
100
AcDbTrace
10
412.070314399
20
-7.40257035274
30
0
11
411.654029741
21
-4.90257035274
31
0
12
412.486599057
22
-4.90257035274
32
0
13
412.486599057
23
-4.90257035274
33
0
0
SOLID
5
136
100
AcDbEntity
8
quote4
6
CONTINUOUS
62
7
370
0
100
AcDbTrace
10
412.070314399
20
-12.835
30
0
11
412.486599057
21
-15.335
31
0
12
411.654029741
22
-15.335
32
0
13
411.654029741
23
-15.335
33
0
0
MTEXT
5
137
100
AcDbEntity
8
quote4
6
CONTINUOUS
62
7
370
0
100
AcDbMText
10
410.195314399
20
-1.63868146388
30
0
40
2.5
41
10.2777777778
71
5
72
1
1
5.4324
7
standard
210
0
220
0
230
1
50
90
73
2
44
1
0
LINE
5
138
100
AcDbEntity
8
quote4
6
CONTINUOUS
62
7
370
0
100
AcDbLine
10
303.193524159
20
-7.40257035274
11
413.320314399
21
-7.40257035274
0
LINE
5
139
100
AcDbEntity
8
quote4
6
CONTINUOUS
62
7
370
0
100
AcDbLine
10
384.149524159
20
-12.835
11
413.320314399
21
-12.835
0
ENDBLK
5
73
330
71
100
AcDbEntity
8
0
100
AcDbBlockEnd
0
BLOCK
5
75
330
74
100
AcDbEntity
8
0
100
AcDbBlockBegin
2
*D26
70
1
10
0
20
0
3
*D26
1

0
LINE
5
13A
100
AcDbEntity
8
quote1
6
CONTINUOUS
62
7
370
0
100
AcDbLine
10
151.254
20
-12
11
185.075470446
21
-12
0
SOLID
5
13B
100
AcDbEntity
8
quote1
6
CONTINUOUS
62
7
370
0
100
AcDbTrace
10
151.254
20
-12
30
0
11
153.754
21
-11.5837153422
31
0
12
153.754
22
-12.4162846578
32
0
13
153.754
23
-12.4162846578
33
0
0
SOLID
5
13C
100
AcDbEntity
8
quote1
6
CONTINUOUS
62
7
370
0
100
AcDbTrace
10
185.075470446
20
-12
30
0
11
182.575470446
21
-12.4162846578
31
0
12
182.575470446
22
-11.5837153422
32
0
13
182.575470446
23
-11.5837153422
33
0
0
MTEXT
5
13D
100
AcDbEntity
8
quote1
6
CONTINUOUS
62
7
370
0
100
AcDbMText
10
168.164735223
20
-10.125
30
0
40
2.5
41
11.1111111111
71
5
72
1
1
33.8215
7
standard
210
0
220
0
230
1
50
0
73
2
44
1
0
LINE
5
13E
100
AcDbEntity
8
quote1
6
CONTINUOUS
62
7
370
0
100
AcDbLine
10
151.254
20
3.375
11
151.254
21
-13.25
0
LINE
5
13F
100
AcDbEntity
8
quote1
6
CONTINUOUS
62
7
370
0
100
AcDbLine
10
185.075470446
20
1.94257035274
11
185.075470446
21
-13.25
0
ENDBLK
5
76
330
74
100
AcDbEntity
8
0
100
AcDbBlockEnd
0
BLOCK
5
78
330
77
100
AcDbEntity
8
0
100
AcDbBlockBegin
2
*D46
70
1
10
0
20
0
3
*D46
1

0
LINE
5
140
100
AcDbEntity
8
quote4
6
CONTINUOUS
62
7
370
0
100
AcDbLine
10
383.524529554
20
-33.8199921137
11
0
21
-33.8199921137
0
SOLID
5
141
100
AcDbEntity
8
quote4
6
CONTINUOUS
62
7
370
0
100
AcDbTrace
10
383.524529554
20
-33.8199921137
30
0
11
381.024529554
21
-34.2362767715
31
0
12
381.024529554
22
-33.4037074559
32
0
13
381.024529554
23
-33.4037074559
33
0
0
SOLID
5
142
100
AcDbEntity
8
quote4
6
CONTINUOUS
62
7
370
0
100
AcDbTrace
10
0
20
-33.8199921137
30
0
11
2.5
21
-33.4037074559
31
0
12
2.5
22
-34.2362767715
32
0
13
2.5
23
-34.2362767715
33
0
0
MTEXT
5
143
100
AcDbEntity
8
quote4
6
CONTINUOUS
62
7
370
0
100
AcDbMText
10
191.762264777
20
-31.9449921137
30
0
40
2.5
41
13.8888888889
71
5
72
1
1
383.5245
7
standard
210
0
220
0
230
1
50
360
73
2
44
1
0
LINE
5
144
100
AcDbEntity
8
quote4
6
CONTINUOUS
62
7
370
0
100
AcDbLine
10
383.524529554
20
-13.46
11
383.524529554
21
-35.0699921137
0
LINE
5
145
100
AcDbEntity
8
quote4
6
CONTINUOUS
62
7
370
0
100
AcDbLine
10
-1.1481063742e-16
20
-0.625
11
-2.2962127484e-16
21
-35.0699921137
0
ENDBLK
5
79
330
77
100
AcDbEntity
8
0
100
AcDbBlockEnd
0
BLOCK
5
7B
330
7A
100
AcDbEntity
8
0
100
AcDbBlockBegin
2
*D48
70
1
10
0
20
0
3
*D48
1

0
LINE
5
146
100
AcDbEntity
8
quote4
6
CONTINUOUS
62
7
370
0
100
AcDbLine
10
302.515674452
20
-8.02533187088
11
302.006951957
21
-14.0199307351
0
LINE
5
147
100
AcDbEntity
8
quote4
6
CONTINUOUS
62
7
370
0
100
AcDbLine
10
349.650204007
20
-12.0253318708
11
349.141481512
21
-18.019930735
0
LINE
5
148
100
AcDbEntity
8
quote4
6
CONTINUOUS
62
7
370
0
100
AcDbLine
10
302.112651371
20
-12.7744076988
11
349.247180926
21
-16.7744076987
0
SOLID
5
149
100
AcDbEntity
8
quote4
6
CONTINUOUS
62
7
370
0
100
AcDbTrace
10
302.112651371
20
-12.7744076988
30
0
11
304.638898279
21
-12.5710128217
31
0
12
304.568496608
22
-13.4006002312
32
0
13
304.568496608
23
-13.4006002312
33
0
0
SOLID
5
14A
100
AcDbEntity
8
quote4
6
CONTINUOUS
62
7
370
0
100
AcDbTrace
10
349.247180926
20
-16.7744076987
30
0
11
346.720934018
21
-16.9778025758
31
0
12
346.791335689
22
-16.1482151663
32
0
13
346.791335689
23
-16.1482151663
33
0
0
MTEXT
5
14B
100
AcDbEntity
8
quote4
6
CONTINUOUS
62
7
370
0
100
AcDbMText
10
325.83846527
20
-12.9061231442
30
0
40
2.5
41
10.2777777778
71
5
72
1
1
47.304
7
standard
210
0
220
0
230
1
50
355.14930333
73
2
44
1
0
ENDBLK
5
7C
330
7A
100
AcDbEntity
8
0
100
AcDbBlockEnd
0
BLOCK
5
7E
330
7D
100
AcDbEntity
8
0
100
AcDbBlockBegin
2
*D43
70
1
10
0
20
0
3
*D43
1

0
LINE
5
14C
100
AcDbEntity
8
quote4
6
CONTINUOUS
62
7
370
0
100
AcDbLine
10
383.524524159
20
-20.6933753944
11
349.703053714
21
-20.6933753944
0
SOLID
5
14D
100
AcDbEntity
8
quote4
6
CONTINUOUS
62
7
370
0
100
AcDbTrace
10
383.524524159
20
-20.6933753944
30
0
11
381.024524159
21
-21.1096600522
31
0
12
381.024524159
22
-20.2770907366
32
0
13
381.024524159
23
-20.2770907366
33
0
0
SOLID
5
14E
100
AcDbEntity
8
quote4
6
CONTINUOUS
62
7
370
0
100
AcDbTrace
10
349.703053714
20
-20.6933753944
30
0
11
352.203053714
21
-20.2770907366
31
0
12
352.203053714
22
-21.1096600522
32
0
13
352.203053714
23
-21.1096600522
33
0
0
MTEXT
5
14F
100
AcDbEntity
8
quote4
6
CONTINUOUS
62
7
370
0
100
AcDbMText
10
366.613788936
20
-18.8183753944
30
0
40
2.5
41
11.1111111111
71
5
72
1
1
33.8215
7
standard
210
0
220
0
230
1
50
360
73
2
44
1
0
LINE
5
150
100
AcDbEntity
8
quote4
6
CONTINUOUS
62
7
370
0
100
AcDbLine
10
383.524524159
20
-13.46
11
383.524524159
21
-21.9433753944
0
LINE
5
151
100
AcDbEntity
8
quote4
6
CONTINUOUS
62
7
370
0
100
AcDbLine
10
349.703053714
20
-12.0275703527
11
349.703053714
21
-21.9433753944
0
ENDBLK
5
7F
330
7D
100
AcDbEntity
8
0
100
AcDbBlockEnd
0
BLOCK
5
81
330
80
100
AcDbEntity
8
0
100
AcDbBlockBegin
2
*D37
70
1
10
0
20
0
3
*D37
1

0
LINE
5
152
100
AcDbEntity
8
quote3
6
CONTINUOUS
62
7
370
0
100
AcDbLine
10
302.568524159
20
-33.2996845427
11
0
21
-33.2996845427
0
SOLID
5
153
100
AcDbEntity
8
quote3
6
CONTINUOUS
62
7
370
0
100
AcDbTrace
10
302.568524159
20
-33.2996845427
30
0
11
300.068524159
21
-33.7159692005
31
0
12
300.068524159
22
-32.8833998849
32
0
13
300.068524159
23
-32.8833998849
33
0
0
SOLID
5
154
100
AcDbEntity
8
quote3
6
CONTINUOUS
62
7
370
0
100
AcDbTrace
10
0
20
-33.2996845427
30
0
11
2.5
21
-32.8833998849
31
0
12
2.5
22
-33.7159692005
32
0
13
2.5
23
-33.7159692005
33
0
0
MTEXT
5
155
100
AcDbEntity
8
quote3
6
CONTINUOUS
62
7
370
0
100
AcDbMText
10
151.28426208
20
-31.4246845427
30
0
40
2.5
41
13.6111111111
71
5
72
1
1
302.5685
7
standard
210
0
220
0
230
1
50
360
73
2
44
1
0
LINE
5
156
100
AcDbEntity
8
quote3
6
CONTINUOUS
62
7
370
0
100
AcDbLine
10
302.568524159
20
-8.02757035274
11
302.568524159
21
-34.5496845427
0
LINE
5
157
100
AcDbEntity
8
quote3
6
CONTINUOUS
62
7
370
0
100
AcDbLine
10
9.95412387205e-16
20
-0.625
11
1.99082477441e-15
21
-34.5496845427
0
ENDBLK
5
82
330
80
100
AcDbEntity
8
0
100
AcDbBlockEnd
0
BLOCK
5
84
330
83
100
AcDbEntity
8
0
100
AcDbBlockBegin
2
*D9
70
1
10
0
20
0
3
*D9
1

0
LINE
5
158
100
AcDbEntity
8
quote1
6
CONTINUOUS
62
7
370
0
100
AcDbLine
10
-12
20
6.43242964726
11
-12
21
-5
0
SOLID
5
159
100
AcDbEntity
8
quote1
6
CONTINUOUS
62
7
370
0
100
AcDbTrace
10
-12
20
1.43242964726
30
0
11
-12.4162846578
21
3.93242964726
31
0
12
-11.5837153422
22
3.93242964726
32
0
13
-11.5837153422
23
3.93242964726
33
0
0
SOLID
5
15A
100
AcDbEntity
8
quote1
6
CONTINUOUS
62
7
370
0
100
AcDbTrace
10
-12
20
6.39488462184e-16
30
0
11
-11.5837153422
21
-2.5
31
0
12
-12.4162846578
22
-2.5
32
0
13
-12.4162846578
23
-2.5
33
0
0
MTEXT
5
15B
100
AcDbEntity
8
quote1
6
CONTINUOUS
62
7
370
0
100
AcDbMText
10
-13.875
20
6.91854075837
30
0
40
2.5
41
9.72222222222
71
5
72
1
1
1.4324
7
standard
210
0
220
0
230
1
50
90
73
2
44
1
0
LINE
5
15C
100
AcDbEntity
8
quote1
6
CONTINUOUS
62
7
370
0
100
AcDbLine
10
33.1964704458
20
1.43242964726
11
-13.25
21
1.43242964726
0
LINE
5
15D
100
AcDbEntity
8
quote1
6
CONTINUOUS
62
7
370
0
100
AcDbLine
10
-0.625
20
7.65404249467e-17
11
-13.25
21
7.92569312078e-16
0
ENDBLK
5
85
330
83
100
AcDbEntity
8
0
100
AcDbBlockEnd
0
BLOCK
5
87
330
86
100
AcDbEntity
8
0
100
AcDbBlockBegin
2
*D47
70
1
10
0
20
0
3
*D47
1

0
LINE
5
15E
100
AcDbEntity
8
quote4
6
CONTINUOUS
62
7
370
0
100
AcDbLine
10
336.389994605
20
8.52471924292
11
383.524524159
21
8.52471924292
0
SOLID
5
15F
100
AcDbEntity
8
quote4
6
CONTINUOUS
62
7
370
0
100
AcDbTrace
10
336.389994605
20
8.52471924292
30
0
11
338.889994605
21
8.94100390069
31
0
12
338.889994605
22
8.10843458515
32
0
13
338.889994605
23
8.10843458515
33
0
0
SOLID
5
160
100
AcDbEntity
8
quote4
6
CONTINUOUS
62
7
370
0
100
AcDbTrace
10
383.524524159
20
8.52471924292
30
0
11
381.024524159
21
8.10843458515
31
0
12
381.024524159
22
8.94100390069
32
0
13
381.024524159
23
8.94100390069
33
0
0
MTEXT
5
161
100
AcDbEntity
8
quote4
6
CONTINUOUS
62
7
370
0
100
AcDbMText
10
359.957259382
20
10.3997192429
30
0
40
2.5
41
11.6666666667
71
5
72
1
1
47.1345
7
standard
210
0
220
0
230
1
50
0
73
2
44
1
0
LINE
5
162
100
AcDbEntity
8
quote4
6
CONTINUOUS
62
7
370
0
100
AcDbLine
10
336.389994605
20
-8.21
11
336.389994605
21
9.77471924292
0
LINE
5
163
100
AcDbEntity
8
quote4
6
CONTINUOUS
62
7
370
0
100
AcDbLine
10
383.524524159
20
-8.21
11
383.524524159
21
9.77471924292
0
ENDBLK
5
88
330
86
100
AcDbEntity
8
0
100
AcDbBlockEnd
0
BLOCK
5
8A
330
89
100
AcDbEntity
8
0
100
AcDbBlockBegin
2
*D38
70
1
10
0
20
0
3
*D38
1

0
LINE
5
164
100
AcDbEntity
8
quote3
6
CONTINUOUS
62
7
370
0
100
AcDbLine
10
302.568524159
20
-20.0306545868
11
336.390001212
21
-20.0306545868
0
SOLID
5
165
100
AcDbEntity
8
quote3
6
CONTINUOUS
62
7
370
0
100
AcDbTrace
10
302.568524159
20
-20.0306545868
30
0
11
305.068524159
21
-19.614369929
31
0
12
305.068524159
22
-20.4469392446
32
0
13
305.068524159
23
-20.4469392446
33
0
0
SOLID
5
166
100
AcDbEntity
8
quote3
6
CONTINUOUS
62
7
370
0
100
AcDbTrace
10
336.390001212
20
-20.0306545868
30
0
11
333.890001212
21
-20.4469392446
31
0
12
333.890001212
22
-19.614369929
32
0
13
333.890001212
23
-19.614369929
33
0
0
MTEXT
5
167
100
AcDbEntity
8
quote3
6
CONTINUOUS
62
7
370
0
100
AcDbMText
10
319.479262686
20
-18.1556545868
30
0
40
2.5
41
11.1111111111
71
5
72
1
1
33.8215
7
standard
210
0
220
0
230
1
50
0
73
2
44
1
0
LINE
5
168
100
AcDbEntity
8
quote3
6
CONTINUOUS
62
7
370
0
100
AcDbLine
10
302.568524159
20
-8.02757035274
11
302.568524159
21
-21.2806545868
0
LINE
5
169
100
AcDbEntity
8
quote3
6
CONTINUOUS
62
7
370
0
100
AcDbLine
10
336.390001212
20
-9.46
11
336.390001212
21
-21.2806545868
0
ENDBLK
5
8B
330
89
100
AcDbEntity
8
0
100
AcDbBlockEnd
0
BLOCK
5
8D
330
8C
100
AcDbEntity
8
0
100
AcDbBlockBegin
2
*D49
70
1
10
0
20
0
3
*D49
1

0
LINE
5
16A
100
AcDbEntity
8
quote4
6
CONTINUOUS
62
7
370
0
100
AcDbLine
10
391.961719522
20
-2.40257035274
11
391.961719522
21
-13.835
0
SOLID
5
16B
100
AcDbEntity
8
quote4
6
CONTINUOUS
62
7
370
0
100
AcDbTrace
10
391.961719522
20
-7.40257035274
30
0
11
391.545434864
21
-4.90257035274
31
0
12
392.37800418
22
-4.90257035274
32
0
13
392.37800418
23
-4.90257035274
33
0
0
SOLID
5
16C
100
AcDbEntity
8
quote4
6
CONTINUOUS
62
7
370
0
100
AcDbTrace
10
391.961719522
20
-8.835
30
0
11
392.37800418
21
-11.335
31
0
12
391.545434864
22
-11.335
32
0
13
391.545434864
23
-11.335
33
0
0
MTEXT
5
16D
100
AcDbEntity
8
quote4
6
CONTINUOUS
62
7
370
0
100
AcDbMText
10
390.086719522
20
-1.91645924163
30
0
40
2.5
41
9.72222222222
71
5
72
1
1
1.4324
7
standard
210
0
220
0
230
1
50
90
73
2
44
1
0
LINE
5
16E
100
AcDbEntity
8
quote4
6
CONTINUOUS
62
7
370
0
100
AcDbLine
10
303.193524159
20
-7.40257035274
11
393.211719522
21
-7.40257035274
0
LINE
5
16F
100
AcDbEntity
8
quote4
6
CONTINUOUS
62
7
370
0
100
AcDbLine
10
337.01498921
20
-8.835
11
393.211719522
21
-8.835
0
ENDBLK
5
8E
330
8C
100
AcDbEntity
8
0
100
AcDbBlockEnd
0
BLOCK
5
90
330
8F
100
AcDbEntity
8
0
100
AcDbBlockBegin
2
*D24
70
1
10
0
20
0
3
*D24
1

0
LINE
5
170
100
AcDbEntity
8
quote2
6
CONTINUOUS
62
7
370
0
100
AcDbLine
10
185.136002697
20
-30
11
0
21
-30
0
SOLID
5
171
100
AcDbEntity
8
quote2
6
CONTINUOUS
62
7
370
0
100
AcDbTrace
10
185.136002697
20
-30
30
0
11
182.636002697
21
-30.4162846578
31
0
12
182.636002697
22
-29.5837153422
32
0
13
182.636002697
23
-29.5837153422
33
0
0
SOLID
5
172
100
AcDbEntity
8
quote2
6
CONTINUOUS
62
7
370
0
100
AcDbTrace
10
0
20
-30
30
0
11
2.5
21
-29.5837153422
31
0
12
2.5
22
-30.4162846578
32
0
13
2.5
23
-30.4162846578
33
0
0
MTEXT
5
173
100
AcDbEntity
8
quote2
6
CONTINUOUS
62
7
370
0
100
AcDbMText
10
92.5680013487
20
-28.125
30
0
40
2.5
41
10.5555555556
71
5
72
1
1
185.136
7
standard
210
0
220
0
230
1
50
360
73
2
44
1
0
LINE
5
174
100
AcDbEntity
8
quote2
6
CONTINUOUS
62
7
370
0
100
AcDbLine
10
185.136002697
20
3.375
11
185.136002697
21
-31.25
0
LINE
5
175
100
AcDbEntity
8
quote2
6
CONTINUOUS
62
7
370
0
100
AcDbLine
10
-1.1481063742e-16
20
-0.625
11
-2.2962127484e-16
21
-31.25
0
ENDBLK
5
91
330
8F
100
AcDbEntity
8
0
100
AcDbBlockEnd
0
BLOCK
5
93
330
92
100
AcDbEntity
8
0
100
AcDbBlockBegin
2
*D35
70
1
10
0
20
0
3
*D35
1

0
LINE
5
176
100
AcDbEntity
8
quote3
6
CONTINUOUS
62
7
370
0
100
AcDbLine
10
232.213467748
20
-27.4090595427
11
1.97215226305e-31
21
-27.4090595427
0
SOLID
5
177
100
AcDbEntity
8
quote3
6
CONTINUOUS
62
7
370
0
100
AcDbTrace
10
232.213467748
20
-27.4090595427
30
0
11
229.713467748
21
-27.8253442005
31
0
12
229.713467748
22
-26.9927748849
32
0
13
229.713467748
23
-26.9927748849
33
0
0
SOLID
5
178
100
AcDbEntity
8
quote3
6
CONTINUOUS
62
7
370
0
100
AcDbTrace
10
1.97215226305e-31
20
-27.4090595427
30
0
11
2.5
21
-26.9927748849
31
0
12
2.5
22
-27.8253442005
32
0
13
2.5
23
-27.8253442005
33
0
0
MTEXT
5
179
100
AcDbEntity
8
quote3
6
CONTINUOUS
62
7
370
0
100
AcDbMText
10
116.106733874
20
-25.5340595427
30
0
40
2.5
41
13.0555555556
71
5
72
1
1
232.2135
7
standard
210
0
220
0
230
1
50
360
73
2
44
1
0
LINE
5
17A
100
AcDbEntity
8
quote3
6
CONTINUOUS
62
7
370
0
100
AcDbLine
10
232.213467748
20
-2.05742964726
11
232.213467748
21
-28.6590595427
0
LINE
5
17B
100
AcDbEntity
8
quote3
6
CONTINUOUS
62
7
370
0
100
AcDbLine
10
-1.1481063742e-16
20
-0.625
11
-2.2962127484e-16
21
-28.6590595427
0
ENDBLK
5
94
330
92
100
AcDbEntity
8
0
100
AcDbBlockEnd
0
BLOCK
5
96
330
95
100
AcDbEntity
8
0
100
AcDbBlockBegin
2
*D36
70
1
10
0
20
0
3
*D36
1

0
LINE
5
17C
100
AcDbEntity
8
quote3
6
CONTINUOUS
62
7
370
0
100
AcDbLine
10
232.213467748
20
-20
11
302.568524159
21
-20
0
SOLID
5
17D
100
AcDbEntity
8
quote3
6
CONTINUOUS
62
7
370
0
100
AcDbTrace
10
232.213467748
20
-20
30
0
11
234.713467748
21
-19.5837153422
31
0
12
234.713467748
22
-20.4162846578
32
0
13
234.713467748
23
-20.4162846578
33
0
0
SOLID
5
17E
100
AcDbEntity
8
quote3
6
CONTINUOUS
62
7
370
0
100
AcDbTrace
10
302.568524159
20
-20
30
0
11
300.068524159
21
-20.4162846578
31
0
12
300.068524159
22
-19.5837153422
32
0
13
300.068524159
23
-19.5837153422
33
0
0
MTEXT
5
17F
100
AcDbEntity
8
quote3
6
CONTINUOUS
62
7
370
0
100
AcDbMText
10
267.390995954
20
-18.125
30
0
40
2.5
41
11.1111111111
71
5
72
1
1
70.3551
7
standard
210
0
220
0
230
1
50
0
73
2
44
1
0
LINE
5
180
100
AcDbEntity
8
quote3
6
CONTINUOUS
62
7
370
0
100
AcDbLine
10
232.213467748
20
-2.05742964726
11
232.213467748
21
-21.25
0
LINE
5
181
100
AcDbEntity
8
quote3
6
CONTINUOUS
62
7
370
0
100
AcDbLine
10
302.568524159
20
-8.02757035274
11
302.568524159
21
-21.25
0
ENDBLK
5
97
330
95
100
AcDbEntity
8
0
100
AcDbBlockEnd
0
BLOCK
5
99
330
98
100
AcDbEntity
8
0
100
AcDbBlockBegin
2
*D14
70
1
10
0
20
0
3
*D14
1

0
LINE
5
182
100
AcDbEntity
8
quote2
6
CONTINUOUS
62
7
370
0
100
AcDbLine
10
-17
20
12.835
11
-17
21
4
0
SOLID
5
183
100
AcDbEntity
8
quote2
6
CONTINUOUS
62
7
370
0
100
AcDbTrace
10
-17
20
12.835
30
0
11
-16.5837153422
21
10.335
31
0
12
-17.4162846578
22
10.335
32
0
13
-17.4162846578
23
10.335
33
0
0
SOLID
5
184
100
AcDbEntity
8
quote2
6
CONTINUOUS
62
7
370
0
100
AcDbTrace
10
-17
20
4
30
0
11
-17.4162846578
21
6.5
31
0
12
-16.5837153422
22
6.5
32
0
13
-16.5837153422
23
6.5
33
0
0
MTEXT
5
185
100
AcDbEntity
8
quote2
6
CONTINUOUS
62
7
370
0
100
AcDbMText
10
-18.875
20
8.4175
30
0
40
2.5
41
7.77777777778
71
5
72
1
1
8.835
7
standard
210
0
220
0
230
1
50
90
73
2
44
1
0
LINE
5
186
100
AcDbEntity
8
quote2
6
CONTINUOUS
62
7
370
0
100
AcDbLine
10
46.513
20
12.835
11
-18.25
21
12.835
0
LINE
5
187
100
AcDbEntity
8
quote2
6
CONTINUOUS
62
7
370
0
100
AcDbLine
10
46.5130027804
20
4
11
-18.25
21
4
0
ENDBLK
5
9A
330
98
100
AcDbEntity
8
0
100
AcDbBlockEnd
0
BLOCK
5
9C
330
9B
100
AcDbEntity
8
0
100
AcDbBlockBegin
2
*D23
70
1
10
0
20
0
3
*D23
1

0
LINE
5
188
100
AcDbEntity
8
quote2
6
CONTINUOUS
62
7
370
0
100
AcDbLine
10
151.314529653
20
-20
11
-7.34788079488e-14
21
-20
0
SOLID
5
189
100
AcDbEntity
8
quote2
6
CONTINUOUS
62
7
370
0
100
AcDbTrace
10
151.314529653
20
-20
30
0
11
148.814529653
21
-20.4162846578
31
0
12
148.814529653
22
-19.5837153422
32
0
13
148.814529653
23
-19.5837153422
33
0
0
SOLID
5
18A
100
AcDbEntity
8
quote2
6
CONTINUOUS
62
7
370
0
100
AcDbTrace
10
-7.34788079488e-14
20
-20
30
0
11
2.5
21
-19.5837153422
31
0
12
2.5
22
-20.4162846578
32
0
13
2.5
23
-20.4162846578
33
0
0
MTEXT
5
18B
100
AcDbEntity
8
quote2
6
CONTINUOUS
62
7
370
0
100
AcDbMText
10
75.6572648267
20
-18.125
30
0
40
2.5
41
12.2222222222
71
5
72
1
1
151.3145
7
standard
210
0
220
0
230
1
50
360
73
2
44
1
0
LINE
5
18C
100
AcDbEntity
8
quote2
6
CONTINUOUS
62
7
370
0
100
AcDbLine
10
151.314529653
20
4.80742963885
11
151.314529653
21
-21.25
0
LINE
5
18D
100
AcDbEntity
8
quote2
6
CONTINUOUS
62
7
370
0
100
AcDbLine
10
-7.35936185862e-14
20
-0.625
11
-7.37084292236e-14
21
-21.25
0
ENDBLK
5
9D
330
9B
100
AcDbEntity
8
0
100
AcDbBlockEnd
0
BLOCK
5
9F
330
9E
100
AcDbEntity
8
0
100
AcDbBlockBegin
2
*D7
70
1
10
0
20
0
3
*D7
1

0
LINE
5
18E
100
AcDbEntity
8
quote1
6
CONTINUOUS
62
7
370
0
100
AcDbLine
10
-2
20
9
11
-2
21
-2.43242964726
0
SOLID
5
18F
100
AcDbEntity
8
quote1
6
CONTINUOUS
62
7
370
0
100
AcDbTrace
10
-2
20
4
30
0
11
-2.41628465777
21
6.5
31
0
12
-1.58371534223
22
6.5
32
0
13
-1.58371534223
23
6.5
33
0
0
SOLID
5
190
100
AcDbEntity
8
quote1
6
CONTINUOUS
62
7
370
0
100
AcDbTrace
10
-2
20
2.56757035274
30
0
11
-1.58371534223
21
0.06757035274
31
0
12
-2.41628465777
22
0.06757035274
32
0
13
-2.41628465777
23
0.06757035274
33
0
0
MTEXT
5
191
100
AcDbEntity
8
quote1
6
CONTINUOUS
62
7
370
0
100
AcDbMText
10
-3.875
20
9.48611111111
30
0
40
2.5
41
9.72222222222
71
5
72
1
1
1.4324
7
standard
210
0
220
0
230
1
50
90
73
2
44
1
0
LINE
5
192
100
AcDbEntity
8
quote1
6
CONTINUOUS
62
7
370
0
100
AcDbLine
10
80.395
20
4
11
-3.25
21
4
0
LINE
5
193
100
AcDbEntity
8
quote1
6
CONTINUOUS
62
7
370
0
100
AcDbLine
10
46.5735295542
20
2.56757035274
11
-3.25
21
2.56757035274
0
ENDBLK
5
A0
330
9E
100
AcDbEntity
8
0
100
AcDbBlockEnd
0
BLOCK
5
A2
330
A1
100
AcDbEntity
8
0
100
AcDbBlockBegin
2
*D28
70
1
10
0
20
0
3
*D28
1

0
LINE
5
194
100
AcDbEntity
8
quote1
6
CONTINUOUS
62
7
370
0
100
AcDbLine
10
185.075470446
20
-41
11
0
21
-41
0
SOLID
5
195
100
AcDbEntity
8
quote1
6
CONTINUOUS
62
7
370
0
100
AcDbTrace
10
185.075470446
20
-41
30
0
11
182.575470446
21
-41.4162846578
31
0
12
182.575470446
22
-40.5837153422
32
0
13
182.575470446
23
-40.5837153422
33
0
0
SOLID
5
196
100
AcDbEntity
8
quote1
6
CONTINUOUS
62
7
370
0
100
AcDbTrace
10
0
20
-41
30
0
11
2.5
21
-40.5837153422
31
0
12
2.5
22
-41.4162846578
32
0
13
2.5
23
-41.4162846578
33
0
0
MTEXT
5
197
100
AcDbEntity
8
quote1
6
CONTINUOUS
62
7
370
0
100
AcDbMText
10
92.5377352229
20
-39.125
30
0
40
2.5
41
13.0555555556
71
5
72
1
1
185.0755
7
standard
210
0
220
0
230
1
50
360
73
2
44
1
0
LINE
5
198
100
AcDbEntity
8
quote1
6
CONTINUOUS
62
7
370
0
100
AcDbLine
10
185.075470446
20
1.94257035274
11
185.075470446
21
-42.25
0
LINE
5
199
100
AcDbEntity
8
quote1
6
CONTINUOUS
62
7
370
0
100
AcDbLine
10
-1.1481063742e-16
20
-0.625
11
-2.2962127484e-16
21
-42.25
0
ENDBLK
5
A3
330
A1
100
AcDbEntity
8
0
100
AcDbBlockEnd
0
BLOCK
5
A5
330
A4
100
AcDbEntity
8
0
100
AcDbBlockBegin
2
*D15
70
1
10
0
20
0
3
*D15
1

0
LINE
5
19A
100
AcDbEntity
8
quote12
6
CONTINUOUS
62
7
370
0
100
AcDbLine
10
47.138
20
-5
11
0
21
-5
0
SOLID
5
19B
100
AcDbEntity
8
quote12
6
CONTINUOUS
62
7
370
0
100
AcDbTrace
10
47.138
20
-5
30
0
11
44.638
21
-5.41628465777
31
0
12
44.638
22
-4.58371534223
32
0
13
44.638
23
-4.58371534223
33
0
0
SOLID
5
19C
100
AcDbEntity
8
quote12
6
CONTINUOUS
62
7
370
0
100
AcDbTrace
10
0
20
-5
30
0
11
2.5
21
-4.58371534223
31
0
12
2.5
22
-5.41628465777
32
0
13
2.5
23
-5.41628465777
33
0
0
MTEXT
5
19D
100
AcDbEntity
8
quote12
6
CONTINUOUS
62
7
370
0
100
AcDbMText
10
23.569
20
-3.125
30
0
40
2.5
41
9.44444444444
71
5
72
1
1
47.138
7
standard
210
0
220
0
230
1
50
360
73
2
44
1
0
LINE
5
19E
100
AcDbEntity
8
quote12
6
CONTINUOUS
62
7
370
0
100
AcDbLine
10
47.138
20
3.375
11
47.138
21
-6.25
0
LINE
5
19F
100
AcDbEntity
8
quote12
6
CONTINUOUS
62
7
370
0
100
AcDbLine
10
-1.1481063742e-16
20
3.375
11
-2.2962127484e-16
21
-6.25
0
ENDBLK
5
A6
330
A4
100
AcDbEntity
8
0
100
AcDbBlockEnd
0
BLOCK
5
A8
330
A7
100
AcDbEntity
8
0
100
AcDbBlockBegin
2
*D41
70
1
10
0
20
0
3
*D41
1

0
LINE
5
1A0
100
AcDbEntity
8
quote4
6
CONTINUOUS
62
7
370
0
100
AcDbLine
10
302.568524159
20
-20.4406545742
11
1.97215226305e-31
21
-20.4406545742
0
SOLID
5
1A1
100
AcDbEntity
8
quote4
6
CONTINUOUS
62
7
370
0
100
AcDbTrace
10
302.568524159
20
-20.4406545742
30
0
11
300.068524159
21
-20.856939232
31
0
12
300.068524159
22
-20.0243699164
32
0
13
300.068524159
23
-20.0243699164
33
0
0
SOLID
5
1A2
100
AcDbEntity
8
quote4
6
CONTINUOUS
62
7
370
0
100
AcDbTrace
10
1.97215226305e-31
20
-20.4406545742
30
0
11
2.5
21
-20.0243699164
31
0
12
2.5
22
-20.856939232
32
0
13
2.5
23
-20.856939232
33
0
0
MTEXT
5
1A3
100
AcDbEntity
8
quote4
6
CONTINUOUS
62
7
370
0
100
AcDbMText
10
151.28426208
20
-18.5656545742
30
0
40
2.5
41
13.6111111111
71
5
72
1
1
302.5685
7
standard
210
0
220
0
230
1
50
360
73
2
44
1
0
LINE
5
1A4
100
AcDbEntity
8
quote4
6
CONTINUOUS
62
7
370
0
100
AcDbLine
10
302.568524159
20
-8.02757035274
11
302.568524159
21
-21.6906545742
0
LINE
5
1A5
100
AcDbEntity
8
quote4
6
CONTINUOUS
62
7
370
0
100
AcDbLine
10
2.66074692414e-15
20
-0.625
11
5.32149384829e-15
21
-21.6906545742
0
ENDBLK
5
A9
330
A7
100
AcDbEntity
8
0
100
AcDbBlockEnd
0
BLOCK
5
AB
330
AA
100
AcDbEntity
8
0
100
AcDbBlockBegin
2
*D32
70
1
10
0
20
0
3
*D32
1

0
LINE
5
1A6
100
AcDbEntity
8
quote1
6
CONTINUOUS
62
7
370
0
100
AcDbLine
10
232.274
20
-52.0307570979
11
0
21
-52.0307570979
0
SOLID
5
1A7
100
AcDbEntity
8
quote1
6
CONTINUOUS
62
7
370
0
100
AcDbTrace
10
232.274
20
-52.0307570979
30
0
11
229.774
21
-52.4470417557
31
0
12
229.774
22
-51.6144724401
32
0
13
229.774
23
-51.6144724401
33
0
0
SOLID
5
1A8
100
AcDbEntity
8
quote1
6
CONTINUOUS
62
7
370
0
100
AcDbTrace
10
0
20
-52.0307570979
30
0
11
2.5
21
-51.6144724401
31
0
12
2.5
22
-52.4470417557
32
0
13
2.5
23
-52.4470417557
33
0
0
MTEXT
5
1A9
100
AcDbEntity
8
quote1
6
CONTINUOUS
62
7
370
0
100
AcDbMText
10
116.137
20
-50.1557570979
30
0
40
2.5
41
11.9444444444
71
5
72
1
1
232.274
7
standard
210
0
220
0
230
1
50
360
73
2
44
1
0
LINE
5
1AA
100
AcDbEntity
8
quote1
6
CONTINUOUS
62
7
370
0
100
AcDbLine
10
232.274
20
-0.625
11
232.274
21
-53.2807570979
0
LINE
5
1AB
100
AcDbEntity
8
quote1
6
CONTINUOUS
62
7
370
0
100
AcDbLine
10
-1.1481063742e-16
20
-0.625
11
-2.2962127484e-16
21
-53.2807570979
0
ENDBLK
5
AC
330
AA
100
AcDbEntity
8
0
100
AcDbBlockEnd
0
BLOCK
5
AE
330
AD
100
AcDbEntity
8
0
100
AcDbBlockBegin
2
*D13
70
1
10
0
20
0
3
*D13
1

0
LINE
5
1AC
100
AcDbEntity
8
quote2
6
CONTINUOUS
62
7
370
0
100
AcDbLine
10
-12
20
10.4324296473
11
-12
21
-1
0
SOLID
5
1AD
100
AcDbEntity
8
quote2
6
CONTINUOUS
62
7
370
0
100
AcDbTrace
10
-12
20
5.43242964726
30
0
11
-12.4162846578
21
7.93242964726
31
0
12
-11.5837153422
22
7.93242964726
32
0
13
-11.5837153422
23
7.93242964726
33
0
0
SOLID
5
1AE
100
AcDbEntity
8
quote2
6
CONTINUOUS
62
7
370
0
100
AcDbTrace
10
-12
20
4
30
0
11
-11.5837153422
21
1.5
31
0
12
-12.4162846578
22
1.5
32
0
13
-12.4162846578
23
1.5
33
0
0
MTEXT
5
1AF
100
AcDbEntity
8
quote2
6
CONTINUOUS
62
7
370
0
100
AcDbMText
10
-13.875
20
10.9185407584
30
0
40
2.5
41
9.72222222222
71
5
72
1
1
1.4324
7
standard
210
0
220
0
230
1
50
90
73
2
44
1
0
LINE
5
1B0
100
AcDbEntity
8
quote2
6
CONTINUOUS
62
7
370
0
100
AcDbLine
10
80.3344704458
20
5.43242964726
11
-13.25
21
5.43242964726
0
LINE
5
1B1
100
AcDbEntity
8
quote2
6
CONTINUOUS
62
7
370
0
100
AcDbLine
10
46.5130027804
20
4
11
-13.25
21
4
0
ENDBLK
5
AF
330
AD
100
AcDbEntity
8
0
100
AcDbBlockEnd
0
BLOCK
5
B1
330
B0
100
AcDbEntity
8
0
100
AcDbBlockBegin
2
*D21
70
1
10
0
20
0
3
*D21
1

0
LINE
5
1B2
100
AcDbEntity
8
quote2
6
CONTINUOUS
62
7
370
0
100
AcDbLine
10
80.9594704423
20
20
11
151.314529554
21
20
0
SOLID
5
1B3
100
AcDbEntity
8
quote2
6
CONTINUOUS
62
7
370
0
100
AcDbTrace
10
80.9594704423
20
20
30
0
11
83.4594704423
21
20.4162846578
31
0
12
83.4594704423
22
19.5837153422
32
0
13
83.4594704423
23
19.5837153422
33
0
0
SOLID
5
1B4
100
AcDbEntity
8
quote2
6
CONTINUOUS
62
7
370
0
100
AcDbTrace
10
151.314529554
20
20
30
0
11
148.814529554
21
19.5837153422
31
0
12
148.814529554
22
20.4162846578
32
0
13
148.814529554
23
20.4162846578
33
0
0
MTEXT
5
1B5
100
AcDbEntity
8
quote2
6
CONTINUOUS
62
7
370
0
100
AcDbMText
10
116.136999998
20
21.875
30
0
40
2.5
41
11.1111111111
71
5
72
1
1
70.3551
7
standard
210
0
220
0
230
1
50
0
73
2
44
1
0
LINE
5
1B6
100
AcDbEntity
8
quote2
6
CONTINUOUS
62
7
370
0
100
AcDbLine
10
80.9594704423
20
12.027570353
11
80.9594704423
21
21.25
0
LINE
5
1B7
100
AcDbEntity
8
quote2
6
CONTINUOUS
62
7
370
0
100
AcDbLine
10
151.314529554
20
12.0275703527
11
151.314529554
21
21.25
0
ENDBLK
5
B2
330
B0
100
AcDbEntity
8
0
100
AcDbBlockEnd
0
BLOCK
5
B4
330
B3
100
AcDbEntity
8
0
100
AcDbBlockBegin
2
*D19
70
1
10
0
20
0
3
*D19
1

0
LINE
5
1B8
100
AcDbEntity
8
quote2
6
CONTINUOUS
62
7
370
0
100
AcDbLine
10
80.9594704458
20
-10
11
-9.86076131526e-32
21
-10
0
SOLID
5
1B9
100
AcDbEntity
8
quote2
6
CONTINUOUS
62
7
370
0
100
AcDbTrace
10
80.9594704458
20
-10
30
0
11
78.4594704458
21
-10.4162846578
31
0
12
78.4594704458
22
-9.58371534223
32
0
13
78.4594704458
23
-9.58371534223
33
0
0
SOLID
5
1BA
100
AcDbEntity
8
quote2
6
CONTINUOUS
62
7
370
0
100
AcDbTrace
10
-9.86076131526e-32
20
-10
30
0
11
2.5
21
-9.58371534223
31
0
12
2.5
22
-10.4162846578
32
0
13
2.5
23
-10.4162846578
33
0
0
MTEXT
5
1BB
100
AcDbEntity
8
quote2
6
CONTINUOUS
62
7
370
0
100
AcDbMText
10
40.4797352229
20
-8.125
30
0
40
2.5
41
11.6666666667
71
5
72
1
1
80.9595
7
standard
210
0
220
0
230
1
50
360
73
2
44
1
0
LINE
5
1BC
100
AcDbEntity
8
quote2
6
CONTINUOUS
62
7
370
0
100
AcDbLine
10
80.9594704458
20
4.80742964726
11
80.9594704458
21
-11.25
0
LINE
5
1BD
100
AcDbEntity
8
quote2
6
CONTINUOUS
62
7
370
0
100
AcDbLine
10
4.40300874893e-16
20
3.375
11
8.80601749785e-16
21
-11.25
0
ENDBLK
5
B5
330
B3
100
AcDbEntity
8
0
100
AcDbBlockEnd
0
BLOCK
5
B7
330
B6
100
AcDbEntity
8
0
100
AcDbBlockBegin
2
*D10
70
1
10
0
20
0
3
*D10
1

0
LINE
5
1BE
100
AcDbEntity
8
quote1
6
CONTINUOUS
62
7
370
0
100
AcDbLine
10
-17
20
9
11
-17
21
-5
0
SOLID
5
1BF
100
AcDbEntity
8
quote1
6
CONTINUOUS
62
7
370
0
100
AcDbTrace
10
-17
20
4
30
0
11
-17.4162846578
21
6.5
31
0
12
-16.5837153422
22
6.5
32
0
13
-16.5837153422
23
6.5
33
0
0
SOLID
5
1C0
100
AcDbEntity
8
quote1
6
CONTINUOUS
62
7
370
0
100
AcDbTrace
10
-17
20
1.20792265079e-15
30
0
11
-16.5837153422
21
-2.5
31
0
12
-17.4162846578
22
-2.5
32
0
13
-17.4162846578
23
-2.5
33
0
0
MTEXT
5
1C1
100
AcDbEntity
8
quote1
6
CONTINUOUS
62
7
370
0
100
AcDbMText
10
-18.875
20
2
30
0
40
2.5
41
1.38888888889
71
5
72
1
1
4
7
standard
210
0
220
0
230
1
50
90
73
2
44
1
0
LINE
5
1C2
100
AcDbEntity
8
quote1
6
CONTINUOUS
62
7
370
0
100
AcDbLine
10
80.394996837
20
4
11
-18.25
21
4
0
LINE
5
1C3
100
AcDbEntity
8
quote1
6
CONTINUOUS
62
7
370
0
100
AcDbLine
10
-0.625
20
7.65404249467e-17
11
-18.25
21
1.36100350069e-15
0
ENDBLK
5
B8
330
B6
100
AcDbEntity
8
0
100
AcDbBlockEnd
0
BLOCK
5
BA
330
B9
100
AcDbEntity
8
0
100
AcDbBlockBegin
2
*D2
70
1
10
0
20
0
3
*D2
1

0
LINE
5
1C4
100
AcDbEntity
8
quote1
6
CONTINUOUS
62
7
370
0
100
AcDbLine
10
47.1985295542
20
-12
11
33.8214704458
21
-12
0
SOLID
5
1C5
100
AcDbEntity
8
quote1
6
CONTINUOUS
62
7
370
0
100
AcDbTrace
10
47.1985295542
20
-12
30
0
11
44.6985295542
21
-12.4162846578
31
0
12
44.6985295542
22
-11.5837153422
32
0
13
44.6985295542
23
-11.5837153422
33
0
0
SOLID
5
1C6
100
AcDbEntity
8
quote1
6
CONTINUOUS
62
7
370
0
100
AcDbTrace
10
33.8214704458
20
-12
30
0
11
36.3214704458
21
-11.5837153422
31
0
12
36.3214704458
22
-12.4162846578
32
0
13
36.3214704458
23
-12.4162846578
33
0
0
MTEXT
5
1C7
100
AcDbEntity
8
quote1
6
CONTINUOUS
62
7
370
0
100
AcDbMText
10
40.51
20
-10.125
30
0
40
2.5
41
10.5555555556
71
5
72
1
1
13.3771
7
standard
210
0
220
0
230
1
50
360
73
2
44
1
0
LINE
5
1C8
100
AcDbEntity
8
quote1
6
CONTINUOUS
62
7
370
0
100
AcDbLine
10
47.1985295542
20
1.94257035274
11
47.1985295542
21
-13.25
0
LINE
5
1C9
100
AcDbEntity
8
quote1
6
CONTINUOUS
62
7
370
0
100
AcDbLine
10
33.8214704458
20
0.80742964726
11
33.8214704458
21
-13.25
0
ENDBLK
5
BB
330
B9
100
AcDbEntity
8
0
100
AcDbBlockEnd
0
BLOCK
5
BD
330
BC
100
AcDbEntity
8
0
100
AcDbBlockBegin
2
*D30
70
1
10
0
20
0
3
*D30
1

0
LINE
5
1CA
100
AcDbEntity
8
quote1
6
CONTINUOUS
62
7
370
0
100
AcDbLine
10
198.452529554
20
-12
11
232.274
21
-12
0
SOLID
5
1CB
100
AcDbEntity
8
quote1
6
CONTINUOUS
62
7
370
0
100
AcDbTrace
10
198.452529554
20
-12
30
0
11
200.952529554
21
-11.5837153422
31
0
12
200.952529554
22
-12.4162846578
32
0
13
200.952529554
23
-12.4162846578
33
0
0
SOLID
5
1CC
100
AcDbEntity
8
quote1
6
CONTINUOUS
62
7
370
0
100
AcDbTrace
10
232.274
20
-12
30
0
11
229.774
21
-12.4162846578
31
0
12
229.774
22
-11.5837153422
32
0
13
229.774
23
-11.5837153422
33
0
0
MTEXT
5
1CD
100
AcDbEntity
8
quote1
6
CONTINUOUS
62
7
370
0
100
AcDbMText
10
215.363264777
20
-10.125
30
0
40
2.5
41
11.1111111111
71
5
72
1
1
33.8215
7
standard
210
0
220
0
230
1
50
0
73
2
44
1
0
LINE
5
1CE
100
AcDbEntity
8
quote1
6
CONTINUOUS
62
7
370
0
100
AcDbLine
10
198.452529554
20
0.80742964726
11
198.452529554
21
-13.25
0
LINE
5
1CF
100
AcDbEntity
8
quote1
6
CONTINUOUS
62
7
370
0
100
AcDbLine
10
232.274
20
-0.625
11
232.274
21
-13.25
0
ENDBLK
5
BE
330
BC
100
AcDbEntity
8
0
100
AcDbBlockEnd
0
BLOCK
5
C0
330
BF
100
AcDbEntity
8
0
100
AcDbBlockBegin
2
*D40
70
1
10
0
20
0
3
*D40
1

0
LINE
5
1D0
100
AcDbEntity
8
quote3
6
CONTINUOUS
62
7
370
0
100
AcDbLine
10
232.266313642
20
-0.809667805513
11
232.814852648
21
5.65458398028
0
LINE
5
1D1
100
AcDbEntity
8
quote3
6
CONTINUOUS
62
7
370
0
100
AcDbLine
10
302.621370053
20
-6.77980851099
11
303.169909059
21
-0.315556725198
0
LINE
5
1D2
100
AcDbEntity
8
quote3
6
CONTINUOUS
62
7
370
0
100
AcDbLine
10
232.709160861
20
4.40906029679
11
303.064217272
21
-1.56108040869
0
SOLID
5
1D3
100
AcDbEntity
8
quote3
6
CONTINUOUS
62
7
370
0
100
AcDbTrace
10
232.709160861
20
4.40906029679
30
0
11
235.235406523
21
4.61247064289
31
0
12
235.165009932
22
3.78288280236
32
0
13
235.165009932
23
3.78288280236
33
0
0
SOLID
5
1D4
100
AcDbEntity
8
quote3
6
CONTINUOUS
62
7
370
0
100
AcDbTrace
10
303.064217272
20
-1.56108040869
30
0
11
300.537971609
21
-1.76449075479
31
0
12
300.6083682
22
-0.934902914259
32
0
13
300.6083682
23
-0.934902914259
33
0
0
MTEXT
5
1D5
100
AcDbEntity
8
quote3
6
CONTINUOUS
62
7
370
0
100
AcDbMText
10
268.045226747
20
3.29227546925
30
0
40
2.5
41
11.6666666667
71
5
72
1
1
70.6079
7
standard
210
0
220
0
230
1
50
355.149654171
73
2
44
1
0
ENDBLK
5
C1
330
BF
100
AcDbEntity
8
0
100
AcDbBlockEnd
0
BLOCK
5
C3
330
C2
100
AcDbEntity
8
0
100
AcDbBlockBegin
2
*D6
70
1
10
0
20
0
3
*D6
1

0
LINE
5
1D6
100
AcDbEntity
8
quote1
6
CONTINUOUS
62
7
370
0
100
AcDbLine
10
81.020003163
20
-30
11
-7.34788079488e-14
21
-30
0
SOLID
5
1D7
100
AcDbEntity
8
quote1
6
CONTINUOUS
62
7
370
0
100
AcDbTrace
10
81.020003163
20
-30
30
0
11
78.520003163
21
-30.4162846578
31
0
12
78.520003163
22
-29.5837153422
32
0
13
78.520003163
23
-29.5837153422
33
0
0
SOLID
5
1D8
100
AcDbEntity
8
quote1
6
CONTINUOUS
62
7
370
0
100
AcDbTrace
10
-7.34788079488e-14
20
-30
30
0
11
2.5
21
-29.5837153422
31
0
12
2.5
22
-30.4162846578
32
0
13
2.5
23
-30.4162846578
33
0
0
MTEXT
5
1D9
100
AcDbEntity
8
quote1
6
CONTINUOUS
62
7
370
0
100
AcDbMText
10
40.5100015815
20
-28.125
30
0
40
2.5
41
7.22222222222
71
5
72
1
1
81.02
7
standard
210
0
220
0
230
1
50
360
73
2
44
1
0
LINE
5
1DA
100
AcDbEntity
8
quote1
6
CONTINUOUS
62
7
370
0
100
AcDbLine
10
81.020003163
20
3.375
11
81.020003163
21
-31.25
0
LINE
5
1DB
100
AcDbEntity
8
quote1
6
CONTINUOUS
62
7
370
0
100
AcDbLine
10
-7.35936185862e-14
20
-0.625
11
-7.37084292236e-14
21
-31.25
0
ENDBLK
5
C4
330
C2
100
AcDbEntity
8
0
100
AcDbBlockEnd
0
BLOCK
5
C6
330
C5
100
AcDbEntity
8
0
100
AcDbBlockBegin
2
*D5
70
1
10
0
20
0
3
*D5
1

0
LINE
5
1DC
100
AcDbEntity
8
quote1
6
CONTINUOUS
62
7
370
0
100
AcDbLine
10
0
20
-20
11
47.1985295542
21
-20
0
SOLID
5
1DD
100
AcDbEntity
8
quote1
6
CONTINUOUS
62
7
370
0
100
AcDbTrace
10
0
20
-20
30
0
11
2.5
21
-19.5837153422
31
0
12
2.5
22
-20.4162846578
32
0
13
2.5
23
-20.4162846578
33
0
0
SOLID
5
1DE
100
AcDbEntity
8
quote1
6
CONTINUOUS
62
7
370
0
100
AcDbTrace
10
47.1985295542
20
-20
30
0
11
44.6985295542
21
-20.4162846578
31
0
12
44.6985295542
22
-19.5837153422
32
0
13
44.6985295542
23
-19.5837153422
33
0
0
MTEXT
5
1DF
100
AcDbEntity
8
quote1
6
CONTINUOUS
62
7
370
0
100
AcDbMText
10
23.5992647771
20
-18.125
30
0
40
2.5
41
11.3888888889
71
5
72
1
1
47.1985
7
standard
210
0
220
0
230
1
50
0
73
2
44
1
0
LINE
5
1E0
100
AcDbEntity
8
quote1
6
CONTINUOUS
62
7
370
0
100
AcDbLine
10
-1.1481063742e-16
20
-0.625
11
-2.2962127484e-16
21
-21.25
0
LINE
5
1E1
100
AcDbEntity
8
quote1
6
CONTINUOUS
62
7
370
0
100
AcDbLine
10
47.1985295542
20
1.94257035274
11
47.1985295542
21
-21.25
0
ENDBLK
5
C7
330
C5
100
AcDbEntity
8
0
100
AcDbBlockEnd
0
BLOCK
5
C9
330
C8
100
AcDbEntity
8
0
100
AcDbBlockBegin
2
*D3
70
1
10
0
20
0
3
*D3
1

0
LINE
5
1E2
100
AcDbEntity
8
quote1
6
CONTINUOUS
62
7
370
0
100
AcDbLine
10
47.1985295542
20
-12
11
81.02
21
-12
0
SOLID
5
1E3
100
AcDbEntity
8
quote1
6
CONTINUOUS
62
7
370
0
100
AcDbTrace
10
47.1985295542
20
-12
30
0
11
49.6985295542
21
-11.5837153422
31
0
12
49.6985295542
22
-12.4162846578
32
0
13
49.6985295542
23
-12.4162846578
33
0
0
SOLID
5
1E4
100
AcDbEntity
8
quote1
6
CONTINUOUS
62
7
370
0
100
AcDbTrace
10
81.02
20
-12
30
0
11
78.52
21
-12.4162846578
31
0
12
78.52
22
-11.5837153422
32
0
13
78.52
23
-11.5837153422
33
0
0
MTEXT
5
1E5
100
AcDbEntity
8
quote1
6
CONTINUOUS
62
7
370
0
100
AcDbMText
10
64.1092647771
20
-10.125
30
0
40
2.5
41
11.1111111111
71
5
72
1
1
33.8215
7
standard
210
0
220
0
230
1
50
0
73
2
44
1
0
LINE
5
1E6
100
AcDbEntity
8
quote1
6
CONTINUOUS
62
7
370
0
100
AcDbLine
10
47.1985295542
20
1.94257035274
11
47.1985295542
21
-13.25
0
LINE
5
1E7
100
AcDbEntity
8
quote1
6
CONTINUOUS
62
7
370
0
100
AcDbLine
10
81.02
20
3.375
11
81.02
21
-13.25
0
ENDBLK
5
CA
330
C8
100
AcDbEntity
8
0
100
AcDbBlockEnd
0
BLOCK
5
CC
330
CB
100
AcDbEntity
8
0
100
AcDbBlockBegin
2
*D53
70
1
10
0
20
0
3
*D53
1

0
LINE
5
1E8
100
AcDbEntity
8
quote2
6
CONTINUOUS
62
7
370
0
100
AcDbLine
10
80.9066245543
20
6.05519148918
11
78.8047979222
21
30.8241448908
0
LINE
5
1E9
100
AcDbEntity
8
quote2
6
CONTINUOUS
62
7
370
0
100
AcDbLine
10
116.084154108
20
9.04026184192
11
113.982327476
21
33.8092152436
0
LINE
5
1EA
100
AcDbEntity
8
quote2
6
CONTINUOUS
62
7
370
0
100
AcDbLine
10
78.9104897053
20
29.578621207
11
114.088019259
21
32.5636915597
0
SOLID
5
1EB
100
AcDbEntity
8
quote2
6
CONTINUOUS
62
7
370
0
100
AcDbTrace
10
78.9104897053
20
29.578621207
30
0
11
81.3663387787
21
30.2047986935
31
0
12
81.4367353671
22
29.3752108527
32
0
13
81.4367353671
23
29.3752108527
33
0
0
SOLID
5
1EC
100
AcDbEntity
8
quote2
6
CONTINUOUS
62
7
370
0
100
AcDbTrace
10
114.088019259
20
32.5636915597
30
0
11
111.632170186
21
31.9375140732
31
0
12
111.561773598
22
32.767101914
32
0
13
111.561773598
23
32.767101914
33
0
0
MTEXT
5
1ED
100
AcDbEntity
8
quote2
6
CONTINUOUS
62
7
370
0
100
AcDbMText
10
96.3407168078
20
32.9394419091
30
0
40
2.5
41
10
71
5
72
1
1
35.304
7
standard
210
0
220
0
230
1
50
4.85034564378
73
2
44
1
0
ENDBLK
5
CD
330
CB
100
AcDbEntity
8
0
100
AcDbBlockEnd
0
BLOCK
5
CF
330
CE
100
AcDbEntity
8
0
100
AcDbBlockBegin
2
*D12
70
1
10
0
20
0
3
*D12
1

0
LINE
5
1EE
100
AcDbEntity
8
quote2
6
CONTINUOUS
62
7
370
0
100
AcDbLine
10
-7
20
16.4025703527
11
-7
21
0.43242964726
0
SOLID
5
1EF
100
AcDbEntity
8
quote2
6
CONTINUOUS
62
7
370
0
100
AcDbTrace
10
-7
20
11.4025703527
30
0
11
-7.41628465777
21
13.9025703527
31
0
12
-6.58371534223
22
13.9025703527
32
0
13
-6.58371534223
23
13.9025703527
33
0
0
SOLID
5
1F0
100
AcDbEntity
8
quote2
6
CONTINUOUS
62
7
370
0
100
AcDbTrace
10
-7
20
5.43242964726
30
0
11
-6.58371534223
21
2.93242964726
31
0
12
-7.41628465777
22
2.93242964726
32
0
13
-7.41628465777
23
2.93242964726
33
0
0
MTEXT
5
1F1
100
AcDbEntity
8
quote2
6
CONTINUOUS
62
7
370
0
100
AcDbMText
10
-8.875
20
16.6109036861
30
0
40
2.5
41
9.16666666667
71
5
72
1
1
5.9701
7
standard
210
0
220
0
230
1
50
90
73
2
44
1
0
LINE
5
1F2
100
AcDbEntity
8
quote2
6
CONTINUOUS
62
7
370
0
100
AcDbLine
10
80.3344704458
20
11.4025703527
11
-8.25
21
11.4025703527
0
LINE
5
1F3
100
AcDbEntity
8
quote2
6
CONTINUOUS
62
7
370
0
100
AcDbLine
10
80.3344704458
20
5.43242964726
11
-8.25
21
5.43242964726
0
ENDBLK
5
D0
330
CE
100
AcDbEntity
8
0
100
AcDbBlockEnd
0
BLOCK
5
D2
330
D1
100
AcDbEntity
8
0
100
AcDbBlockBegin
2
*D8
70
1
10
0
20
0
3
*D8
1

0
LINE
5
1F4
100
AcDbEntity
8
quote1
6
CONTINUOUS
62
7
370
0
100
AcDbLine
10
-7
20
7.56757035274
11
-7
21
-3.56757035274
0
SOLID
5
1F5
100
AcDbEntity
8
quote1
6
CONTINUOUS
62
7
370
0
100
AcDbTrace
10
-7
20
2.56757035274
30
0
11
-7.41628465777
21
5.06757035274
31
0
12
-6.58371534223
22
5.06757035274
32
0
13
-6.58371534223
23
5.06757035274
33
0
0
SOLID
5
1F6
100
AcDbEntity
8
quote1
6
CONTINUOUS
62
7
370
0
100
AcDbTrace
10
-7
20
1.43242964726
30
0
11
-6.58371534223
21
-1.06757035274
31
0
12
-7.41628465777
22
-1.06757035274
32
0
13
-7.41628465777
23
-1.06757035274
33
0
0
MTEXT
5
1F7
100
AcDbEntity
8
quote1
6
CONTINUOUS
62
7
370
0
100
AcDbMText
10
-8.875
20
7.22034813052
30
0
40
2.5
41
8.05555555556
71
5
72
1
1
1.1351
7
standard
210
0
220
0
230
1
50
90
73
2
44
1
0
LINE
5
1F8
100
AcDbEntity
8
quote1
6
CONTINUOUS
62
7
370
0
100
AcDbLine
10
46.5735295542
20
2.56757035274
11
-8.25
21
2.56757035274
0
LINE
5
1F9
100
AcDbEntity
8
quote1
6
CONTINUOUS
62
7
370
0
100
AcDbLine
10
33.1964704458
20
1.43242964726
11
-8.25
21
1.43242964726
0
ENDBLK
5
D3
330
D1
100
AcDbEntity
8
0
100
AcDbBlockEnd
0
BLOCK
5
D5
330
D4
100
AcDbEntity
8
0
100
AcDbBlockBegin
2
*D18
70
1
10
0
20
0
3
*D18
1

0
LINE
5
1FA
100
AcDbEntity
8
quote2
6
CONTINUOUS
62
7
370
0
100
AcDbLine
10
47.1380027804
20
-5
11
80.9594704458
21
-5
0
SOLID
5
1FB
100
AcDbEntity
8
quote2
6
CONTINUOUS
62
7
370
0
100
AcDbTrace
10
47.1380027804
20
-5
30
0
11
49.6380027804
21
-4.58371534223
31
0
12
49.6380027804
22
-5.41628465777
32
0
13
49.6380027804
23
-5.41628465777
33
0
0
SOLID
5
1FC
100
AcDbEntity
8
quote2
6
CONTINUOUS
62
7
370
0
100
AcDbTrace
10
80.9594704458
20
-5
30
0
11
78.4594704458
21
-5.41628465777
31
0
12
78.4594704458
22
-4.58371534223
32
0
13
78.4594704458
23
-4.58371534223
33
0
0
MTEXT
5
1FD
100
AcDbEntity
8
quote2
6
CONTINUOUS
62
7
370
0
100
AcDbMText
10
64.0487366131
20
-3.125
30
0
40
2.5
41
11.1111111111
71
5
72
1
1
33.8215
7
standard
210
0
220
0
230
1
50
0
73
2
44
1
0
LINE
5
1FE
100
AcDbEntity
8
quote2
6
CONTINUOUS
62
7
370
0
100
AcDbLine
10
47.1380027804
20
3.375
11
47.1380027804
21
-6.25
0
LINE
5
1FF
100
AcDbEntity
8
quote2
6
CONTINUOUS
62
7
370
0
100
AcDbLine
10
80.9594704458
20
4.80742964726
11
80.9594704458
21
-6.25
0
ENDBLK
5
D6
330
D4
100
AcDbEntity
8
0
100
AcDbBlockEnd
0
BLOCK
5
D8
330
D7
100
AcDbEntity
8
0
100
AcDbBlockBegin
2
*D34
70
1
10
0
20
0
3
*D34
1

0
LINE
5
200
100
AcDbEntity
8
quote3
6
CONTINUOUS
62
7
370
0
100
AcDbLine
10
232.213467748
20
-20
11
198.391994605
21
-20
0
SOLID
5
201
100
AcDbEntity
8
quote3
6
CONTINUOUS
62
7
370
0
100
AcDbTrace
10
232.213467748
20
-20
30
0
11
229.713467748
21
-20.4162846578
31
0
12
229.713467748
22
-19.5837153422
32
0
13
229.713467748
23
-19.5837153422
33
0
0
SOLID
5
202
100
AcDbEntity
8
quote3
6
CONTINUOUS
62
7
370
0
100
AcDbTrace
10
198.391994605
20
-20
30
0
11
200.891994605
21
-19.5837153422
31
0
12
200.891994605
22
-20.4162846578
32
0
13
200.891994605
23
-20.4162846578
33
0
0
MTEXT
5
203
100
AcDbEntity
8
quote3
6
CONTINUOUS
62
7
370
0
100
AcDbMText
10
215.302731177
20
-18.125
30
0
40
2.5
41
11.1111111111
71
5
72
1
1
33.8215
7
standard
210
0
220
0
230
1
50
360
73
2
44
1
0
LINE
5
204
100
AcDbEntity
8
quote3
6
CONTINUOUS
62
7
370
0
100
AcDbLine
10
232.213467748
20
-2.05742964726
11
232.213467748
21
-21.25
0
LINE
5
205
100
AcDbEntity
8
quote3
6
CONTINUOUS
62
7
370
0
100
AcDbLine
10
198.391994605
20
-0.625
11
198.391994605
21
-21.25
0
ENDBLK
5
D9
330
D7
100
AcDbEntity
8
0
100
AcDbBlockEnd
0
BLOCK
5
DB
330
DA
100
AcDbEntity
8
0
100
AcDbBlockBegin
2
*D17
70
1
10
0
20
0
3
*D17
1

0
LINE
5
206
100
AcDbEntity
8
quote2
6
CONTINUOUS
62
7
370
0
100
AcDbLine
10
47.1379972196
20
-5
11
0
21
-5
0
SOLID
5
207
100
AcDbEntity
8
quote2
6
CONTINUOUS
62
7
370
0
100
AcDbTrace
10
47.1379972196
20
-5
30
0
11
44.6379972196
21
-5.41628465777
31
0
12
44.6379972196
22
-4.58371534223
32
0
13
44.6379972196
23
-4.58371534223
33
0
0
SOLID
5
208
100
AcDbEntity
8
quote2
6
CONTINUOUS
62
7
370
0
100
AcDbTrace
10
0
20
-5
30
0
11
2.5
21
-4.58371534223
31
0
12
2.5
22
-5.41628465777
32
0
13
2.5
23
-5.41628465777
33
0
0
MTEXT
5
209
100
AcDbEntity
8
quote2
6
CONTINUOUS
62
7
370
0
100
AcDbMText
10
23.5689986098
20
-3.125
30
0
40
2.5
41
9.44444444444
71
5
72
1
1
47.138
7
standard
210
0
220
0
230
1
50
360
73
2
44
1
0
LINE
5
20A
100
AcDbEntity
8
quote2
6
CONTINUOUS
62
7
370
0
100
AcDbLine
10
47.1379972196
20
3.375
11
47.1379972196
21
-6.25
0
LINE
5
20B
100
AcDbEntity
8
quote2
6
CONTINUOUS
62
7
370
0
100
AcDbLine
10
-1.1481063742e-16
20
3.375
11
-2.2962127484e-16
21
-6.25
0
ENDBLK
5
DC
330
DA
100
AcDbEntity
8
0
100
AcDbBlockEnd
0
BLOCK
5
DE
330
DD
100
AcDbEntity
8
0
100
AcDbBlockBegin
2
*D45
70
1
10
0
20
0
3
*D45
1

0
LINE
5
20C
100
AcDbEntity
8
quote4
6
CONTINUOUS
62
7
370
0
100
AcDbLine
10
349.703053714
20
-26.7586750789
11
-1.97215226305e-31
21
-26.7586750789
0
SOLID
5
20D
100
AcDbEntity
8
quote4
6
CONTINUOUS
62
7
370
0
100
AcDbTrace
10
349.703053714
20
-26.7586750789
30
0
11
347.203053714
21
-27.1749597367
31
0
12
347.203053714
22
-26.3423904211
32
0
13
347.203053714
23
-26.3423904211
33
0
0
SOLID
5
20E
100
AcDbEntity
8
quote4
6
CONTINUOUS
62
7
370
0
100
AcDbTrace
10
-1.97215226305e-31
20
-26.7586750789
30
0
11
2.5
21
-26.3423904211
31
0
12
2.5
22
-27.1749597367
32
0
13
2.5
23
-27.1749597367
33
0
0
MTEXT
5
20F
100
AcDbEntity
8
quote4
6
CONTINUOUS
62
7
370
0
100
AcDbMText
10
174.851526857
20
-24.8836750789
30
0
40
2.5
41
13.3333333333
71
5
72
1
1
349.7031
7
standard
210
0
220
0
230
1
50
360
73
2
44
1
0
LINE
5
210
100
AcDbEntity
8
quote4
6
CONTINUOUS
62
7
370
0
100
AcDbLine
10
349.703053714
20
-12.0275703527
11
349.703053714
21
-28.0086750789
0
LINE
5
211
100
AcDbEntity
8
quote4
6
CONTINUOUS
62
7
370
0
100
AcDbLine
10
2.10563541183e-15
20
-0.625
11
4.21127082366e-15
21
-28.0086750789
0
ENDBLK
5
DF
330
DD
100
AcDbEntity
8
0
100
AcDbBlockEnd
0
BLOCK
5
E1
330
E0
100
AcDbEntity
8
0
100
AcDbBlockBegin
2
*D42
70
1
10
0
20
0
3
*D42
1

0
LINE
5
212
100
AcDbEntity
8
quote4
6
CONTINUOUS
62
7
370
0
100
AcDbLine
10
302.568524159
20
8.52471924292
11
336.38998921
21
8.52471924292
0
SOLID
5
213
100
AcDbEntity
8
quote4
6
CONTINUOUS
62
7
370
0
100
AcDbTrace
10
302.568524159
20
8.52471924292
30
0
11
305.068524159
21
8.94100390069
31
0
12
305.068524159
22
8.10843458515
32
0
13
305.068524159
23
8.10843458515
33
0
0
SOLID
5
214
100
AcDbEntity
8
quote4
6
CONTINUOUS
62
7
370
0
100
AcDbTrace
10
336.38998921
20
8.52471924292
30
0
11
333.88998921
21
8.10843458515
31
0
12
333.88998921
22
8.94100390069
32
0
13
333.88998921
23
8.94100390069
33
0
0
MTEXT
5
215
100
AcDbEntity
8
quote4
6
CONTINUOUS
62
7
370
0
100
AcDbMText
10
319.479256685
20
10.3997192429
30
0
40
2.5
41
11.1111111111
71
5
72
1
1
33.8215
7
standard
210
0
220
0
230
1
50
0
73
2
44
1
0
LINE
5
216
100
AcDbEntity
8
quote4
6
CONTINUOUS
62
7
370
0
100
AcDbLine
10
302.568524159
20
-6.77757035274
11
302.568524159
21
9.77471924292
0
LINE
5
217
100
AcDbEntity
8
quote4
6
CONTINUOUS
62
7
370
0
100
AcDbLine
10
336.38998921
20
-8.21
11
336.38998921
21
9.77471924292
0
ENDBLK
5
E2
330
E0
100
AcDbEntity
8
0
100
AcDbBlockEnd
0
BLOCK
5
E4
330
E3
100
AcDbEntity
8
0
100
AcDbBlockBegin
2
*D22
70
1
10
0
20
0
3
*D22
1

0
LINE
5
218
100
AcDbEntity
8
quote2
6
CONTINUOUS
62
7
370
0
100
AcDbLine
10
47.138
20
26
11
185.135994605
21
26
0
SOLID
5
219
100
AcDbEntity
8
quote2
6
CONTINUOUS
62
7
370
0
100
AcDbTrace
10
47.138
20
26
30
0
11
49.638
21
26.4162846578
31
0
12
49.638
22
25.5837153422
32
0
13
49.638
23
25.5837153422
33
0
0
SOLID
5
21A
100
AcDbEntity
8
quote2
6
CONTINUOUS
62
7
370
0
100
AcDbTrace
10
185.135994605
20
26
30
0
11
182.635994605
21
25.5837153422
31
0
12
182.635994605
22
26.4162846578
32
0
13
182.635994605
23
26.4162846578
33
0
0
MTEXT
5
21B
100
AcDbEntity
8
quote2
6
CONTINUOUS
62
7
370
0
100
AcDbMText
10
116.136997303
20
27.875
30
0
40
2.5
41
11.1111111111
71
5
72
1
1
137.998
7
standard
210
0
220
0
230
1
50
0
73
2
44
1
0
LINE
5
21C
100
AcDbEntity
8
quote2
6
CONTINUOUS
62
7
370
0
100
AcDbLine
10
47.138
20
13.46
11
47.138
21
27.25
0
LINE
5
21D
100
AcDbEntity
8
quote2
6
CONTINUOUS
62
7
370
0
100
AcDbLine
10
185.135994605
20
13.46
11
185.135994605
21
27.25
0
ENDBLK
5
E5
330
E3
100
AcDbEntity
8
0
100
AcDbBlockEnd
0
BLOCK
5
E7
330
E6
100
AcDbEntity
8
0
100
AcDbBlockBegin
2
*D1
70
1
10
0
20
0
3
*D1
1

0
LINE
5
21E
100
AcDbEntity
8
quote1
6
CONTINUOUS
62
7
370
0
100
AcDbLine
10
33.8743163152
20
0.809667803465
11
34.5113398792
21
-6.69733271883
0
LINE
5
21F
100
AcDbEntity
8
quote1
6
CONTINUOUS
62
7
370
0
100
AcDbLine
10
47.2513754236
20
1.94480850895
11
47.8883989876
21
-5.56219201335
0
LINE
5
220
100
AcDbEntity
8
quote1
6
CONTINUOUS
62
7
370
0
100
AcDbLine
10
34.4056481404
20
-5.45180903124
11
47.7827072488
21
-4.31666832576
0
SOLID
5
221
100
AcDbEntity
8
quote1
6
CONTINUOUS
62
7
370
0
100
AcDbTrace
10
34.4056481404
20
-5.45180903124
30
0
11
36.8614972361
21
-4.82563163198
31
0
12
36.931893795
22
-5.65521947524
32
0
13
36.931893795
23
-5.65521947524
33
0
0
SOLID
5
222
100
AcDbEntity
8
quote1
6
CONTINUOUS
62
7
370
0
100
AcDbTrace
10
47.7827072488
20
-4.31666832576
30
0
11
45.3268581531
21
-4.94284572502
31
0
12
45.2564615941
22
-4.11325788177
32
0
13
45.2564615941
23
-4.11325788177
33
0
0
MTEXT
5
223
100
AcDbEntity
8
quote1
6
CONTINUOUS
62
7
370
0
100
AcDbMText
10
40.9356400864
20
-3.01595314711
30
0
40
2.5
41
10.8333333333
71
5
72
1
1
13.4251
7
standard
210
0
220
0
230
1
50
4.8503436085
73
2
44
1
0
ENDBLK
5
E8
330
E6
100
AcDbEntity
8
0
100
AcDbBlockEnd
0
BLOCK
5
EA
330
E9
100
AcDbEntity
8
0
100
AcDbBlockBegin
2
*D44
70
1
10
0
20
0
3
*D44
1

0
LINE
5
224
100
AcDbEntity
8
quote4
6
CONTINUOUS
62
7
370
0
100
AcDbLine
10
349.703053714
20
-20.5762366184
11
302.568524159
21
-20.5762366184
0
SOLID
5
225
100
AcDbEntity
8
quote4
6
CONTINUOUS
62
7
370
0
100
AcDbTrace
10
349.703053714
20
-20.5762366184
30
0
11
347.203053714
21
-20.9925212762
31
0
12
347.203053714
22
-20.1599519606
32
0
13
347.203053714
23
-20.1599519606
33
0
0
SOLID
5
226
100
AcDbEntity
8
quote4
6
CONTINUOUS
62
7
370
0
100
AcDbTrace
10
302.568524159
20
-20.5762366184
30
0
11
305.068524159
21
-20.1599519606
31
0
12
305.068524159
22
-20.9925212762
32
0
13
305.068524159
23
-20.9925212762
33
0
0
MTEXT
5
227
100
AcDbEntity
8
quote4
6
CONTINUOUS
62
7
370
0
100
AcDbMText
10
326.135788936
20
-18.7012366184
30
0
40
2.5
41
11.6666666667
71
5
72
1
1
47.1345
7
standard
210
0
220
0
230
1
50
360
73
2
44
1
0
LINE
5
228
100
AcDbEntity
8
quote4
6
CONTINUOUS
62
7
370
0
100
AcDbLine
10
349.703053714
20
-12.0275703527
11
349.703053714
21
-21.8262366184
0
LINE
5
229
100
AcDbEntity
8
quote4
6
CONTINUOUS
62
7
370
0
100
AcDbLine
10
302.568524159
20
-8.02757035274
11
302.568524159
21
-21.8262366184
0
ENDBLK
5
EB
330
E9
100
AcDbEntity
8
0
100
AcDbBlockEnd
0
BLOCK
5
ED
330
EC
100
AcDbEntity
8
0
100
AcDbBlockBegin
2
*D16
70
1
10
0
20
0
3
*D16
1

0
LINE
5
22A
100
AcDbEntity
8
quote12
6
CONTINUOUS
62
7
370
0
100
AcDbLine
10
0
20
-10
11
81.020003163
21
-10
0
SOLID
5
22B
100
AcDbEntity
8
quote12
6
CONTINUOUS
62
7
370
0
100
AcDbTrace
10
0
20
-10
30
0
11
2.5
21
-9.58371534223
31
0
12
2.5
22
-10.4162846578
32
0
13
2.5
23
-10.4162846578
33
0
0
SOLID
5
22C
100
AcDbEntity
8
quote12
6
CONTINUOUS
62
7
370
0
100
AcDbTrace
10
81.020003163
20
-10
30
0
11
78.520003163
21
-10.4162846578
31
0
12
78.520003163
22
-9.58371534223
32
0
13
78.520003163
23
-9.58371534223
33
0
0
MTEXT
5
22D
100
AcDbEntity
8
quote12
6
CONTINUOUS
62
7
370
0
100
AcDbMText
10
40.5100015815
20
-8.125
30
0
40
2.5
41
7.22222222222
71
5
72
1
1
81.02
7
standard
210
0
220
0
230
1
50
0
73
2
44
1
0
LINE
5
22E
100
AcDbEntity
8
quote12
6
CONTINUOUS
62
7
370
0
100
AcDbLine
10
-1.1481063742e-16
20
3.375
11
-2.2962127484e-16
21
-11.25
0
LINE
5
22F
100
AcDbEntity
8
quote12
6
CONTINUOUS
62
7
370
0
100
AcDbLine
10
81.020003163
20
3.375
11
81.020003163
21
-11.25
0
ENDBLK
5
EE
330
EC
100
AcDbEntity
8
0
100
AcDbBlockEnd
0
BLOCK
5
F0
330
EF
100
AcDbEntity
8
0
100
AcDbBlockBegin
2
*D31
70
1
10
0
20
0
3
*D31
1

0
LINE
5
230
100
AcDbEntity
8
quote1
6
CONTINUOUS
62
7
370
0
100
AcDbLine
10
198.452529554
20
-46.4292744481
11
-7.34788079488e-14
21
-46.4292744481
0
SOLID
5
231
100
AcDbEntity
8
quote1
6
CONTINUOUS
62
7
370
0
100
AcDbTrace
10
198.452529554
20
-46.4292744481
30
0
11
195.952529554
21
-46.8455591059
31
0
12
195.952529554
22
-46.0129897903
32
0
13
195.952529554
23
-46.0129897903
33
0
0
SOLID
5
232
100
AcDbEntity
8
quote1
6
CONTINUOUS
62
7
370
0
100
AcDbTrace
10
-7.34788079488e-14
20
-46.4292744481
30
0
11
2.5
21
-46.0129897903
31
0
12
2.5
22
-46.8455591059
32
0
13
2.5
23
-46.8455591059
33
0
0
MTEXT
5
233
100
AcDbEntity
8
quote1
6
CONTINUOUS
62
7
370
0
100
AcDbMText
10
99.2262647771
20
-44.5542744481
30
0
40
2.5
41
13.3333333333
71
5
72
1
1
198.4525
7
standard
210
0
220
0
230
1
50
360
73
2
44
1
0
LINE
5
234
100
AcDbEntity
8
quote1
6
CONTINUOUS
62
7
370
0
100
AcDbLine
10
198.452529554
20
0.80742964726
11
198.452529554
21
-47.6792744481
0
LINE
5
235
100
AcDbEntity
8
quote1
6
CONTINUOUS
62
7
370
0
100
AcDbLine
10
-7.35936185862e-14
20
-0.625
11
-7.37084292236e-14
21
-47.6792744481
0
ENDBLK
5
F1
330
EF
100
AcDbEntity
8
0
100
AcDbBlockEnd
0
ENDSEC
0
SECTION
2
ENTITIES
0
ARC
5
236
100
AcDbEntity
8
0
6
ByLayer
62
256
370
-1
100
AcDbCircle
10
0
20
400
40
400
100
AcDbArc
50
270
51
274.85036
0
LINE
5
237
100
AcDbEntity
8
help0
6
ByLayer
62
256
370
-1
100
AcDbLine
10
0
20
0
11
13.25
21
0
0
LINE
5
238
100
AcDbEntity
8
help0
6
ByLayer
62
256
370
-1
100
AcDbLine
10
0
20
4
11
13.25
21
4
0
LINE
5
239
100
AcDbEntity
8
help0
6
ByLayer
62
256
370
-1
100
AcDbLine
10
0
20
12.835
11
13.25
21
12.835
0
LINE
5
23A
100
AcDbEntity
8
help0
6
ByLayer
62
256
370
-1
100
AcDbLine
10
0
20
16.835
11
13.25
21
16.835
0
LINE
5
23B
100
AcDbEntity
8
help0
6
ByLayer
62
256
370
-1
100
AcDbLine
10
0
20
25.67
11
13.25
21
25.67
0
LINE
5
23C
100
AcDbEntity
8
help0
6
ByLayer
62
256
370
-1
100
AcDbLine
10
0
20
29.67
11
13.25
21
29.67
0
LINE
5
23D
100
AcDbEntity
8
help0
6
ByLayer
62
256
370
-1
100
AcDbLine
10
0
20
-8.835
11
13.25
21
-8.835
0
LINE
5
23E
100
AcDbEntity
8
help0
6
ByLayer
62
256
370
-1
100
AcDbLine
10
0
20
-12.835
11
13.25
21
-12.835
0
LINE
5
23F
100
AcDbEntity
8
help1
6
ByLayer
62
256
370
-1
100
AcDbLine
10
33.8214704458
20
1.43242964726
11
33.8214704458
21
14.6824296473
0
LINE
5
240
100
AcDbEntity
8
help1
6
ByLayer
62
256
370
-1
100
AcDbLine
10
0
20
0
11
8.11328504435e-16
21
13.25
0
ARC
5
241
100
AcDbEntity
8
0
6
ByLayer
62
256
370
-1
100
AcDbCircle
10
0
20
-383.165
40
400
100
AcDbArc
50
85.14964
51
90
0
LINE
5
242
100
AcDbEntity
8
help1
6
ByLayer
62
256
370
-1
100
AcDbLine
10
33.8214704458
20
1.43242964726
11
34.8214704458
21
1.43242964726
0
LINE
5
243
100
AcDbEntity
8
help1
6
ByLayer
62
256
370
-1
100
AcDbLine
10
33.8214704458
20
15.4025703527
11
34.8214704458
21
15.4025703527
0
LINE
5
244
100
AcDbEntity
8
help0
6
ByLayer
62
256
370
-1
100
AcDbLine
10
0
20
0
11
6.12323399574e-17
21
1
0
LINE
5
245
100
AcDbEntity
8
help1
6
ByLayer
62
256
370
-1
100
AcDbLine
10
2.44929359829e-14
20
16.835
11
1
21
16.835
0
LINE
5
246
100
AcDbEntity
8
help1
6
ByLayer
62
256
370
-1
100
AcDbLine
10
0
20
0
11
1
21
0
0
LINE
5
247
100
AcDbEntity
8
help0
6
ByLayer
62
256
370
-1
100
AcDbLine
10
0
20
4
11
1
21
4
0
LINE
5
248
100
AcDbEntity
8
help0
6
ByLayer
62
256
370
-1
100
AcDbLine
10
0
20
4
11
1
21
4
0
LINE
5
249
100
AcDbEntity
8
help1
6
ByLayer
62
256
370
-1
100
AcDbLine
10
0
20
4
11
1
21
4
0
LINE
5
24A
100
AcDbEntity
8
help1
6
ByLayer
62
256
370
-1
100
AcDbLine
10
81.02
20
0
11
81.02
21
1
0
ARC
5
24B
100
AcDbEntity
8
0
6
ByLayer
62
256
370
-1
100
AcDbCircle
10
81.02
20
-396
40
400
100
AcDbArc
50
90
51
94.85036
0
LINE
5
24C
100
AcDbEntity
8
help1
6
ByLayer
62
256
370
-1
100
AcDbLine
10
47.1985295542
20
2.56757035274
11
47.1985295542
21
3.56757035274
0
LINE
5
24D
100
AcDbEntity
8
0
6
ByLayer
62
256
370
-1
100
AcDbLine
10
33.8214704458
20
1.43242964726
11
47.1985295542
21
2.56757035274
0
LINE
5
24E
100
AcDbEntity
8
help1
6
ByLayer
62
256
370
-1
100
AcDbLine
10
12.835
20
0
11
13.835
21
0
0
LINE
5
24F
100
AcDbEntity
8
help1
6
ByLayer
62
256
370
-1
100
AcDbLine
10
0
20
12.835
11
1
21
12.835
0
LINE
5
250
100
AcDbEntity
8
help1
6
ByLayer
62
256
370
-1
100
AcDbLine
10
47.1985295542
20
2.56757035274
11
48.1985295542
21
2.56757035274
0
ARC
5
251
100
AcDbEntity
8
0
6
ByLayer
62
256
370
-1
100
AcDbCircle
10
81.02
20
412.835
40
400
100
AcDbArc
50
265.14964
51
270
0
LINE
5
252
100
AcDbEntity
8
help1
6
ByLayer
62
256
370
-1
100
AcDbLine
10
47.1985295542
20
14.2674296473
11
48.1985295542
21
14.2674296473
0
LINE
5
253
100
AcDbEntity
8
0
6
ByLayer
62
256
370
-1
100
AcDbLine
10
33.8214704458
20
15.4025703527
11
47.1985295542
21
14.2674296473
0
LINE
5
254
100
AcDbEntity
8
help2
6
ByLayer
62
256
370
-1
100
AcDbLine
10
0
20
4
11
1
21
4
0
LINE
5
255
100
AcDbEntity
8
help2
6
ByLayer
62
256
370
-1
100
AcDbLine
10
0
20
12.835
11
1
21
12.835
0
LINE
5
256
100
AcDbEntity
8
help2
6
ByLayer
62
256
370
-1
100
AcDbLine
10
81.8414704458
20
11.4025703527
11
82.8414704458
21
11.4025703527
0
LINE
5
257
100
AcDbEntity
8
help2
6
ByLayer
62
256
370
-1
100
AcDbLine
10
81.8414704458
20
5.43242964726
11
82.8414704458
21
5.43242964726
0
LINE
5
258
100
AcDbEntity
8
help0
6
ByLayer
62
256
370
-1
100
AcDbLine
10
0
20
12.835
11
1
21
12.835
0
LINE
5
259
100
AcDbEntity
8
help0
6
ByLayer
62
256
370
-1
100
AcDbLine
10
383.448007629
20
29.67
11
383.448007629
21
30.67
0
DIMENSION
5
25A
100
AcDbEntity
8
quote1
6
ByLayer
62
256
370
-1
100
AcDbDimension
2
*D1
10
47.7827072488
20
-4.31666832576
30
0
11
40.9356400864
21
-3.01595314711
31
0
70
33
71
5
72
0
3
Standard
53
0
210
0
220
0
230
1
100
AcDbAlignedDimension
13
33.8214704458
23
1.43242964726
33
0
14
47.1985295542
24
2.56757035274
34
0
0
DIMENSION
5
25B
100
AcDbEntity
8
quote1
6
ByLayer
62
256
370
-1
100
AcDbDimension
2
*D2
10
33.8214704458
20
-12
30
0
11
40.51
21
-10.125
31
0
70
32
71
5
72
0
3
Standard
53
0
210
0
220
0
230
1
100
AcDbAlignedDimension
13
47.1985295542
23
2.56757035274
33
0
14
33.8214704458
24
1.43242964726
34
0
100
AcDbRotatedDimension
0
DIMENSION
5
25C
100
AcDbEntity
8
quote1
6
ByLayer
62
256
370
-1
100
AcDbDimension
2
*D3
10
81.02
20
-12
30
0
11
64.1092647771
21
-10.125
31
0
70
32
71
5
72
0
3
Standard
53
0
210
0
220
0
230
1
100
AcDbAlignedDimension
13
47.1985295542
23
2.56757035274
33
0
14
81.02
24
4
34
0
100
AcDbRotatedDimension
0
DIMENSION
5
25D
100
AcDbEntity
8
quote1
6
ByLayer
62
256
370
-1
100
AcDbDimension
2
*D4
10
33.8214704458
20
-12
30
0
11
16.9107352229
21
-10.125
31
0
70
32
71
5
72
0
3
Standard
53
0
210
0
220
0
230
1
100
AcDbAlignedDimension
13
0
23
0
33
0
14
33.8214704458
24
1.43242964726
34
0
100
AcDbRotatedDimension
0
DIMENSION
5
25E
100
AcDbEntity
8
quote1
6
ByLayer
62
256
370
-1
100
AcDbDimension
2
*D5
10
47.1985295542
20
-20
30
0
11
23.5992647771
21
-18.125
31
0
70
32
71
5
72
0
3
Standard
53
0
210
0
220
0
230
1
100
AcDbAlignedDimension
13
0
23
0
33
0
14
47.1985295542
24
2.56757035274
34
0
100
AcDbRotatedDimension
0
DIMENSION
5
25F
100
AcDbEntity
8
quote1
6
ByLayer
62
256
370
-1
100
AcDbDimension
2
*D6
10
-7.53157781476e-14
20
-30
30
0
11
40.5100015815
21
-28.125
31
0
70
32
71
5
72
0
3
Standard
53
0
210
0
220
0
230
1
100
AcDbAlignedDimension
13
81.020003163
23
4
33
0
14
-7.34788079488e-14
24
0
34
0
100
AcDbRotatedDimension
0
LINE
5
260
100
AcDbEntity
8
help2
6
ByLayer
62
256
370
-1
100
AcDbLine
10
47.138
20
4
11
47.138
21
5
0
ARC
5
261
100
AcDbEntity
8
0
6
ByLayer
62
256
370
-1
100
AcDbCircle
10
47.138
20
404
40
400
100
AcDbArc
50
270
51
274.85036
0
LINE
5
262
100
AcDbEntity
8
help2
6
ByLayer
62
256
370
-1
100
AcDbLine
10
80.9594704458
20
5.43242964726
11
80.9594704458
21
6.43242964726
0
LINE
5
263
100
AcDbEntity
8
0
6
ByLayer
62
256
370
-1
100
AcDbLine
10
47.1380027804
20
4
11
0
21
4
0
LINE
5
264
100
AcDbEntity
8
0
6
ByLayer
62
256
370
-1
100
AcDbLine
10
47.138
20
12.835
11
0
21
12.835
0
ARC
5
265
100
AcDbEntity
8
0
6
ByLayer
62
256
370
-1
100
AcDbCircle
10
47.138
20
-387.165
40
400
100
AcDbArc
50
85.14964
51
90
0
DIMENSION
5
266
100
AcDbEntity
8
quote1
6
ByLayer
62
256
370
-1
100
AcDbDimension
2
*D7
10
-2
20
2.56757035274
30
0
11
-3.875
21
3.28378517637
31
0
70
32
71
5
72
0
3
Standard
53
0
210
0
220
0
230
1
100
AcDbAlignedDimension
13
81.02
23
4
33
0
14
47.1985295542
24
2.56757035274
34
0
50
90
100
AcDbRotatedDimension
0
DIMENSION
5
267
100
AcDbEntity
8
quote1
6
ByLayer
62
256
370
-1
100
AcDbDimension
2
*D8
10
-7
20
1.43242964726
30
0
11
-8.875
21
2
31
0
70
32
71
5
72
0
3
Standard
53
0
210
0
220
0
230
1
100
AcDbAlignedDimension
13
47.1985295542
23
2.56757035274
33
0
14
33.8214704458
24
1.43242964726
34
0
50
90
100
AcDbRotatedDimension
0
DIMENSION
5
268
100
AcDbEntity
8
quote1
6
ByLayer
62
256
370
-1
100
AcDbDimension
2
*D9
10
-12
20
1.46957615898e-15
30
0
11
-13.875
21
0.716214823632
31
0
70
32
71
5
72
0
3
Standard
53
0
210
0
220
0
230
1
100
AcDbAlignedDimension
13
33.8214704458
23
1.43242964726
33
0
14
0
24
0
34
0
50
90
100
AcDbRotatedDimension
0
DIMENSION
5
269
100
AcDbEntity
8
quote1
6
ByLayer
62
256
370
-1
100
AcDbDimension
2
*D10
10
-17
20
2.08189955855e-15
30
0
11
-18.875
21
2
31
0
70
32
71
5
72
0
3
Standard
53
0
210
0
220
0
230
1
100
AcDbAlignedDimension
13
81.019996837
23
4
33
0
14
0
24
0
34
0
50
90
100
AcDbRotatedDimension
0
LINE
5
26A
100
AcDbEntity
8
help2
6
ByLayer
62
256
370
-1
100
AcDbLine
10
0
20
4
11
1
21
4
0
DIMENSION
5
26B
100
AcDbEntity
8
quote2
6
ByLayer
62
256
370
-1
100
AcDbDimension
2
*D11
10
-2
20
12.835
30
0
11
-3.875
21
12.1187851764
31
0
70
32
71
5
72
0
3
Standard
53
0
210
0
220
0
230
1
100
AcDbAlignedDimension
13
80.9594704458
23
11.4025703527
33
0
14
47.138003504
24
12.835
34
0
50
90
100
AcDbRotatedDimension
0
DIMENSION
5
26C
100
AcDbEntity
8
quote2
6
ByLayer
62
256
370
-1
100
AcDbDimension
2
*D12
10
-7
20
5.43242964726
30
0
11
-8.875
21
8.4175
31
0
70
32
71
5
72
0
3
Standard
53
0
210
0
220
0
230
1
100
AcDbAlignedDimension
13
80.9594704458
23
11.4025703527
33
0
14
80.9594704458
24
5.43242964726
34
0
50
90
100
AcDbRotatedDimension
0
DIMENSION
5
26D
100
AcDbEntity
8
quote2
6
ByLayer
62
256
370
-1
100
AcDbDimension
2
*D13
10
-12
20
4
30
0
11
-13.875
21
4.71621482363
31
0
70
32
71
5
72
0
3
Standard
53
0
210
0
220
0
230
1
100
AcDbAlignedDimension
13
80.9594704458
23
5.43242964726
33
0
14
47.1380027804
24
4
34
0
50
90
100
AcDbRotatedDimension
0
DIMENSION
5
26E
100
AcDbEntity
8
quote2
6
ByLayer
62
256
370
-1
100
AcDbDimension
2
*D14
10
-17
20
4
30
0
11
-18.875
21
8.4175
31
0
70
32
71
5
72
0
3
Standard
53
0
210
0
220
0
230
1
100
AcDbAlignedDimension
13
47.138
23
12.835
33
0
14
47.1380027804
24
4
34
0
50
90
100
AcDbRotatedDimension
0
DIMENSION
5
26F
100
AcDbEntity
8
quote12
6
ByLayer
62
256
370
-1
100
AcDbDimension
2
*D15
10
-5.51091059616e-16
20
-5
30
0
11
23.569
21
-3.125
31
0
70
32
71
5
72
0
3
Standard
53
0
210
0
220
0
230
1
100
AcDbAlignedDimension
13
47.138
23
4
33
0
14
0
24
4
34
0
100
AcDbRotatedDimension
0
DIMENSION
5
270
100
AcDbEntity
8
quote12
6
ByLayer
62
256
370
-1
100
AcDbDimension
2
*D16
10
81.020003163
20
-10
30
0
11
40.5100015815
21
-8.125
31
0
70
32
71
5
72
0
3
Standard
53
0
210
0
220
0
230
1
100
AcDbAlignedDimension
13
0
23
4
33
0
14
81.020003163
24
4
34
0
100
AcDbRotatedDimension
0
DIMENSION
5
271
100
AcDbEntity
8
quote2
6
ByLayer
62
256
370
-1
100
AcDbDimension
2
*D17
10
-5.51091059616e-16
20
-5
30
0
11
23.5689986098
21
-3.125
31
0
70
32
71
5
72
0
3
Standard
53
0
210
0
220
0
230
1
100
AcDbAlignedDimension
13
47.1379972196
23
4
33
0
14
0
24
4
34
0
100
AcDbRotatedDimension
0
DIMENSION
5
272
100
AcDbEntity
8
quote2
6
ByLayer
62
256
370
-1
100
AcDbDimension
2
*D18
10
80.9594704458
20
-5
30
0
11
64.0487366131
21
-3.125
31
0
70
32
71
5
72
0
3
Standard
53
0
210
0
220
0
230
1
100
AcDbAlignedDimension
13
47.1380027804
23
4
33
0
14
80.9594704458
24
5.43242964726
34
0
100
AcDbRotatedDimension
0
DIMENSION
5
273
100
AcDbEntity
8
quote2
6
ByLayer
62
256
370
-1
100
AcDbDimension
2
*D19
10
-8.57252759403e-16
20
-10
30
0
11
40.4797352229
21
-8.125
31
0
70
32
71
5
72
0
3
Standard
53
0
210
0
220
0
230
1
100
AcDbAlignedDimension
13
80.9594704458
23
5.43242964726
33
0
14
0
24
4
34
0
100
AcDbRotatedDimension
0
LINE
5
274
100
AcDbEntity
8
help2
6
ByLayer
62
256
370
-1
100
AcDbLine
10
185.136
20
4
11
185.136
21
5
0
ARC
5
275
100
AcDbEntity
8
0
6
ByLayer
62
256
370
-1
100
AcDbCircle
10
185.136
20
404
40
400
100
AcDbArc
50
265.14964
51
270
0
LINE
5
276
100
AcDbEntity
8
help2
6
ByLayer
62
256
370
-1
100
AcDbLine
10
151.314529554
20
5.43242964726
11
151.314529554
21
6.43242964726
0
LINE
5
277
100
AcDbEntity
8
0
6
ByLayer
62
256
370
-1
100
AcDbLine
10
80.9594704458
20
11.4025703527
11
151.314529554
21
5.43242964726
0
ARC
5
278
100
AcDbEntity
8
0
6
ByLayer
62
256
370
-1
100
AcDbCircle
10
185.136
20
-387.165
40
400
100
AcDbArc
50
90
51
94.85036
0
LINE
5
279
100
AcDbEntity
8
0
6
ByLayer
62
256
370
-1
100
AcDbLine
10
151.314529554
20
11.4025703527
11
80.9594704458
21
5.43242964726
0
DIMENSION
5
27A
100
AcDbEntity
8
quote2
6
ByLayer
62
256
370
-1
100
AcDbDimension
2
*D20
10
116.137
20
-5
30
0
11
98.5482352229
21
-3.125
31
0
70
32
71
5
72
0
3
Standard
53
0
210
0
220
0
230
1
100
AcDbAlignedDimension
13
80.9594704458
23
5.43242964726
33
0
14
116.137
24
8.4175
34
0
100
AcDbRotatedDimension
0
DIMENSION
5
27B
100
AcDbEntity
8
quote2
6
ByLayer
62
256
370
-1
100
AcDbDimension
2
*D21
10
151.314529554
20
20
30
0
11
116.136999998
21
21.875
31
0
70
32
71
5
72
0
3
Standard
53
0
210
0
220
0
230
1
100
AcDbAlignedDimension
13
80.9594704423
23
11.402570353
33
0
14
151.314529554
24
11.4025703527
34
0
100
AcDbRotatedDimension
0
DIMENSION
5
27C
100
AcDbEntity
8
quote2
6
ByLayer
62
256
370
-1
100
AcDbDimension
2
*D22
10
185.135994605
20
26
30
0
11
116.136997303
21
27.875
31
0
70
32
71
5
72
0
3
Standard
53
0
210
0
220
0
230
1
100
AcDbAlignedDimension
13
47.138
23
12.835
33
0
14
185.135994605
24
12.835
34
0
100
AcDbRotatedDimension
0
DIMENSION
5
27D
100
AcDbEntity
8
quote2
6
ByLayer
62
256
370
-1
100
AcDbDimension
2
*D23
10
-7.4703454748e-14
20
-20
30
0
11
75.6572648267
21
-18.125
31
0
70
32
71
5
72
0
3
Standard
53
0
210
0
220
0
230
1
100
AcDbAlignedDimension
13
151.314529653
23
5.43242963885
33
0
14
-7.34788079488e-14
24
0
34
0
100
AcDbRotatedDimension
0
DIMENSION
5
27E
100
AcDbEntity
8
quote2
6
ByLayer
62
256
370
-1
100
AcDbDimension
2
*D24
10
-1.83697019872e-15
20
-30
30
0
11
92.5680013487
21
-28.125
31
0
70
32
71
5
72
0
3
Standard
53
0
210
0
220
0
230
1
100
AcDbAlignedDimension
13
185.136002697
23
4
33
0
14
0
24
0
34
0
100
AcDbRotatedDimension
0
LINE
5
27F
100
AcDbEntity
8
help1
6
ByLayer
62
256
370
-1
100
AcDbLine
10
151.254
20
4
11
151.254
21
5
0
ARC
5
280
100
AcDbEntity
8
0
6
ByLayer
62
256
370
-1
100
AcDbCircle
10
151.254
20
-396
40
400
100
AcDbArc
50
85.14964
51
90
0
LINE
5
281
100
AcDbEntity
8
help1
6
ByLayer
62
256
370
-1
100
AcDbLine
10
185.075470446
20
2.56757035274
11
185.075470446
21
3.56757035274
0
DIMENSION
5
282
100
AcDbEntity
8
quote1
6
ByLayer
62
256
370
-1
100
AcDbDimension
2
*D25
10
151.253996696
20
-12
30
0
11
116.13699993
21
-10.125
31
0
70
32
71
5
72
0
3
Standard
53
0
210
0
220
0
230
1
100
AcDbAlignedDimension
13
81.020003163
23
4
33
0
14
151.253996696
24
4
34
0
100
AcDbRotatedDimension
0
DIMENSION
5
283
100
AcDbEntity
8
quote1
6
ByLayer
62
256
370
-1
100
AcDbDimension
2
*D26
10
185.075470446
20
-12
30
0
11
168.164735223
21
-10.125
31
0
70
32
71
5
72
0
3
Standard
53
0
210
0
220
0
230
1
100
AcDbAlignedDimension
13
151.254
23
4
33
0
14
185.075470446
24
2.56757035274
34
0
100
AcDbRotatedDimension
0
DIMENSION
5
284
100
AcDbEntity
8
quote1
6
ByLayer
62
256
370
-1
100
AcDbDimension
2
*D27
10
-2.20436423847e-15
20
-36
30
0
11
75.627
21
-34.125
31
0
70
32
71
5
72
0
3
Standard
53
0
210
0
220
0
230
1
100
AcDbAlignedDimension
13
151.254
23
4
33
0
14
0
24
0
34
0
100
AcDbRotatedDimension
0
DIMENSION
5
285
100
AcDbEntity
8
quote1
6
ByLayer
62
256
370
-1
100
AcDbDimension
2
*D28
10
-2.51052593825e-15
20
-41
30
0
11
92.5377352229
21
-39.125
31
0
70
32
71
5
72
0
3
Standard
53
0
210
0
220
0
230
1
100
AcDbAlignedDimension
13
185.075470446
23
2.56757035274
33
0
14
0
24
0
34
0
100
AcDbRotatedDimension
0
LINE
5
286
100
AcDbEntity
8
help1
6
ByLayer
62
256
370
-1
100
AcDbLine
10
232.274
20
4
11
232.274
21
5
0
ARC
5
287
100
AcDbEntity
8
0
6
ByLayer
62
256
370
-1
100
AcDbCircle
10
232.274
20
400
40
400
100
AcDbArc
50
265.14964
51
270
0
LINE
5
288
100
AcDbEntity
8
help1
6
ByLayer
62
256
370
-1
100
AcDbLine
10
198.452529554
20
1.43242964726
11
198.452529554
21
2.43242964726
0
LINE
5
289
100
AcDbEntity
8
0
6
ByLayer
62
256
370
-1
100
AcDbLine
10
185.075470446
20
2.56757035274
11
198.452529554
21
1.43242964726
0
DIMENSION
5
28A
100
AcDbEntity
8
quote1
6
ByLayer
62
256
370
-1
100
AcDbDimension
2
*D29
10
198.452529554
20
-12
30
0
11
191.764
21
-10.125
31
0
70
32
71
5
72
0
3
Standard
53
0
210
0
220
0
230
1
100
AcDbAlignedDimension
13
185.075470446
23
2.56757035274
33
0
14
198.452529554
24
1.43242964726
34
0
100
AcDbRotatedDimension
0
DIMENSION
5
28B
100
AcDbEntity
8
quote1
6
ByLayer
62
256
370
-1
100
AcDbDimension
2
*D30
10
232.274
20
-12
30
0
11
215.363264777
21
-10.125
31
0
70
32
71
5
72
0
3
Standard
53
0
210
0
220
0
230
1
100
AcDbAlignedDimension
13
198.452529554
23
1.43242964726
33
0
14
232.274
24
0
34
0
100
AcDbRotatedDimension
0
DIMENSION
5
28C
100
AcDbEntity
8
quote1
6
ByLayer
62
256
370
-1
100
AcDbDimension
2
*D31
10
-7.63217810658e-14
20
-46.4292744481
30
0
11
99.2262647771
21
-44.5542744481
31
0
70
32
71
5
72
0
3
Standard
53
0
210
0
220
0
230
1
100
AcDbAlignedDimension
13
198.452529554
23
1.43242964726
33
0
14
-7.34788079488e-14
24
0
34
0
100
AcDbRotatedDimension
0
DIMENSION
5
28D
100
AcDbEntity
8
quote1
6
ByLayer
62
256
370
-1
100
AcDbDimension
2
*D32
10
-3.18596500686e-15
20
-52.0307570979
30
0
11
116.137
21
-50.1557570979
31
0
70
32
71
5
72
0
3
Standard
53
0
210
0
220
0
230
1
100
AcDbAlignedDimension
13
232.274
23
0
33
0
14
0
24
0
34
0
100
AcDbRotatedDimension
0
ARC
5
28E
100
AcDbEntity
8
0
6
ByLayer
62
256
370
-1
100
AcDbCircle
10
232.274
20
-383.165
40
400
100
AcDbArc
50
90
51
94.85036
0
ARC
5
28F
100
AcDbEntity
8
0
6
ByLayer
62
256
370
-1
100
AcDbCircle
10
151.254
20
412.835
40
400
100
AcDbArc
50
270
51
274.85036
0
LINE
5
290
100
AcDbEntity
8
0
6
ByLayer
62
256
370
-1
100
AcDbLine
10
185.075470446
20
14.2674296473
11
198.452529554
21
15.4025703527
0
LINE
5
291
100
AcDbEntity
8
0
6
ByLayer
62
256
370
-1
100
AcDbLine
10
151.254
20
12.835
11
81.02
21
12.835
0
LINE
5
292
100
AcDbEntity
8
0
6
ByLayer
62
256
370
-1
100
AcDbLine
10
81.02
20
4
11
151.254
21
4
0
LINE
5
293
100
AcDbEntity
8
help3
6
ByLayer
62
256
370
-1
100
AcDbLine
10
198.391997303
20
0
11
198.391997303
21
1
0
LINE
5
294
100
AcDbEntity
8
help3
6
ByLayer
62
256
370
-1
100
AcDbLine
10
0
20
0
11
1
21
0
0
ARC
5
295
100
AcDbEntity
8
0
6
ByLayer
62
256
370
-1
100
AcDbCircle
10
198.391997303
20
-400
40
400
100
AcDbArc
50
85.14964
51
90
0
LINE
5
296
100
AcDbEntity
8
0
6
ByLayer
62
256
370
-1
100
AcDbLine
10
198.391994605
20
0
11
0
21
0
0
DIMENSION
5
297
100
AcDbEntity
8
quote3
6
ByLayer
62
256
370
-1
100
AcDbDimension
2
*D33
10
198.391994605
20
-19.976094243
30
0
11
99.1959973026
21
-18.101094243
31
0
70
32
71
5
72
0
3
Standard
53
0
210
0
220
0
230
1
100
AcDbAlignedDimension
13
-7.34788079488e-14
23
0
33
0
14
198.391994605
24
0
34
0
100
AcDbRotatedDimension
0
DIMENSION
5
298
100
AcDbEntity
8
quote3
6
ByLayer
62
256
370
-1
100
AcDbDimension
2
*D34
10
198.391994605
20
-20
30
0
11
215.302731177
21
-18.125
31
0
70
32
71
5
72
0
3
Standard
53
0
210
0
220
0
230
1
100
AcDbAlignedDimension
13
232.213467748
23
-1.43242964726
33
0
14
198.391994605
24
0
34
0
100
AcDbRotatedDimension
0
DIMENSION
5
299
100
AcDbEntity
8
quote3
6
ByLayer
62
256
370
-1
100
AcDbDimension
2
*D35
10
-1.67832085183e-15
20
-27.4090595427
30
0
11
116.106733874
21
-25.5340595427
31
0
70
32
71
5
72
0
3
Standard
53
0
210
0
220
0
230
1
100
AcDbAlignedDimension
13
232.213467748
23
-1.43242964726
33
0
14
0
24
0
34
0
100
AcDbRotatedDimension
0
LINE
5
29A
100
AcDbEntity
8
help3
6
ByLayer
62
256
370
-1
100
AcDbLine
10
198.391997303
20
16.835
11
199.391997303
21
16.835
0
ARC
5
29B
100
AcDbEntity
8
0
6
ByLayer
62
256
370
-1
100
AcDbCircle
10
198.391997303
20
416.835
40
400
100
AcDbArc
50
270
51
274.85036
0
LINE
5
29C
100
AcDbEntity
8
help3
6
ByLayer
62
256
370
-1
100
AcDbLine
10
232.213467748
20
-1.43242964726
11
233.213467748
21
-1.43242964726
0
LINE
5
29D
100
AcDbEntity
8
help3
6
ByLayer
62
256
370
-1
100
AcDbLine
10
232.213467748
20
18.2674296473
11
233.213467748
21
18.2674296473
0
LINE
5
29E
100
AcDbEntity
8
help3
6
ByLayer
62
256
370
-1
100
AcDbLine
10
336.389994605
20
0
11
336.389994605
21
1
0
LINE
5
29F
100
AcDbEntity
8
help3
6
ByLayer
62
256
370
-1
100
AcDbLine
10
0
20
-8.835
11
1
21
-8.835
0
ARC
5
2A0
100
AcDbEntity
8
0
6
ByLayer
62
256
370
-1
100
AcDbCircle
10
336.389994605
20
391.165
40
400
100
AcDbArc
50
265.14964
51
270
0
LINE
5
2A1
100
AcDbEntity
8
help3
6
ByLayer
62
256
370
-1
100
AcDbLine
10
302.568524159
20
-7.40257035274
11
302.568524159
21
-6.40257035274
0
LINE
5
2A2
100
AcDbEntity
8
help3
6
ByLayer
62
256
370
-1
100
AcDbLine
10
232.213467748
20
-1.43242964726
11
232.213467748
21
-0.432429647264
0
LINE
5
2A3
100
AcDbEntity
8
help3
6
ByLayer
62
256
370
-1
100
AcDbLine
10
302.568524159
20
-7.40257035274
11
303.568524159
21
-7.40257035274
0
LINE
5
2A4
100
AcDbEntity
8
0
6
ByLayer
62
256
370
-1
100
AcDbLine
10
232.213467748
20
-1.43242964726
11
302.568524159
21
-7.40257035274
0
DIMENSION
5
2A5
100
AcDbEntity
8
quote3
6
ByLayer
62
256
370
-1
100
AcDbDimension
2
*D36
10
302.568524159
20
-20
30
0
11
267.390995954
21
-18.125
31
0
70
32
71
5
72
0
3
Standard
53
0
210
0
220
0
230
1
100
AcDbAlignedDimension
13
232.213467748
23
-1.43242964726
33
0
14
302.568524159
24
-7.40257035274
34
0
100
AcDbRotatedDimension
0
DIMENSION
5
2A6
100
AcDbEntity
8
quote3
6
ByLayer
62
256
370
-1
100
AcDbDimension
2
*D37
10
-2.03901760439e-15
20
-33.2996845427
30
0
11
151.28426208
21
-31.4246845427
31
0
70
32
71
5
72
0
3
Standard
53
0
210
0
220
0
230
1
100
AcDbAlignedDimension
13
302.568524159
23
-7.40257035274
33
0
14
0
24
0
34
0
100
AcDbRotatedDimension
0
DIMENSION
5
2A7
100
AcDbEntity
8
quote3
6
ByLayer
62
256
370
-1
100
AcDbDimension
2
*D38
10
336.390001212
20
-20.0306545868
30
0
11
319.479262686
21
-18.1556545868
31
0
70
32
71
5
72
0
3
Standard
53
0
210
0
220
0
230
1
100
AcDbAlignedDimension
13
302.568524159
23
-7.40257035274
33
0
14
336.390001212
24
-8.835
34
0
100
AcDbRotatedDimension
0
DIMENSION
5
2A8
100
AcDbEntity
8
quote3
6
ByLayer
62
256
370
-1
100
AcDbDimension
2
*D39
10
-2.42133340521e-15
20
-39.5433753944
30
0
11
168.195000606
21
-37.6683753944
31
0
70
32
71
5
72
0
3
Standard
53
0
210
0
220
0
230
1
100
AcDbAlignedDimension
13
336.390001212
23
-8.835
33
0
14
0
24
0
34
0
100
AcDbRotatedDimension
0
DIMENSION
5
2A9
100
AcDbEntity
8
quote3
6
ByLayer
62
256
370
-1
100
AcDbDimension
2
*D40
10
303.064217272
20
-1.56108040869
30
0
11
268.045226747
21
3.29227546925
31
0
70
33
71
5
72
0
3
Standard
53
0
210
0
220
0
230
1
100
AcDbAlignedDimension
13
232.213467748
23
-1.43242964726
33
0
14
302.568524159
24
-7.40257035274
34
0
0
LINE
5
2AA
100
AcDbEntity
8
help3
6
ByLayer
62
256
370
-1
100
AcDbLine
10
0
20
25.67
11
1
21
25.67
0
ARC
5
2AB
100
AcDbEntity
8
0
6
ByLayer
62
256
370
-1
100
AcDbCircle
10
336.389994605
20
-374.33
40
400
100
AcDbArc
50
90
51
94.85036
0
LINE
5
2AC
100
AcDbEntity
8
0
6
ByLayer
62
256
370
-1
100
AcDbLine
10
232.213467748
20
18.2674296473
11
302.568524159
21
24.2375703527
0
LINE
5
2AD
100
AcDbEntity
8
0
6
ByLayer
62
256
370
-1
100
AcDbLine
10
198.391997303
20
16.835
11
2.44929359829e-14
21
16.835
0
LINE
5
2AE
100
AcDbEntity
8
help3
6
ByLayer
62
256
370
-1
100
AcDbLine
10
302.568524159
20
24.2375703527
11
303.568524159
21
24.2375703527
0
LINE
5
2AF
100
AcDbEntity
8
quote3
6
ByLayer
62
256
370
-1
100
AcDbLine
10
302.568524159
20
-7.40257035274
11
303.568524159
21
-7.40257035274
0
LINE
5
2B0
100
AcDbEntity
8
help4
6
ByLayer
62
256
370
-1
100
AcDbLine
10
383.524524159
20
-7.40257035274
11
383.524524159
21
-6.40257035274
0
LINE
5
2B1
100
AcDbEntity
8
help4
6
ByLayer
62
256
370
-1
100
AcDbLine
10
302.568524159
20
-7.40257035274
11
302.568524159
21
-6.40257035274
0
LINE
5
2B2
100
AcDbEntity
8
help4
6
ByLayer
62
256
370
-1
100
AcDbLine
10
302.568524159
20
-7.40257035274
11
303.568524159
21
-7.40257035274
0
LINE
5
2B3
100
AcDbEntity
8
help4
6
ByLayer
62
256
370
-1
100
AcDbLine
10
0
20
-12.835
11
1
21
-12.835
0
LINE
5
2B4
100
AcDbEntity
8
help4
6
ByLayer
62
256
370
-1
100
AcDbLine
10
336.389994605
20
-8.835
11
336.389994605
21
-7.835
0
LINE
5
2B5
100
AcDbEntity
8
help4
6
ByLayer
62
256
370
-1
100
AcDbLine
10
336.389994605
20
-8.835
11
337.389994605
21
-8.835
0
DIMENSION
5
2B6
100
AcDbEntity
8
quote4
6
ByLayer
62
256
370
-1
100
AcDbDimension
2
*D41
10
-1.25162910984e-15
20
-20.4406545742
30
0
11
151.28426208
21
-18.5656545742
31
0
70
32
71
5
72
0
3
Standard
53
0
210
0
220
0
230
1
100
AcDbAlignedDimension
13
302.568524159
23
-7.40257035274
33
0
14
0
24
0
34
0
100
AcDbRotatedDimension
0
DIMENSION
5
2B7
100
AcDbEntity
8
quote4
6
ByLayer
62
256
370
-1
100
AcDbDimension
2
*D42
10
336.38998921
20
8.52471924292
30
0
11
319.479256685
21
10.3997192429
31
0
70
32
71
5
72
0
3
Standard
53
0
210
0
220
0
230
1
100
AcDbAlignedDimension
13
302.568524159
23
-7.40257035274
33
0
14
336.38998921
24
-8.835
34
0
100
AcDbRotatedDimension
0
ARC
5
2B8
100
AcDbEntity
8
0
6
ByLayer
62
256
370
-1
100
AcDbCircle
10
383.524524159
20
387.165
40
400
100
AcDbArc
50
265.14964
51
270
0
LINE
5
2B9
100
AcDbEntity
8
help4
6
ByLayer
62
256
370
-1
100
AcDbLine
10
349.703053714
20
-11.4025703527
11
349.703053714
21
-10.4025703527
0
DIMENSION
5
2BA
100
AcDbEntity
8
quote4
6
ByLayer
62
256
370
-1
100
AcDbDimension
2
*D43
10
349.703053714
20
-20.6933753944
30
0
11
366.613788936
21
-18.8183753944
31
0
70
32
71
5
72
0
3
Standard
53
0
210
0
220
0
230
1
100
AcDbAlignedDimension
13
383.524524159
23
-12.835
33
0
14
349.703053714
24
-11.4025703527
34
0
100
AcDbRotatedDimension
0
DIMENSION
5
2BB
100
AcDbEntity
8
quote4
6
ByLayer
62
256
370
-1
100
AcDbDimension
2
*D44
10
302.568524159
20
-20.5762366184
30
0
11
326.135788936
21
-18.7012366184
31
0
70
32
71
5
72
0
3
Standard
53
0
210
0
220
0
230
1
100
AcDbAlignedDimension
13
349.703053714
23
-11.4025703527
33
0
14
302.568524159
24
-7.40257035274
34
0
100
AcDbRotatedDimension
0
DIMENSION
5
2BC
100
AcDbEntity
8
quote4
6
ByLayer
62
256
370
-1
100
AcDbDimension
2
*D45
10
-1.63849628924e-15
20
-26.7586750789
30
0
11
174.851526857
21
-24.8836750789
31
0
70
32
71
5
72
0
3
Standard
53
0
210
0
220
0
230
1
100
AcDbAlignedDimension
13
349.703053714
23
-11.4025703527
33
0
14
0
24
0
34
0
100
AcDbRotatedDimension
0
DIMENSION
5
2BD
100
AcDbEntity
8
quote4
6
ByLayer
62
256
370
-1
100
AcDbDimension
2
*D46
10
-2.07087725446e-15
20
-33.8199921137
30
0
11
191.762264777
21
-31.9449921137
31
0
70
32
71
5
72
0
3
Standard
53
0
210
0
220
0
230
1
100
AcDbAlignedDimension
13
383.524529554
23
-12.835
33
0
14
0
24
0
34
0
100
AcDbRotatedDimension
0
LINE
5
2BE
100
AcDbEntity
8
0
6
ByLayer
62
256
370
-1
100
AcDbLine
10
349.703053714
20
-11.4025703527
11
302.568524159
21
-7.40257035274
0
LINE
5
2BF
100
AcDbEntity
8
0
6
ByLayer
62
256
370
-1
100
AcDbLine
10
383.524524159
20
-8.835
11
336.389994605
21
-8.835
0
LINE
5
2C0
100
AcDbEntity
8
0
6
ByLayer
62
256
370
-1
100
AcDbLine
10
336.389994605
20
-8.835
11
383.524524159
21
-8.835
0
LINE
5
2C1
100
AcDbEntity
8
0
6
ByLayer
62
256
370
-1
100
AcDbLine
10
383.524524159
20
-8.835
11
336.38998921
21
-8.835
0
DIMENSION
5
2C2
100
AcDbEntity
8
quote4
6
ByLayer
62
256
370
-1
100
AcDbDimension
2
*D47
10
383.524524159
20
8.52471924292
30
0
11
359.957259382
21
10.3997192429
31
0
70
32
71
5
72
0
3
Standard
53
0
210
0
220
0
230
1
100
AcDbAlignedDimension
13
336.389994605
23
-8.835
33
0
14
383.524524159
24
-8.835
34
0
100
AcDbRotatedDimension
0
DIMENSION
5
2C3
100
AcDbEntity
8
quote4
6
ByLayer
62
256
370
-1
100
AcDbDimension
2
*D48
10
349.247180926
20
-16.7744076987
30
0
11
325.83846527
21
-12.9061231442
31
0
70
33
71
5
72
0
3
Standard
53
0
210
0
220
0
230
1
100
AcDbAlignedDimension
13
302.568524159
23
-7.40257035274
33
0
14
349.703053714
24
-11.4025703527
34
0
0
LINE
5
2C4
100
AcDbEntity
8
0
6
ByLayer
62
256
370
-1
100
AcDbLine
10
232.274002697
20
0
11
383.448007629
21
0
0
LINE
5
2C5
100
AcDbEntity
8
0
6
ByLayer
62
256
370
-1
100
AcDbLine
10
232.274003815
20
16.835
11
383.448007629
21
16.835
0
LINE
5
2C6
100
AcDbEntity
8
0
6
ByLayer
62
256
370
-1
100
AcDbLine
10
336.38999842
20
25.67
11
383.448007629
21
25.67
0
LINE
5
2C7
100
AcDbEntity
8
0
6
ByLayer
62
256
370
-1
100
AcDbLine
10
185.135994605
20
12.835
11
383.448007629
21
12.835
0
LINE
5
2C8
100
AcDbEntity
8
0
6
ByLayer
62
256
370
-1
100
AcDbLine
10
383.448007629
20
4
11
185.136002697
21
4
0
DIMENSION
5
2C9
100
AcDbEntity
8
quote4
6
ByLayer
62
256
370
-1
100
AcDbDimension
2
*D49
10
391.961719522
20
-8.835
30
0
11
390.086719522
21
-8.11878517637
31
0
70
32
71
5
72
0
3
Standard
53
0
210
0
220
0
230
1
100
AcDbAlignedDimension
13
302.568524159
23
-7.40257035274
33
0
14
336.38998921
24
-8.835
34
0
50
90
100
AcDbRotatedDimension
0
DIMENSION
5
2CA
100
AcDbEntity
8
quote4
6
ByLayer
62
256
370
-1
100
AcDbDimension
2
*D50
10
398.664584481
20
-11.4025703527
30
0
11
396.789584481
21
-9.40257035274
31
0
70
32
71
5
72
0
3
Standard
53
0
210
0
220
0
230
1
100
AcDbAlignedDimension
13
302.568524159
23
-7.40257035274
33
0
14
349.703053714
24
-11.4025703527
34
0
50
90
100
AcDbRotatedDimension
0
DIMENSION
5
2CB
100
AcDbEntity
8
quote4
6
ByLayer
62
256
370
-1
100
AcDbDimension
2
*D51
10
405.6792106
20
-12.835
30
0
11
403.8042106
21
-12.1187851764
31
0
70
32
71
5
72
0
3
Standard
53
0
210
0
220
0
230
1
100
AcDbAlignedDimension
13
349.703053714
23
-11.4025703527
33
0
14
383.524524159
24
-12.835
34
0
50
90
100
AcDbRotatedDimension
0
DIMENSION
5
2CC
100
AcDbEntity
8
quote4
6
ByLayer
62
256
370
-1
100
AcDbDimension
2
*D52
10
412.070314399
20
-12.835
30
0
11
410.195314399
21
-10.1187851764
31
0
70
32
71
5
72
0
3
Standard
53
0
210
0
220
0
230
1
100
AcDbAlignedDimension
13
302.568524159
23
-7.40257035274
33
0
14
383.524524159
24
-12.835
34
0
50
90
100
AcDbRotatedDimension
0
LINE
5
2CD
100
AcDbEntity
8
help4
6
ByLayer
62
256
370
-1
100
AcDbLine
10
302.568524159
20
24.2375703527
11
303.568524159
21
24.2375703527
0
LINE
5
2CE
100
AcDbEntity
8
help4
6
ByLayer
62
256
370
-1
100
AcDbLine
10
383.448007629
20
25.67
11
384.448007629
21
25.67
0
LINE
5
2CF
100
AcDbEntity
8
help4
6
ByLayer
62
256
370
-1
100
AcDbLine
10
0
20
29.67
11
1
21
29.67
0
ARC
5
2D0
100
AcDbEntity
8
0
6
ByLayer
62
256
370
-1
100
AcDbCircle
10
383.524524159
20
-370.33
40
400
100
AcDbArc
50
90
51
94.85036
0
LINE
5
2D1
100
AcDbEntity
8
0
6
ByLayer
62
256
370
-1
100
AcDbLine
10
349.703053714
20
28.2375703527
11
302.568524159
21
24.2375703527
0
MTEXT
5
2D2
100
AcDbEntity
8
quote1
6
ByLayer
62
256
370
-1
100
AcDbMText
10
1.21288919519
20
54.1757173852
30
0
40
4
41
23.5555555556
71
1
72
1
1
Downville\P\PQuote 1
7
standard
210
0
220
0
230
1
50
0
73
2
44
1
0
DIMENSION
5
2D3
100
AcDbEntity
8
quote2
6
ByLayer
62
256
370
-1
100
AcDbDimension
2
*D53
10
114.088019259
20
32.5636915597
30
0
11
96.3407168078
21
32.9394419091
31
0
70
33
71
5
72
0
3
Standard
53
0
210
0
220
0
230
1
100
AcDbAlignedDimension
13
80.9594704458
23
5.43242964726
33
0
14
116.137
24
8.4175
34
0
0
DIMENSION
5
2D4
100
AcDbEntity
8
quote2
6
ByLayer
62
256
370
-1
100
AcDbDimension
2
*D54
10
148.802718157
20
41.0029848189
30
0
11
113.466650928
21
39.8861999919
31
0
70
33
71
5
72
0
3
Standard
53
0
210
0
220
0
230
1
100
AcDbAlignedDimension
13
80.9594704458
23
5.43242964726
33
0
14
151.314529554
24
11.4025703527
34
0
0
MTEXT
5
2D5
100
AcDbEntity
8
quote12
6
ByLayer
62
256
370
-1
100
AcDbMText
10
5.25585317916
20
54.1757173852
30
0
40
4
41
24.3333333333
71
1
72
1
1
Downville\P\PQuote 1.2
7
standard
210
0
220
0
230
1
50
0
73
2
44
1
0
MTEXT
5
2D6
100
AcDbEntity
8
quote2
6
ByLayer
62
256
370
-1
100
AcDbMText
10
5.25585317916
20
61.4530525563
30
0
40
4
41
23.5555555556
71
1
72
1
1
Downville\P\PQuote 2
7
standard
210
0
220
0
230
1
50
0
73
2
44
1
0
MTEXT
5
2D7
100
AcDbEntity
8
quote3
6
ByLayer
62
256
370
-1
100
AcDbMText
10
17.7890415295
20
50.5370497996
30
0
40
4
41
23.5555555556
71
1
72
1
1
Downville\P\PQuote 3
7
standard
210
0
220
0
230
1
50
0
73
2
44
1
0
MTEXT
5
2D8
100
AcDbEntity
8
quote4
6
ByLayer
62
256
370
-1
100
AcDbMText
10
23.449191107
20
50.1327534012
30
0
40
4
41
23.5555555556
71
1
72
1
1
Downville\P\PQuote 4
7
standard
210
0
220
0
230
1
50
0
73
2
44
1
0
ENDSEC
0
SECTION
2
OBJECTS
0
DICTIONARY
5
C
330
0
100
AcDbDictionary
281
1
3
ACAD_GROUP
350
D
0
DICTIONARY
5
D
330
C
100
AcDbDictionary
281
1
0
ENDSEC
0
EOF
