999
dxfrw 0.5.10
0
SECTION
2
HEADER
9
$ACADVER
1
AC1021
9
$HANDSEED
5
20000
9
$DWGCODEPAGE
3
ANSI_1252
9
$INSBASE
10
0
20
0
30
0
9
$EXTMIN
10
-22.375
20
-387.150223898
30
0
9
$EXTMAX
10
398.818000001
20
425.70023992
30
0
9
$LIMMIN
10
0
20
0
9
$LIMMAX
10
420
20
297
9
$ORTHOMODE
70
0
9
$LTSCALE
40
1
9
$TEXTSTYLE
7
STANDARD
9
$CLAYER
8
0
9
$DIMASZ
40
2.5
9
$DIMLFAC
40
1
9
$DIMSCALE
40
1
9
$DIMEXO
40
0.625
9
$DIMEXE
40
1.25
9
$DIMTXT
40
2.5
9
$DIMTSZ
40
0
9
$DIMAUNIT
70
0
9
$DIMADEC
70
0
9
$DIMLUNIT
70
2
9
$DIMSTYLE
2
STANDARD
9
$DIMGAP
40
0.625
9
$DIMTIH
70
0
9
$LUNITS
70
2
9
$LUPREC
70
4
9
$AUNITS
70
0
9
$AUPREC
70
2
9
$SPLINESEGS
70
8
9
$GRIDMODE
70
1
9
$SNAPSTYLE
70
0
9
$PINSBASE
10
0
20
0
30
0
9
$PLIMMIN
10
0
20
0
9
$PLIMMAX
10
210
20
297
9
$INSUNITS
70
0
9
$PSVPSCALE
40
1
0
ENDSEC
0
SECTION
2
CLASSES
0
ENDSEC
0
SECTION
2
TABLES
0
TABLE
2
VPORT
5
8
330
0
100
AcDbSymbolTable
70
1
0
VPORT
5
31
330
2
100
AcDbSymbolTableRecord
100
AcDbViewportTableRecord
2
*ACTIVE
70
0
10
0
20
0
11
1
21
1
12
235.9375
22
99.4140625002
13
0
23
0
14
10
24
10
15
10
25
10
16
0
26
0
36
1
17
0
27
0
37
0
40
317.578125001
41
1.55965559656
42
50
43
0
44
0
50
0
51
0
71
0
72
100
73
1
74
3
75
0
76
1
77
0
78
0
281
0
65
1
110
0
120
0
130
0
111
1
121
0
131
0
112
0
122
1
132
0
79
0
146
0
348
10020
60
7
61
5
292
1
282
1
141
0
142
0
63
250
421
3358443
0
ENDTAB
0
TABLE
2
LTYPE
5
5
330
0
100
AcDbSymbolTable
70
4
0
LTYPE
5
14
330
5
100
AcDbSymbolTableRecord
100
AcDbLinetypeTableRecord
2
ByBlock
70
0
3

72
65
73
0
40
0
0
LTYPE
5
15
330
5
100
AcDbSymbolTableRecord
100
AcDbLinetypeTableRecord
2
ByLayer
70
0
3

72
65
73
0
40
0
0
LTYPE
5
16
330
5
100
AcDbSymbolTableRecord
100
AcDbLinetypeTableRecord
2
Continuous
70
0
3
Solid line
72
65
73
0
40
0
0
LTYPE
5
32
330
5
100
AcDbSymbolTableRecord
100
AcDbLinetypeTableRecord
2
DOT
70
0
3
Dot . . . . . . . . . . . . . . . . . . . . . .
72
65
73
2
40
6.35
49
0
74
0
49
-6.35
74
0
0
LTYPE
5
33
330
5
100
AcDbSymbolTableRecord
100
AcDbLinetypeTableRecord
2
DOT2
70
0
3
Dot (.5x) .....................................
72
65
73
2
40
3.175
49
0
74
0
49
-3.175
74
0
0
LTYPE
5
34
330
5
100
AcDbSymbolTableRecord
100
AcDbLinetypeTableRecord
2
DOTX2
70
0
3
Dot (2x) .  .  .  .  .  .  .  .  .  .  .  .  .
72
65
73
2
40
12.7
49
0
74
0
49
-12.7
74
0
0
LTYPE
5
35
330
5
100
AcDbSymbolTableRecord
100
AcDbLinetypeTableRecord
2
DASHED
70
0
3
Dot . . . . . . . . . . . . . . . . . . . . . .
72
65
73
2
40
19.05
49
12.7
74
0
49
-6.35
74
0
0
LTYPE
5
36
330
5
100
AcDbSymbolTableRecord
100
AcDbLinetypeTableRecord
2
DASHED2
70
0
3
Dashed (.5x) _ _ _ _ _ _ _ _ _ _ _ _ _ _ _ _ _
72
65
73
2
40
9.525
49
6.35
74
0
49
-3.175
74
0
0
LTYPE
5
37
330
5
100
AcDbSymbolTableRecord
100
AcDbLinetypeTableRecord
2
DASHEDX2
70
0
3
Dashed (2x) ____  ____  ____  ____  ____  ___
72
65
73
2
40
38.1
49
25.4
74
0
49
-12.7
74
0
0
LTYPE
5
38
330
5
100
AcDbSymbolTableRecord
100
AcDbLinetypeTableRecord
2
DASHDOT
70
0
3
Dash dot __ . __ . __ . __ . __ . __ . __ . __
72
65
73
4
40
25.4
49
12.7
74
0
49
-6.35
74
0
49
0
74
0
49
-6.35
74
0
0
LTYPE
5
39
330
5
100
AcDbSymbolTableRecord
100
AcDbLinetypeTableRecord
2
DASHDOT2
70
0
3
Dash dot (.5x) _._._._._._._._._._._._._._._.
72
65
73
4
40
12.7
49
6.35
74
0
49
-3.175
74
0
49
0
74
0
49
-3.175
74
0
0
LTYPE
5
3A
330
5
100
AcDbSymbolTableRecord
100
AcDbLinetypeTableRecord
2
DASHDOTX2
70
0
3
Dash dot (2x) ____  .  ____  .  ____  .  ___
72
65
73
4
40
50.8
49
25.4
74
0
49
-12.7
74
0
49
0
74
0
49
-12.7
74
0
0
LTYPE
5
3B
330
5
100
AcDbSymbolTableRecord
100
AcDbLinetypeTableRecord
2
DIVIDE
70
0
3
Divide ____ . . ____ . . ____ . . ____ . . ____
72
65
73
6
40
31.75
49
12.7
74
0
49
-6.35
74
0
49
0
74
0
49
-6.35
74
0
49
0
74
0
49
-6.35
74
0
0
LTYPE
5
3C
330
5
100
AcDbSymbolTableRecord
100
AcDbLinetypeTableRecord
2
DIVIDE2
70
0
3
Divide (.5x) __..__..__..__..__..__..__..__.._
72
65
73
6
40
15.875
49
6.35
74
0
49
-3.175
74
0
49
0
74
0
49
-3.175
74
0
49
0
74
0
49
-3.175
74
0
0
LTYPE
5
3D
330
5
100
AcDbSymbolTableRecord
100
AcDbLinetypeTableRecord
2
DIVIDEX2
70
0
3
Divide (2x) ________  .  .  ________  .  .  _
72
65
73
6
40
63.5
49
25.4
74
0
49
-12.7
74
0
49
0
74
0
49
-12.7
74
0
49
0
74
0
49
-12.7
74
0
0
LTYPE
5
3E
330
5
100
AcDbSymbolTableRecord
100
AcDbLinetypeTableRecord
2
BORDER
70
0
3
Border __ __ . __ __ . __ __ . __ __ . __ __ .
72
65
73
6
40
44.45
49
12.7
74
0
49
-6.35
74
0
49
12.7
74
0
49
-6.35
74
0
49
0
74
0
49
-6.35
74
0
0
LTYPE
5
3F
330
5
100
AcDbSymbolTableRecord
100
AcDbLinetypeTableRecord
2
BORDER2
70
0
3
Border (.5x) __.__.__.__.__.__.__.__.__.__.__.
72
65
73
6
40
22.225
49
6.35
74
0
49
-3.175
74
0
49
6.35
74
0
49
-3.175
74
0
49
0
74
0
49
-3.175
74
0
0
LTYPE
5
40
330
5
100
AcDbSymbolTableRecord
100
AcDbLinetypeTableRecord
2
BORDERX2
70
0
3
Border (2x) ____  ____  .  ____  ____  .  ___
72
65
73
6
40
88.9
49
25.4
74
0
49
-12.7
74
0
49
25.4
74
0
49
-12.7
74
0
49
0
74
0
49
-12.7
74
0
0
LTYPE
5
41
330
5
100
AcDbSymbolTableRecord
100
AcDbLinetypeTableRecord
2
CENTER
70
0
3
Center ____ _ ____ _ ____ _ ____ _ ____ _ ____
72
65
73
4
40
50.8
49
31.75
74
0
49
-6.35
74
0
49
6.35
74
0
49
-6.35
74
0
0
LTYPE
5
42
330
5
100
AcDbSymbolTableRecord
100
AcDbLinetypeTableRecord
2
CENTER2
70
0
3
Center (.5x) ___ _ ___ _ ___ _ ___ _ ___ _ ___
72
65
73
4
40
28.575
49
19.05
74
0
49
-3.175
74
0
49
3.175
74
0
49
-3.175
74
0
0
LTYPE
5
43
330
5
100
AcDbSymbolTableRecord
100
AcDbLinetypeTableRecord
2
CENTERX2
70
0
3
Center (2x) ________  __  ________  __  _____
72
65
73
4
40
101.6
49
63.5
74
0
49
-12.7
74
0
49
12.7
74
0
49
-12.7
74
0
0
ENDTAB
0
TABLE
2
LAYER
5
2
330
0
100
AcDbSymbolTable
70
1
0
LAYER
5
10
330
2
100
AcDbSymbolTableRecord
100
AcDbLayerTableRecord
2
0
70
0
62
7
6
CONTINUOUS
370
0
390
F
0
ENDTAB
0
TABLE
2
STYLE
5
3
330
0
100
AcDbSymbolTable
70
3
0
STYLE
5
44
330
2
100
AcDbSymbolTableRecord
100
AcDbTextStyleTableRecord
2
Standard
70
0
40
0
41
1
50
0
71
0
42
1
3
txt
4

0
ENDTAB
0
TABLE
2
VIEW
5
6
330
0
100
AcDbSymbolTable
70
0
0
ENDTAB
0
TABLE
2
UCS
5
7
330
0
100
AcDbSymbolTable
70
0
0
ENDTAB
0
TABLE
2
APPID
5
9
330
0
100
AcDbSymbolTable
70
1
0
APPID
5
12
330
9
100
AcDbSymbolTableRecord
100
AcDbRegAppTableRecord
2
ACAD
70
0
0
ENDTAB
0
TABLE
2
DIMSTYLE
5
A
330
0
100
AcDbSymbolTable
70
1
100
AcDbDimStyleTable
71
1
0
DIMSTYLE
105
45
330
A
100
AcDbSymbolTableRecord
100
AcDbDimStyleTableRecord
2
Standard
70
0
40
1
41
2.5
42
0.625
43
0.38
44
1.25
45
0
46
0
47
0
48
0
140
2.5
141
0.09
142
0
143
25.4
144
1
145
0
146
1
147
0.625
148
0
71
0
72
0
73
0
74
1
75
0
76
0
77
0
78
0
79
0
170
0
171
2
172
0
173
0
174
0
175
0
176
0
177
0
178
0
179
0
271
4
272
4
273
2
274
2
275
0
276
0
277
2
278
46
279
0
280
0
281
0
282
0
283
1
284
0
285
0
286
0
288
0
289
3
340
Standard
341

371
-2
372
-2
0
ENDTAB
0
TABLE
2
BLOCK_RECORD
5
1
330
0
100
AcDbSymbolTable
70
2
0
BLOCK_RECORD
5
1F
330
1
100
AcDbSymbolTableRecord
100
AcDbBlockTableRecord
2
*Model_Space
70
0
280
1
281
0
0
BLOCK_RECORD
5
1E
330
1
100
AcDbSymbolTableRecord
100
AcDbBlockTableRecord
2
*Paper_Space
70
0
280
1
281
0
0
BLOCK_RECORD
5
46
330
1
100
AcDbSymbolTableRecord
100
AcDbBlockTableRecord
2
*D12
70
0
280
1
281
0
0
BLOCK_RECORD
5
49
330
1
100
AcDbSymbolTableRecord
100
AcDbBlockTableRecord
2
*D1
70
0
280
1
281
0
0
BLOCK_RECORD
5
4C
330
1
100
AcDbSymbolTableRecord
100
AcDbBlockTableRecord
2
*D5
70
0
280
1
281
0
0
BLOCK_RECORD
5
4F
330
1
100
AcDbSymbolTableRecord
100
AcDbBlockTableRecord
2
*D2
70
0
280
1
281
0
0
BLOCK_RECORD
5
52
330
1
100
AcDbSymbolTableRecord
100
AcDbBlockTableRecord
2
*D4
70
0
280
1
281
0
0
BLOCK_RECORD
5
55
330
1
100
AcDbSymbolTableRecord
100
AcDbBlockTableRecord
2
*D6
70
0
280
1
281
0
0
BLOCK_RECORD
5
58
330
1
100
AcDbSymbolTableRecord
100
AcDbBlockTableRecord
2
*D7
70
0
280
1
281
0
0
BLOCK_RECORD
5
5B
330
1
100
AcDbSymbolTableRecord
100
AcDbBlockTableRecord
2
*D13
70
0
280
1
281
0
0
BLOCK_RECORD
5
5E
330
1
100
AcDbSymbolTableRecord
100
AcDbBlockTableRecord
2
*D9
70
0
280
1
281
0
0
BLOCK_RECORD
5
61
330
1
100
AcDbSymbolTableRecord
100
AcDbBlockTableRecord
2
*D15
70
0
280
1
281
0
0
BLOCK_RECORD
5
64
330
1
100
AcDbSymbolTableRecord
100
AcDbBlockTableRecord
2
*D3
70
0
280
1
281
0
0
BLOCK_RECORD
5
67
330
1
100
AcDbSymbolTableRecord
100
AcDbBlockTableRecord
2
*D10
70
0
280
1
281
0
0
BLOCK_RECORD
5
6A
330
1
100
AcDbSymbolTableRecord
100
AcDbBlockTableRecord
2
*D8
70
0
280
1
281
0
0
BLOCK_RECORD
5
6D
330
1
100
AcDbSymbolTableRecord
100
AcDbBlockTableRecord
2
*D14
70
0
280
1
281
0
0
BLOCK_RECORD
5
70
330
1
100
AcDbSymbolTableRecord
100
AcDbBlockTableRecord
2
*D11
70
0
280
1
281
0
0
ENDTAB
0
ENDSEC
0
SECTION
2
BLOCKS
0
BLOCK
5
20
330
1F
100
AcDbEntity
8
0
100
AcDbBlockBegin
2
*Model_Space
70
0
10
0
20
0
30
0
3
*Model_Space
1

0
ENDBLK
5
21
330
1F
100
AcDbEntity
8
0
100
AcDbBlockEnd
0
BLOCK
5
1C
330
1B
100
AcDbEntity
8
0
100
AcDbBlockBegin
2
*Paper_Space
70
0
10
0
20
0
30
0
3
*Paper_Space
1

0
ENDBLK
5
1D
330
1F
100
AcDbEntity
8
0
100
AcDbBlockEnd
0
BLOCK
5
47
330
46
100
AcDbEntity
8
0
100
AcDbBlockBegin
2
*D12
70
1
10
0
20
0
3
*D12
1

0
LINE
5
73
100
AcDbEntity
8
0
6
CONTINUOUS
62
7
370
0
100
AcDbLine
10
383.881877502
20
52.4800000001
11
319.807013948
21
52.4800000001
0
SOLID
5
74
100
AcDbEntity
8
0
6
CONTINUOUS
62
7
370
0
100
AcDbTrace
10
383.881877502
20
52.4800000001
30
0
11
381.381877502
21
52.0637153423
31
0
12
381.381877502
22
52.8962846579
32
0
13
381.381877502
23
52.8962846579
33
0
0
SOLID
5
75
100
AcDbEntity
8
0
6
CONTINUOUS
62
7
370
0
100
AcDbTrace
10
319.807013948
20
52.4800000001
30
0
11
322.307013948
21
52.8962846579
31
0
12
322.307013948
22
52.0637153423
32
0
13
322.307013948
23
52.0637153423
33
0
0
MTEXT
5
76
100
AcDbEntity
8
0
6
CONTINUOUS
62
7
370
0
100
AcDbMText
10
351.844445725
20
54.3550000001
30
0
40
2.5
41
12.2222222222
71
5
72
1
1
64.0749
7
standard
210
0
220
0
230
1
50
360
73
2
44
1
0
LINE
5
77
100
AcDbEntity
8
0
6
CONTINUOUS
62
7
370
0
100
AcDbLine
10
383.881877502
20
30.3247232688
11
383.881877502
21
53.7300000001
0
LINE
5
78
100
AcDbEntity
8
0
6
CONTINUOUS
62
7
370
0
100
AcDbLine
10
319.807013948
20
26.3252399196
11
319.807013948
21
53.7300000001
0
ENDBLK
5
48
330
46
100
AcDbEntity
8
0
100
AcDbBlockEnd
0
BLOCK
5
4A
330
49
100
AcDbEntity
8
0
100
AcDbBlockBegin
2
*D1
70
1
10
0
20
0
3
*D1
1

0
LINE
5
79
100
AcDbEntity
8
0
6
CONTINUOUS
62
7
370
0
100
AcDbLine
10
-7.1054273576e-14
20
-6.24640000001
11
33.8189661712
21
-6.24640000001
0
SOLID
5
7A
100
AcDbEntity
8
0
6
CONTINUOUS
62
7
370
0
100
AcDbTrace
10
-7.1054273576e-14
20
-6.24640000001
30
0
11
2.5
21
-5.83011534224
31
0
12
2.5
22
-6.66268465778
32
0
13
2.5
23
-6.66268465778
33
0
0
SOLID
5
7B
100
AcDbEntity
8
0
6
CONTINUOUS
62
7
370
0
100
AcDbTrace
10
33.8189661712
20
-6.24640000001
30
0
11
31.3189661712
21
-6.66268465778
31
0
12
31.3189661712
22
-5.83011534224
32
0
13
31.3189661712
23
-5.83011534224
33
0
0
MTEXT
5
7C
100
AcDbEntity
8
0
6
CONTINUOUS
62
7
370
0
100
AcDbMText
10
16.9094830856
20
-4.37140000001
30
0
40
2.5
41
9.16666666667
71
5
72
1
1
33.819
7
standard
210
0
220
0
230
1
50
0
73
2
44
1
0
LINE
5
7D
100
AcDbEntity
8
0
6
CONTINUOUS
62
7
370
0
100
AcDbLine
10
-7.35936185863e-14
20
-0.625
11
-7.12838948509e-14
21
-7.49640000001
0
LINE
5
7E
100
AcDbEntity
8
0
6
CONTINUOUS
62
7
370
0
100
AcDbLine
10
33.8189661712
20
0.807217148565
11
33.8189661712
21
-7.49640000001
0
ENDBLK
5
4B
330
49
100
AcDbEntity
8
0
100
AcDbBlockEnd
0
BLOCK
5
4D
330
4C
100
AcDbEntity
8
0
100
AcDbBlockBegin
2
*D5
70
1
10
0
20
0
3
*D5
1

0
LINE
5
7F
100
AcDbEntity
8
0
6
CONTINUOUS
62
7
370
0
100
AcDbLine
10
-10.8544
20
-5
11
-10.8544
21
9.00002277132
0
SOLID
5
80
100
AcDbEntity
8
0
6
CONTINUOUS
62
7
370
0
100
AcDbTrace
10
-10.8544
20
0
30
0
11
-10.4381153422
21
-2.5
31
0
12
-11.2706846578
22
-2.5
32
0
13
-11.2706846578
23
-2.5
33
0
0
SOLID
5
81
100
AcDbEntity
8
0
6
CONTINUOUS
62
7
370
0
100
AcDbTrace
10
-10.8544
20
4.00002277132
30
0
11
-11.2706846578
21
6.50002277132
31
0
12
-10.4381153422
22
6.50002277132
32
0
13
-10.4381153422
23
6.50002277132
33
0
0
MTEXT
5
82
100
AcDbEntity
8
0
6
CONTINUOUS
62
7
370
0
100
AcDbMText
10
-12.7294
20
2.00001138566
30
0
40
2.5
41
1.38888888889
71
5
72
1
1
4
7
standard
210
0
220
0
230
1
50
90
73
2
44
1
0
LINE
5
83
100
AcDbEntity
8
0
6
CONTINUOUS
62
7
370
0
100
AcDbLine
10
-0.625
20
7.65404249467e-17
11
-12.1044
21
1.53080849893e-16
0
LINE
5
84
100
AcDbEntity
8
0
6
CONTINUOUS
62
7
370
0
100
AcDbLine
10
-0.623399063789
20
4.00002277132
11
-12.1044
21
4.00002277132
0
ENDBLK
5
4E
330
4C
100
AcDbEntity
8
0
100
AcDbBlockEnd
0
BLOCK
5
50
330
4F
100
AcDbEntity
8
0
100
AcDbBlockBegin
2
*D2
70
1
10
0
20
0
3
*D2
1

0
LINE
5
85
100
AcDbEntity
8
0
6
CONTINUOUS
62
7
370
0
100
AcDbLine
10
33.8718083059
20
0.80945498786
11
34.714763078
21
-9.12504782663
0
LINE
5
86
100
AcDbEntity
8
0
6
CONTINUOUS
62
7
370
0
100
AcDbLine
10
81.0134092421
20
4.80947775886
11
81.8563640142
21
-5.12502505563
0
LINE
5
87
100
AcDbEntity
8
0
6
CONTINUOUS
62
7
370
0
100
AcDbLine
10
34.6090788088
20
-7.87952350522
11
81.750679745
21
-3.87950073422
0
SOLID
5
88
100
AcDbEntity
8
0
6
CONTINUOUS
62
7
370
0
100
AcDbTrace
10
34.6090788088
20
-7.87952350522
30
0
11
37.0649316597
21
-7.25336083396
31
0
12
37.1353232435
22
-8.08294909937
32
0
13
37.1353232435
23
-8.08294909937
33
0
0
SOLID
5
89
100
AcDbEntity
8
0
6
CONTINUOUS
62
7
370
0
100
AcDbTrace
10
81.750679745
20
-3.87950073422
30
0
11
79.294826894
21
-4.50566340548
31
0
12
79.2244353102
22
-3.67607514006
32
0
13
79.2244353102
23
-3.67607514006
33
0
0
MTEXT
5
8A
100
AcDbEntity
8
0
6
CONTINUOUS
62
7
370
0
100
AcDbMText
10
58.021352873
20
-4.0112256376
30
0
40
2.5
41
8.88888888889
71
5
72
1
1
47.311
7
standard
210
0
220
0
230
1
50
4.84999999962
73
2
44
1
0
ENDBLK
5
51
330
4F
100
AcDbEntity
8
0
100
AcDbBlockEnd
0
BLOCK
5
53
330
52
100
AcDbEntity
8
0
100
AcDbBlockBegin
2
*D4
70
1
10
0
20
0
3
*D4
1

0
LINE
5
8B
100
AcDbEntity
8
0
6
CONTINUOUS
62
7
370
0
100
AcDbLine
10
47.1416009362
20
10.6496
11
80.9605671074
21
10.6496
0
SOLID
5
8C
100
AcDbEntity
8
0
6
CONTINUOUS
62
7
370
0
100
AcDbTrace
10
47.1416009362
20
10.6496
30
0
11
49.6416009362
21
11.0658846578
31
0
12
49.6416009362
22
10.2333153422
32
0
13
49.6416009362
23
10.2333153422
33
0
0
SOLID
5
8D
100
AcDbEntity
8
0
6
CONTINUOUS
62
7
370
0
100
AcDbTrace
10
80.9605671074
20
10.6496
30
0
11
78.4605671074
21
10.2333153422
31
0
12
78.4605671074
22
11.0658846578
32
0
13
78.4605671074
23
11.0658846578
33
0
0
MTEXT
5
8E
100
AcDbEntity
8
0
6
CONTINUOUS
62
7
370
0
100
AcDbMText
10
64.0510840218
20
12.5246
30
0
40
2.5
41
9.16666666667
71
5
72
1
1
33.819
7
standard
210
0
220
0
230
1
50
0
73
2
44
1
0
LINE
5
8F
100
AcDbEntity
8
0
6
CONTINUOUS
62
7
370
0
100
AcDbLine
10
47.1416009362
20
4.625022771
11
47.1416009362
21
11.8996
0
LINE
5
90
100
AcDbEntity
8
0
6
CONTINUOUS
62
7
370
0
100
AcDbLine
10
80.9605671074
20
6.05723991957
11
80.9605671074
21
11.8996
0
ENDBLK
5
54
330
52
100
AcDbEntity
8
0
100
AcDbBlockEnd
0
BLOCK
5
56
330
55
100
AcDbEntity
8
0
100
AcDbBlockBegin
2
*D6
70
1
10
0
20
0
3
*D6
1

0
LINE
5
91
100
AcDbEntity
8
0
6
CONTINUOUS
62
7
370
0
100
AcDbLine
10
-5.93920000001
20
-5
11
-5.93920000001
21
6.43221714857
0
SOLID
5
92
100
AcDbEntity
8
0
6
CONTINUOUS
62
7
370
0
100
AcDbTrace
10
-5.93920000001
20
4.4408920985e-16
30
0
11
-5.52291534224
21
-2.5
31
0
12
-6.35548465778
22
-2.5
32
0
13
-6.35548465778
23
-2.5
33
0
0
SOLID
5
93
100
AcDbEntity
8
0
6
CONTINUOUS
62
7
370
0
100
AcDbTrace
10
-5.93920000001
20
1.43221714857
30
0
11
-6.35548465778
21
3.93221714857
31
0
12
-5.52291534224
22
3.93221714857
32
0
13
-5.52291534224
23
3.93221714857
33
0
0
MTEXT
5
94
100
AcDbEntity
8
0
6
CONTINUOUS
62
7
370
0
100
AcDbMText
10
-7.81420000001
20
6.77943937079
30
0
40
2.5
41
9.44444444444
71
5
72
1
1
1.4322
7
standard
210
0
220
0
230
1
50
90
73
2
44
1
0
LINE
5
95
100
AcDbEntity
8
0
6
CONTINUOUS
62
7
370
0
100
AcDbLine
10
-0.625
20
7.65404249467e-17
11
-7.18920000001
21
5.97170059743e-16
0
LINE
5
96
100
AcDbEntity
8
0
6
CONTINUOUS
62
7
370
0
100
AcDbLine
10
33.1939661712
20
1.43221714857
11
-7.18920000001
21
1.43221714857
0
ENDBLK
5
57
330
55
100
AcDbEntity
8
0
100
AcDbBlockEnd
0
BLOCK
5
59
330
58
100
AcDbEntity
8
0
100
AcDbBlockBegin
2
*D7
70
1
10
0
20
0
3
*D7
1

0
LINE
5
97
100
AcDbEntity
8
0
6
CONTINUOUS
62
7
370
0
100
AcDbLine
10
-18.5344
20
-5
11
-18.5344
21
10.4322399196
0
SOLID
5
98
100
AcDbEntity
8
0
6
CONTINUOUS
62
7
370
0
100
AcDbTrace
10
-18.5344
20
8.881784197e-16
30
0
11
-18.1181153423
21
-2.5
31
0
12
-18.9506846578
22
-2.5
32
0
13
-18.9506846578
23
-2.5
33
0
0
SOLID
5
99
100
AcDbEntity
8
0
6
CONTINUOUS
62
7
370
0
100
AcDbTrace
10
-18.5344
20
5.43223991957
30
0
11
-18.9506846578
21
7.93223991957
31
0
12
-18.1181153423
22
7.93223991957
32
0
13
-18.1181153423
23
7.93223991957
33
0
0
MTEXT
5
9A
100
AcDbEntity
8
0
6
CONTINUOUS
62
7
370
0
100
AcDbMText
10
-20.4094
20
11.0572399196
30
0
40
2.5
41
10
71
5
72
1
1
5.4322
7
standard
210
0
220
0
230
1
50
90
73
2
44
1
0
LINE
5
9B
100
AcDbEntity
8
0
6
CONTINUOUS
62
7
370
0
100
AcDbLine
10
-0.625
20
7.65404249467e-17
11
-19.7844
21
1.04125926959e-15
0
LINE
5
9C
100
AcDbEntity
8
0
6
CONTINUOUS
62
7
370
0
100
AcDbLine
10
80.3355671074
20
5.43223991957
11
-19.7844
21
5.43223991957
0
ENDBLK
5
5A
330
58
100
AcDbEntity
8
0
100
AcDbBlockEnd
0
BLOCK
5
5C
330
5B
100
AcDbEntity
8
0
100
AcDbBlockBegin
2
*D13
70
1
10
0
20
0
3
*D13
1

0
LINE
5
9D
100
AcDbEntity
8
0
6
CONTINUOUS
62
7
370
0
100
AcDbLine
10
390.272000001
20
34.6997232688
11
390.272000001
21
23.2675061203
0
SOLID
5
9E
100
AcDbEntity
8
0
6
CONTINUOUS
62
7
370
0
100
AcDbTrace
10
390.272000001
20
29.6997232688
30
0
11
389.855715343
21
32.1997232688
31
0
12
390.688284658
22
32.1997232688
32
0
13
390.688284658
23
32.1997232688
33
0
0
SOLID
5
9F
100
AcDbEntity
8
0
6
CONTINUOUS
62
7
370
0
100
AcDbTrace
10
390.272000001
20
28.2675061203
30
0
11
390.688284658
21
25.7675061203
31
0
12
389.855715343
22
25.7675061203
32
0
13
389.855715343
23
25.7675061203
33
0
0
MTEXT
5
A0
100
AcDbEntity
8
0
6
CONTINUOUS
62
7
370
0
100
AcDbMText
10
388.397000001
20
35.046945491
30
0
40
2.5
41
9.44444444444
71
5
72
1
1
1.4322
7
standard
210
0
220
0
230
1
50
90
73
2
44
1
0
LINE
5
A1
100
AcDbEntity
8
0
6
CONTINUOUS
62
7
370
0
100
AcDbLine
10
384.506877502
20
29.6997232688
11
391.522000001
21
29.6997232688
0
LINE
5
A2
100
AcDbEntity
8
0
6
CONTINUOUS
62
7
370
0
100
AcDbLine
10
350.687911331
20
28.2675061203
11
391.522000001
21
28.2675061203
0
ENDBLK
5
5D
330
5B
100
AcDbEntity
8
0
100
AcDbBlockEnd
0
BLOCK
5
5F
330
5E
100
AcDbEntity
8
0
100
AcDbBlockBegin
2
*D9
70
1
10
0
20
0
3
*D9
1

0
LINE
5
A3
100
AcDbEntity
8
0
6
CONTINUOUS
62
7
370
0
100
AcDbLine
10
383.881877502
20
-73.4375000001
11
-7.34788079488e-14
21
-73.4375000001
0
SOLID
5
A4
100
AcDbEntity
8
0
6
CONTINUOUS
62
7
370
0
100
AcDbTrace
10
383.881877502
20
-73.4375000001
30
0
11
381.381877502
21
-73.8537846579
31
0
12
381.381877502
22
-73.0212153423
32
0
13
381.381877502
23
-73.0212153423
33
0
0
SOLID
5
A5
100
AcDbEntity
8
0
6
CONTINUOUS
62
7
370
0
100
AcDbTrace
10
-7.34788079488e-14
20
-73.4375000001
30
0
11
2.5
21
-73.0212153423
31
0
12
2.5
22
-73.8537846579
32
0
13
2.5
23
-73.8537846579
33
0
0
MTEXT
5
A6
100
AcDbEntity
8
0
6
CONTINUOUS
62
7
370
0
100
AcDbMText
10
191.940938751
20
-71.5625000001
30
0
40
2.5
41
13.0555555556
71
5
72
1
1
383.8819
7
standard
210
0
220
0
230
1
50
360
73
2
44
1
0
LINE
5
A7
100
AcDbEntity
8
0
6
CONTINUOUS
62
7
370
0
100
AcDbLine
10
383.881877502
20
29.0747232688
11
383.881877502
21
-74.6875000001
0
LINE
5
A8
100
AcDbEntity
8
0
6
CONTINUOUS
62
7
370
0
100
AcDbLine
10
-7.35936185863e-14
20
-0.625
11
-7.37084292237e-14
21
-74.6875000001
0
ENDBLK
5
60
330
5E
100
AcDbEntity
8
0
100
AcDbBlockEnd
0
BLOCK
5
62
330
61
100
AcDbEntity
8
0
100
AcDbBlockBegin
2
*D15
70
1
10
0
20
0
3
*D15
1

0
LINE
5
A9
100
AcDbEntity
8
0
6
CONTINUOUS
62
7
370
0
100
AcDbLine
10
397.568000001
20
33.2675061203
11
397.568000001
21
22.1324570681
0
SOLID
5
AA
100
AcDbEntity
8
0
6
CONTINUOUS
62
7
370
0
100
AcDbTrace
10
397.568000001
20
28.2675061203
30
0
11
397.151715343
21
30.7675061203
31
0
12
397.984284658
22
30.7675061203
32
0
13
397.984284658
23
30.7675061203
33
0
0
SOLID
5
AB
100
AcDbEntity
8
0
6
CONTINUOUS
62
7
370
0
100
AcDbTrace
10
397.568000001
20
27.1324570681
30
0
11
397.984284658
21
24.6324570681
31
0
12
397.151715343
22
24.6324570681
32
0
13
397.151715343
23
24.6324570681
33
0
0
MTEXT
5
AC
100
AcDbEntity
8
0
6
CONTINUOUS
62
7
370
0
100
AcDbMText
10
395.693000001
20
32.2258394536
30
0
40
2.5
41
6.66666666667
71
5
72
1
1
1.135
7
standard
210
0
220
0
230
1
50
90
73
2
44
1
0
LINE
5
AD
100
AcDbEntity
8
0
6
CONTINUOUS
62
7
370
0
100
AcDbLine
10
350.687911331
20
28.2675061203
11
398.818000001
21
28.2675061203
0
LINE
5
AE
100
AcDbEntity
8
0
6
CONTINUOUS
62
7
370
0
100
AcDbLine
10
337.310980119
20
27.1324570681
11
398.818000001
21
27.1324570681
0
ENDBLK
5
63
330
61
100
AcDbEntity
8
0
100
AcDbBlockEnd
0
BLOCK
5
65
330
64
100
AcDbEntity
8
0
100
AcDbBlockBegin
2
*D3
70
1
10
0
20
0
3
*D3
1

0
LINE
5
AF
100
AcDbEntity
8
0
6
CONTINUOUS
62
7
370
0
100
AcDbLine
10
0.00160093621502
20
4.62502277132
11
0.00160093625538
21
10.5684000003
0
LINE
5
B0
100
AcDbEntity
8
0
6
CONTINUOUS
62
7
370
0
100
AcDbLine
10
47.1416009362
20
4.625022771
11
47.1416009362
21
10.5684
0
LINE
5
B1
100
AcDbEntity
8
0
6
CONTINUOUS
62
7
370
0
100
AcDbLine
10
0.00160093624689
20
9.31840000034
11
47.1416009362
21
9.31840000002
0
SOLID
5
B2
100
AcDbEntity
8
0
6
CONTINUOUS
62
7
370
0
100
AcDbTrace
10
0.00160093624689
20
9.31840000034
30
0
11
2.50160093625
21
9.73468465809
31
0
12
2.50160093624
22
8.90211534255
32
0
13
2.50160093624
23
8.90211534255
33
0
0
SOLID
5
B3
100
AcDbEntity
8
0
6
CONTINUOUS
62
7
370
0
100
AcDbTrace
10
47.1416009362
20
9.31840000002
30
0
11
44.6416009362
21
8.90211534226
31
0
12
44.6416009362
22
9.73468465781
32
0
13
44.6416009362
23
9.73468465781
33
0
0
MTEXT
5
B4
100
AcDbEntity
8
0
6
CONTINUOUS
62
7
370
0
100
AcDbMText
10
23.5716009363
20
11.1934000002
30
0
40
2.5
41
7.77777777778
71
5
72
1
1
47.14
7
standard
210
0
220
0
230
1
50
360
73
2
44
1
0
ENDBLK
5
66
330
64
100
AcDbEntity
8
0
100
AcDbBlockEnd
0
BLOCK
5
68
330
67
100
AcDbEntity
8
0
100
AcDbBlockBegin
2
*D10
70
1
10
0
20
0
3
*D10
1

0
LINE
5
B5
100
AcDbEntity
8
0
6
CONTINUOUS
62
7
370
0
100
AcDbLine
10
383.881877502
20
39.1680000001
11
350.062911331
21
39.1680000001
0
SOLID
5
B6
100
AcDbEntity
8
0
6
CONTINUOUS
62
7
370
0
100
AcDbTrace
10
383.881877502
20
39.1680000001
30
0
11
381.381877502
21
38.7517153423
31
0
12
381.381877502
22
39.5842846578
32
0
13
381.381877502
23
39.5842846578
33
0
0
SOLID
5
B7
100
AcDbEntity
8
0
6
CONTINUOUS
62
7
370
0
100
AcDbTrace
10
350.062911331
20
39.1680000001
30
0
11
352.562911331
21
39.5842846578
31
0
12
352.562911331
22
38.7517153423
32
0
13
352.562911331
23
38.7517153423
33
0
0
MTEXT
5
B8
100
AcDbEntity
8
0
6
CONTINUOUS
62
7
370
0
100
AcDbMText
10
366.972394417
20
41.0430000001
30
0
40
2.5
41
9.16666666667
71
5
72
1
1
33.819
7
standard
210
0
220
0
230
1
50
360
73
2
44
1
0
LINE
5
B9
100
AcDbEntity
8
0
6
CONTINUOUS
62
7
370
0
100
AcDbLine
10
383.881877502
20
30.3247232688
11
383.881877502
21
40.4180000001
0
LINE
5
BA
100
AcDbEntity
8
0
6
CONTINUOUS
62
7
370
0
100
AcDbLine
10
350.062911331
20
28.8925061203
11
350.062911331
21
40.4180000001
0
ENDBLK
5
69
330
67
100
AcDbEntity
8
0
100
AcDbBlockEnd
0
BLOCK
5
6B
330
6A
100
AcDbEntity
8
0
100
AcDbBlockBegin
2
*D8
70
1
10
0
20
0
3
*D8
1

0
LINE
5
BB
100
AcDbEntity
8
0
6
CONTINUOUS
62
7
370
0
100
AcDbLine
10
80.9605671074
20
-12.0832
11
33.8189661712
21
-12.0832
0
SOLID
5
BC
100
AcDbEntity
8
0
6
CONTINUOUS
62
7
370
0
100
AcDbTrace
10
80.9605671074
20
-12.0832
30
0
11
78.4605671074
21
-12.4994846578
31
0
12
78.4605671074
22
-11.6669153422
32
0
13
78.4605671074
23
-11.6669153422
33
0
0
SOLID
5
BD
100
AcDbEntity
8
0
6
CONTINUOUS
62
7
370
0
100
AcDbTrace
10
33.8189661712
20
-12.0832
30
0
11
36.3189661712
21
-11.6669153422
31
0
12
36.3189661712
22
-12.4994846578
32
0
13
36.3189661712
23
-12.4994846578
33
0
0
MTEXT
5
BE
100
AcDbEntity
8
0
6
CONTINUOUS
62
7
370
0
100
AcDbMText
10
57.3897666393
20
-10.2082
30
0
40
2.5
41
11.1111111111
71
5
72
1
1
47.1416
7
standard
210
0
220
0
230
1
50
360
73
2
44
1
0
LINE
5
BF
100
AcDbEntity
8
0
6
CONTINUOUS
62
7
370
0
100
AcDbLine
10
80.9605671074
20
4.80723991957
11
80.9605671074
21
-13.3332
0
LINE
5
C0
100
AcDbEntity
8
0
6
CONTINUOUS
62
7
370
0
100
AcDbLine
10
33.8189661712
20
0.807217148565
11
33.8189661712
21
-13.3332
0
ENDBLK
5
6C
330
6A
100
AcDbEntity
8
0
100
AcDbBlockEnd
0
BLOCK
5
6E
330
6D
100
AcDbEntity
8
0
100
AcDbBlockBegin
2
*D14
70
1
10
0
20
0
3
*D14
1

0
LINE
5
C1
100
AcDbEntity
8
0
6
CONTINUOUS
62
7
370
0
100
AcDbLine
10
336.685980119
20
34.6997232688
11
336.685980119
21
23.2675061203
0
SOLID
5
C2
100
AcDbEntity
8
0
6
CONTINUOUS
62
7
370
0
100
AcDbTrace
10
336.685980119
20
29.6997232688
30
0
11
336.269695462
21
32.1997232688
31
0
12
337.102264777
22
32.1997232688
32
0
13
337.102264777
23
32.1997232688
33
0
0
SOLID
5
C3
100
AcDbEntity
8
0
6
CONTINUOUS
62
7
370
0
100
AcDbTrace
10
336.685980119
20
28.2675061203
30
0
11
337.102264777
21
25.7675061203
31
0
12
336.269695462
22
25.7675061203
32
0
13
336.269695462
23
25.7675061203
33
0
0
MTEXT
5
C4
100
AcDbEntity
8
0
6
CONTINUOUS
62
7
370
0
100
AcDbMText
10
334.810980119
20
35.046945491
30
0
40
2.5
41
9.44444444444
71
5
72
1
1
1.4322
7
standard
210
0
220
0
230
1
50
90
73
2
44
1
0
LINE
5
C5
100
AcDbEntity
8
0
6
CONTINUOUS
62
7
370
0
100
AcDbLine
10
383.256877502
20
29.6997232688
11
335.435980119
21
29.6997232688
0
LINE
5
C6
100
AcDbEntity
8
0
6
CONTINUOUS
62
7
370
0
100
AcDbLine
10
349.437911331
20
28.2675061203
11
335.435980119
21
28.2675061203
0
ENDBLK
5
6F
330
6D
100
AcDbEntity
8
0
100
AcDbBlockEnd
0
BLOCK
5
71
330
70
100
AcDbEntity
8
0
100
AcDbBlockBegin
2
*D11
70
1
10
0
20
0
3
*D11
1

0
LINE
5
C7
100
AcDbEntity
8
0
6
CONTINUOUS
62
7
370
0
100
AcDbLine
10
383.881877502
20
45.3120000001
11
336.685980119
21
45.3120000001
0
SOLID
5
C8
100
AcDbEntity
8
0
6
CONTINUOUS
62
7
370
0
100
AcDbTrace
10
383.881877502
20
45.3120000001
30
0
11
381.381877502
21
44.8957153423
31
0
12
381.381877502
22
45.7282846578
32
0
13
381.381877502
23
45.7282846578
33
0
0
SOLID
5
C9
100
AcDbEntity
8
0
6
CONTINUOUS
62
7
370
0
100
AcDbTrace
10
336.685980119
20
45.3120000001
30
0
11
339.185980119
21
45.7282846578
31
0
12
339.185980119
22
44.8957153423
32
0
13
339.185980119
23
44.8957153423
33
0
0
MTEXT
5
CA
100
AcDbEntity
8
0
6
CONTINUOUS
62
7
370
0
100
AcDbMText
10
360.283928811
20
47.1870000001
30
0
40
2.5
41
11.3888888889
71
5
72
1
1
47.1959
7
standard
210
0
220
0
230
1
50
360
73
2
44
1
0
LINE
5
CB
100
AcDbEntity
8
0
6
CONTINUOUS
62
7
370
0
100
AcDbLine
10
383.881877502
20
30.3247232688
11
383.881877502
21
46.5620000001
0
LINE
5
CC
100
AcDbEntity
8
0
6
CONTINUOUS
62
7
370
0
100
AcDbLine
10
336.685980119
20
27.7574570681
11
336.685980119
21
46.5620000001
0
ENDBLK
5
72
330
70
100
AcDbEntity
8
0
100
AcDbBlockEnd
0
ENDSEC
0
SECTION
2
ENTITIES
0
ARC
5
CD
100
AcDbEntity
8
0
6
ByLayer
62
256
370
-1
100
AcDbCircle
10
0
20
400
40
400
100
AcDbArc
50
270
51
274.85
0
ARC
5
CE
100
AcDbEntity
8
0
6
ByLayer
62
256
370
-1
100
AcDbCircle
10
47.1416009362
20
404.000022771
40
400
100
AcDbArc
50
270
51
274.85
0
LINE
5
CF
100
AcDbEntity
8
0
6
ByLayer
62
256
370
-1
100
AcDbLine
10
47.1416009362
20
4.00002277132
11
0.00160093621078
21
4.00002277132
0
LINE
5
D0
100
AcDbEntity
8
0
6
ByLayer
62
256
370
-1
100
AcDbLine
10
33.8189661712
20
1.43221714857
11
80.9605671074
21
5.43223991957
0
DIMENSION
5
D1
100
AcDbEntity
8
0
6
ByLayer
62
256
370
-1
100
AcDbDimension
2
*D1
10
33.8189661712
20
-6.24640000001
30
0
11
16.9094830856
21
-4.37140000001
31
0
70
32
71
5
3
Standard
53
0
210
0
220
0
230
1
100
AcDbAlignedDimension
13
-7.34788079488e-14
23
0
33
0
14
33.8189661712
24
1.43221714857
34
0
100
AcDbRotatedDimension
0
DIMENSION
5
D2
100
AcDbEntity
8
0
6
ByLayer
62
256
370
-1
100
AcDbDimension
2
*D2
10
81.750679745
20
-3.87950073422
30
0
11
58.021352873
21
-4.0112256376
31
0
70
33
71
5
3
Standard
53
0
210
0
220
0
230
1
100
AcDbAlignedDimension
13
33.8189661712
23
1.43221714857
33
0
14
80.9605671074
24
5.43223991957
34
0
0
DIMENSION
5
D3
100
AcDbEntity
8
0
6
ByLayer
62
256
370
-1
100
AcDbDimension
2
*D3
10
47.1416009362
20
9.31840000002
30
0
11
23.5716009363
21
11.1934000002
31
0
70
33
71
5
3
Standard
53
0
210
0
220
0
230
1
100
AcDbAlignedDimension
13
0.00160093621078
23
4.00002277132
33
0
14
47.1416009362
24
4.000022771
34
0
0
DIMENSION
5
D4
100
AcDbEntity
8
0
6
ByLayer
62
256
370
-1
100
AcDbDimension
2
*D4
10
80.9605671074
20
10.6496
30
0
11
64.0510840218
21
12.5246
31
0
70
32
71
5
3
Standard
53
0
210
0
220
0
230
1
100
AcDbAlignedDimension
13
47.1416009362
23
4.000022771
33
0
14
80.9605671074
24
5.43223991957
34
0
100
AcDbRotatedDimension
0
DIMENSION
5
D5
100
AcDbEntity
8
0
6
ByLayer
62
256
370
-1
100
AcDbDimension
2
*D5
10
-10.8544
20
4.00002277132
30
0
11
-12.7294
21
2.00001138566
31
0
70
32
71
5
3
Standard
53
0
210
0
220
0
230
1
100
AcDbAlignedDimension
13
-7.34788079488e-14
23
0
33
0
14
0.00160093621078
24
4.00002277132
34
0
50
90
100
AcDbRotatedDimension
0
DIMENSION
5
D6
100
AcDbEntity
8
0
6
ByLayer
62
256
370
-1
100
AcDbDimension
2
*D6
10
-5.93920000001
20
1.43221714857
30
0
11
-7.81420000001
21
0.716108574283
31
0
70
32
71
5
3
Standard
53
0
210
0
220
0
230
1
100
AcDbAlignedDimension
13
-7.34788079488e-14
23
0
33
0
14
33.8189661712
24
1.43221714857
34
0
50
90
100
AcDbRotatedDimension
0
DIMENSION
5
D7
100
AcDbEntity
8
0
6
ByLayer
62
256
370
-1
100
AcDbDimension
2
*D7
10
-18.5344
20
5.43223991957
30
0
11
-20.4094
21
2.71611995978
31
0
70
32
71
5
3
Standard
53
0
210
0
220
0
230
1
100
AcDbAlignedDimension
13
-7.34788079488e-14
23
0
33
0
14
80.9605671074
24
5.43223991957
34
0
50
90
100
AcDbRotatedDimension
0
DIMENSION
5
D8
100
AcDbEntity
8
0
6
ByLayer
62
256
370
-1
100
AcDbDimension
2
*D8
10
33.8189661712
20
-12.0832
30
0
11
57.3897666393
21
-10.2082
31
0
70
32
71
5
3
Standard
53
0
210
0
220
0
230
1
100
AcDbAlignedDimension
13
80.9605671074
23
5.43223991957
33
0
14
33.8189661712
24
1.43221714857
34
0
100
AcDbRotatedDimension
0
LINE
5
D9
100
AcDbEntity
8
0
6
ByLayer
62
256
370
-1
100
AcDbLine
10
168.377567107
20
12.8502399196
11
0
21
12.85
0
LINE
5
DA
100
AcDbEntity
8
0
6
ByLayer
62
256
370
-1
100
AcDbLine
10
168.377567107
20
12.8502399196
11
319.807013948
21
25.7002399196
0
LINE
5
DB
100
AcDbEntity
8
0
6
ByLayer
62
256
370
-1
100
AcDbLine
10
319.807013948
20
25.7002399196
11
0
21
25.7
0
LINE
5
DC
100
AcDbEntity
8
0
6
ByLayer
62
256
370
-1
100
AcDbLine
10
80.9605671074
20
5.43223991957
11
168.377567107
21
12.8502399196
0
ARC
5
DD
100
AcDbEntity
8
0
6
ByLayer
62
256
370
-1
100
AcDbCircle
10
302.867013948
20
425.70023992
40
400
100
AcDbArc
50
270
51
274.85
0
LINE
5
DE
100
AcDbEntity
8
0
6
ByLayer
62
256
370
-1
100
AcDbLine
10
336.685980119
20
27.1324570681
11
350.062911331
21
28.2675061203
0
ARC
5
DF
100
AcDbEntity
8
0
6
ByLayer
62
256
370
-1
100
AcDbCircle
10
383.881877502
20
-370.300276731
40
400
100
AcDbArc
50
90
51
94.85
0
DIMENSION
5
E0
100
AcDbEntity
8
0
6
ByLayer
62
256
370
-1
100
AcDbDimension
2
*D9
10
-7.79755579145e-14
20
-73.4375000001
30
0
11
191.940938751
21
-71.5625000001
31
0
70
32
71
5
3
Standard
53
0
210
0
220
0
230
1
100
AcDbAlignedDimension
13
383.881877502
23
29.6997232688
33
0
14
-7.34788079488e-14
24
0
34
0
100
AcDbRotatedDimension
0
DIMENSION
5
E1
100
AcDbEntity
8
0
6
ByLayer
62
256
370
-1
100
AcDbDimension
2
*D10
10
350.062911331
20
39.1680000001
30
0
11
366.972394417
21
41.0430000001
31
0
70
32
71
5
3
Standard
53
0
210
0
220
0
230
1
100
AcDbAlignedDimension
13
383.881877502
23
29.6997232688
33
0
14
350.062911331
24
28.2675061203
34
0
100
AcDbRotatedDimension
0
DIMENSION
5
E2
100
AcDbEntity
8
0
6
ByLayer
62
256
370
-1
100
AcDbDimension
2
*D11
10
336.685980119
20
45.3120000001
30
0
11
360.283928811
21
47.1870000001
31
0
70
32
71
5
3
Standard
53
0
210
0
220
0
230
1
100
AcDbAlignedDimension
13
383.881877502
23
29.6997232688
33
0
14
336.685980119
24
27.1324570681
34
0
100
AcDbRotatedDimension
0
DIMENSION
5
E3
100
AcDbEntity
8
0
6
ByLayer
62
256
370
-1
100
AcDbDimension
2
*D12
10
319.807013948
20
52.4800000001
30
0
11
351.844445725
21
54.3550000001
31
0
70
32
71
5
3
Standard
53
0
210
0
220
0
230
1
100
AcDbAlignedDimension
13
383.881877502
23
29.6997232688
33
0
14
319.807013948
24
25.7002399196
34
0
100
AcDbRotatedDimension
0
DIMENSION
5
E4
100
AcDbEntity
8
0
6
ByLayer
62
256
370
-1
100
AcDbDimension
2
*D13
10
390.272000001
20
28.2675061203
30
0
11
388.397000001
21
28.9836146945
31
0
70
32
71
5
3
Standard
53
0
210
0
220
0
230
1
100
AcDbAlignedDimension
13
383.881877502
23
29.6997232688
33
0
14
350.062911331
24
28.2675061203
34
0
50
90
100
AcDbRotatedDimension
0
DIMENSION
5
E5
100
AcDbEntity
8
0
6
ByLayer
62
256
370
-1
100
AcDbDimension
2
*D14
10
336.685980119
20
28.2675061203
30
0
11
334.810980119
21
28.9836146945
31
0
70
32
71
5
3
Standard
53
0
210
0
220
0
230
1
100
AcDbAlignedDimension
13
383.881877502
23
29.6997232688
33
0
14
350.062911331
24
28.2675061203
34
0
50
90
100
AcDbRotatedDimension
0
DIMENSION
5
E6
100
AcDbEntity
8
0
6
ByLayer
62
256
370
-1
100
AcDbDimension
2
*D15
10
397.568000001
20
27.1324570681
30
0
11
395.693000001
21
27.6999815942
31
0
70
32
71
5
3
Standard
53
0
210
0
220
0
230
1
100
AcDbAlignedDimension
13
350.062911331
23
28.2675061203
33
0
14
336.685980119
24
27.1324570681
34
0
50
90
100
AcDbRotatedDimension
0
ENDSEC
0
SECTION
2
OBJECTS
0
DICTIONARY
5
C
330
0
100
AcDbDictionary
281
1
3
ACAD_GROUP
350
D
0
DICTIONARY
5
D
330
C
100
AcDbDictionary
281
1
0
ENDSEC
0
EOF
