999
dxfrw 0.5.10
0
SECTION
2
HEADER
9
$ACADVER
1
AC1021
9
$HANDSEED
5
20000
9
$DWGCODEPAGE
3
ANSI_1252
9
$INSBASE
10
0
20
0
30
0
9
$EXTMIN
10
-15.157
20
-12.47304
30
0
9
$EXTMAX
10
202.318116217
20
62.25
30
0
9
$LIMMIN
10
0
20
0
9
$LIMMAX
10
420
20
297
9
$ORTHOMODE
70
0
9
$LTSCALE
40
1
9
$TEXTSTYLE
7
STANDARD
9
$CLAYER
8
Text
9
$DIMASZ
40
2.5
9
$DIMLFAC
40
1
9
$DIMSCALE
40
1
9
$DIMEXO
40
0.625
9
$DIMEXE
40
1.25
9
$DIMTXT
40
2.5
9
$DIMTSZ
40
0
9
$DIMAUNIT
70
0
9
$DIMADEC
70
2
9
$DIMLUNIT
70
2
9
$DIMSTYLE
2
STANDARD
9
$DIMGAP
40
0.625
9
$DIMTIH
70
0
9
$LUNITS
70
2
9
$LUPREC
70
4
9
$AUNITS
70
0
9
$AUPREC
70
2
9
$SPLINESEGS
70
8
9
$GRIDMODE
70
1
9
$SNAPSTYLE
70
0
9
$GRIDUNIT
10
0
20
0
9
$PINSBASE
10
31.4571297706
20
93.9611896673
30
0
9
$PLIMMIN
10
0
20
0
9
$PLIMMAX
10
297
20
210
9
$INSUNITS
70
0
9
$PSVPSCALE
40
1.25072
0
ENDSEC
0
SECTION
2
CLASSES
0
ENDSEC
0
SECTION
2
TABLES
0
TABLE
2
VPORT
5
8
330
0
100
AcDbSymbolTable
70
1
0
VPORT
5
31
330
2
100
AcDbSymbolTableRecord
100
AcDbViewportTableRecord
2
*ACTIVE
70
0
10
0
20
0
11
1
21
1
12
134.5
22
49.25
13
0
23
0
14
10
24
10
15
10
25
10
16
0
26
0
36
1
17
0
27
0
37
0
40
203.25
41
1.55965559656
42
50
43
0
44
0
50
0
51
0
71
0
72
100
73
1
74
3
75
0
76
1
77
0
78
0
281
0
65
1
110
0
120
0
130
0
111
1
121
0
131
0
112
0
122
1
132
0
79
0
146
0
348
10020
60
7
61
5
292
1
282
1
141
0
142
0
63
250
421
3358443
0
ENDTAB
0
TABLE
2
LTYPE
5
5
330
0
100
AcDbSymbolTable
70
4
0
LTYPE
5
14
330
5
100
AcDbSymbolTableRecord
100
AcDbLinetypeTableRecord
2
ByBlock
70
0
3

72
65
73
0
40
0
0
LTYPE
5
15
330
5
100
AcDbSymbolTableRecord
100
AcDbLinetypeTableRecord
2
ByLayer
70
0
3

72
65
73
0
40
0
0
LTYPE
5
16
330
5
100
AcDbSymbolTableRecord
100
AcDbLinetypeTableRecord
2
Continuous
70
0
3
Solid line
72
65
73
0
40
0
0
LTYPE
5
32
330
5
100
AcDbSymbolTableRecord
100
AcDbLinetypeTableRecord
2
DOT
70
0
3
Dot . . . . . . . . . . . . . . . . . . . . . .
72
65
73
2
40
6.35
49
0
74
0
49
-6.35
74
0
0
LTYPE
5
33
330
5
100
AcDbSymbolTableRecord
100
AcDbLinetypeTableRecord
2
DOT2
70
0
3
Dot (.5x) .....................................
72
65
73
2
40
3.175
49
0
74
0
49
-3.175
74
0
0
LTYPE
5
34
330
5
100
AcDbSymbolTableRecord
100
AcDbLinetypeTableRecord
2
DOTX2
70
0
3
Dot (2x) .  .  .  .  .  .  .  .  .  .  .  .  .
72
65
73
2
40
12.7
49
0
74
0
49
-12.7
74
0
0
LTYPE
5
35
330
5
100
AcDbSymbolTableRecord
100
AcDbLinetypeTableRecord
2
DASHED
70
0
3
Dot . . . . . . . . . . . . . . . . . . . . . .
72
65
73
2
40
19.05
49
12.7
74
0
49
-6.35
74
0
0
LTYPE
5
36
330
5
100
AcDbSymbolTableRecord
100
AcDbLinetypeTableRecord
2
DASHED2
70
0
3
Dashed (.5x) _ _ _ _ _ _ _ _ _ _ _ _ _ _ _ _ _
72
65
73
2
40
9.525
49
6.35
74
0
49
-3.175
74
0
0
LTYPE
5
37
330
5
100
AcDbSymbolTableRecord
100
AcDbLinetypeTableRecord
2
DASHEDX2
70
0
3
Dashed (2x) ____  ____  ____  ____  ____  ___
72
65
73
2
40
38.1
49
25.4
74
0
49
-12.7
74
0
0
LTYPE
5
38
330
5
100
AcDbSymbolTableRecord
100
AcDbLinetypeTableRecord
2
DASHDOT
70
0
3
Dash dot __ . __ . __ . __ . __ . __ . __ . __
72
65
73
4
40
25.4
49
12.7
74
0
49
-6.35
74
0
49
0
74
0
49
-6.35
74
0
0
LTYPE
5
39
330
5
100
AcDbSymbolTableRecord
100
AcDbLinetypeTableRecord
2
DASHDOT2
70
0
3
Dash dot (.5x) _._._._._._._._._._._._._._._.
72
65
73
4
40
12.7
49
6.35
74
0
49
-3.175
74
0
49
0
74
0
49
-3.175
74
0
0
LTYPE
5
3A
330
5
100
AcDbSymbolTableRecord
100
AcDbLinetypeTableRecord
2
DASHDOTX2
70
0
3
Dash dot (2x) ____  .  ____  .  ____  .  ___
72
65
73
4
40
50.8
49
25.4
74
0
49
-12.7
74
0
49
0
74
0
49
-12.7
74
0
0
LTYPE
5
3B
330
5
100
AcDbSymbolTableRecord
100
AcDbLinetypeTableRecord
2
DIVIDE
70
0
3
Divide ____ . . ____ . . ____ . . ____ . . ____
72
65
73
6
40
31.75
49
12.7
74
0
49
-6.35
74
0
49
0
74
0
49
-6.35
74
0
49
0
74
0
49
-6.35
74
0
0
LTYPE
5
3C
330
5
100
AcDbSymbolTableRecord
100
AcDbLinetypeTableRecord
2
DIVIDE2
70
0
3
Divide (.5x) __..__..__..__..__..__..__..__.._
72
65
73
6
40
15.875
49
6.35
74
0
49
-3.175
74
0
49
0
74
0
49
-3.175
74
0
49
0
74
0
49
-3.175
74
0
0
LTYPE
5
3D
330
5
100
AcDbSymbolTableRecord
100
AcDbLinetypeTableRecord
2
DIVIDEX2
70
0
3
Divide (2x) ________  .  .  ________  .  .  _
72
65
73
6
40
63.5
49
25.4
74
0
49
-12.7
74
0
49
0
74
0
49
-12.7
74
0
49
0
74
0
49
-12.7
74
0
0
LTYPE
5
3E
330
5
100
AcDbSymbolTableRecord
100
AcDbLinetypeTableRecord
2
BORDER
70
0
3
Border __ __ . __ __ . __ __ . __ __ . __ __ .
72
65
73
6
40
44.45
49
12.7
74
0
49
-6.35
74
0
49
12.7
74
0
49
-6.35
74
0
49
0
74
0
49
-6.35
74
0
0
LTYPE
5
3F
330
5
100
AcDbSymbolTableRecord
100
AcDbLinetypeTableRecord
2
BORDER2
70
0
3
Border (.5x) __.__.__.__.__.__.__.__.__.__.__.
72
65
73
6
40
22.225
49
6.35
74
0
49
-3.175
74
0
49
6.35
74
0
49
-3.175
74
0
49
0
74
0
49
-3.175
74
0
0
LTYPE
5
40
330
5
100
AcDbSymbolTableRecord
100
AcDbLinetypeTableRecord
2
BORDERX2
70
0
3
Border (2x) ____  ____  .  ____  ____  .  ___
72
65
73
6
40
88.9
49
25.4
74
0
49
-12.7
74
0
49
25.4
74
0
49
-12.7
74
0
49
0
74
0
49
-12.7
74
0
0
LTYPE
5
41
330
5
100
AcDbSymbolTableRecord
100
AcDbLinetypeTableRecord
2
CENTER
70
0
3
Center ____ _ ____ _ ____ _ ____ _ ____ _ ____
72
65
73
4
40
50.8
49
31.75
74
0
49
-6.35
74
0
49
6.35
74
0
49
-6.35
74
0
0
LTYPE
5
42
330
5
100
AcDbSymbolTableRecord
100
AcDbLinetypeTableRecord
2
CENTER2
70
0
3
Center (.5x) ___ _ ___ _ ___ _ ___ _ ___ _ ___
72
65
73
4
40
28.575
49
19.05
74
0
49
-3.175
74
0
49
3.175
74
0
49
-3.175
74
0
0
LTYPE
5
43
330
5
100
AcDbSymbolTableRecord
100
AcDbLinetypeTableRecord
2
CENTERX2
70
0
3
Center (2x) ________  __  ________  __  _____
72
65
73
4
40
101.6
49
63.5
74
0
49
-12.7
74
0
49
12.7
74
0
49
-12.7
74
0
0
ENDTAB
0
TABLE
2
LAYER
5
2
330
0
100
AcDbSymbolTable
70
1
0
LAYER
5
10
330
2
100
AcDbSymbolTableRecord
100
AcDbLayerTableRecord
2
0
70
0
62
7
6
CONTINUOUS
370
50
390
F
0
LAYER
5
44
330
2
100
AcDbSymbolTableRecord
100
AcDbLayerTableRecord
2
Quote
70
0
62
7
6
CONTINUOUS
370
0
390
F
0
LAYER
5
45
330
2
100
AcDbSymbolTableRecord
100
AcDbLayerTableRecord
2
Text
70
0
62
7
6
CONTINUOUS
370
0
390
F
0
ENDTAB
0
TABLE
2
STYLE
5
3
330
0
100
AcDbSymbolTable
70
3
0
STYLE
5
46
330
2
100
AcDbSymbolTableRecord
100
AcDbTextStyleTableRecord
2
standard
70
0
40
0
41
1
50
0
71
0
42
1
3
standard
4

0
ENDTAB
0
TABLE
2
VIEW
5
6
330
0
100
AcDbSymbolTable
70
0
0
ENDTAB
0
TABLE
2
UCS
5
7
330
0
100
AcDbSymbolTable
70
0
0
ENDTAB
0
TABLE
2
APPID
5
9
330
0
100
AcDbSymbolTable
70
1
0
APPID
5
12
330
9
100
AcDbSymbolTableRecord
100
AcDbRegAppTableRecord
2
ACAD
70
0
0
ENDTAB
0
TABLE
2
DIMSTYLE
5
A
330
0
100
AcDbSymbolTable
70
1
100
AcDbDimStyleTable
71
1
0
DIMSTYLE
105
47
330
A
100
AcDbSymbolTableRecord
100
AcDbDimStyleTableRecord
2
Standard
70
0
40
1
41
2.5
42
0.625
43
0.38
44
1.25
45
0
46
0
47
0
48
0
140
2.5
141
0.09
142
0
143
25.4
144
1
145
0
146
1
147
0.625
148
0
71
0
72
0
73
0
74
1
75
0
76
0
77
0
78
0
79
0
170
0
171
2
172
0
173
0
174
0
175
0
176
0
177
0
178
0
179
0
271
4
272
4
273
2
274
2
275
0
276
0
277
2
278
46
279
0
280
0
281
0
282
0
283
1
284
0
285
0
286
0
288
0
289
3
340
Standard
341

371
-2
372
-2
0
ENDTAB
0
TABLE
2
BLOCK_RECORD
5
1
330
0
100
AcDbSymbolTable
70
2
0
BLOCK_RECORD
5
1F
330
1
100
AcDbSymbolTableRecord
100
AcDbBlockTableRecord
2
*Model_Space
70
0
280
1
281
0
0
BLOCK_RECORD
5
1E
330
1
100
AcDbSymbolTableRecord
100
AcDbBlockTableRecord
2
*Paper_Space
70
0
280
1
281
0
0
BLOCK_RECORD
5
48
330
1
100
AcDbSymbolTableRecord
100
AcDbBlockTableRecord
2
*D1
70
0
280
1
281
0
0
BLOCK_RECORD
5
4B
330
1
100
AcDbSymbolTableRecord
100
AcDbBlockTableRecord
2
*D2
70
0
280
1
281
0
0
BLOCK_RECORD
5
4E
330
1
100
AcDbSymbolTableRecord
100
AcDbBlockTableRecord
2
*D3
70
0
280
1
281
0
0
BLOCK_RECORD
5
51
330
1
100
AcDbSymbolTableRecord
100
AcDbBlockTableRecord
2
*D11
70
0
280
1
281
0
0
BLOCK_RECORD
5
54
330
1
100
AcDbSymbolTableRecord
100
AcDbBlockTableRecord
2
*D9
70
0
280
1
281
0
0
BLOCK_RECORD
5
57
330
1
100
AcDbSymbolTableRecord
100
AcDbBlockTableRecord
2
*D13
70
0
280
1
281
0
0
BLOCK_RECORD
5
5A
330
1
100
AcDbSymbolTableRecord
100
AcDbBlockTableRecord
2
*D6
70
0
280
1
281
0
0
BLOCK_RECORD
5
5D
330
1
100
AcDbSymbolTableRecord
100
AcDbBlockTableRecord
2
*D8
70
0
280
1
281
0
0
BLOCK_RECORD
5
60
330
1
100
AcDbSymbolTableRecord
100
AcDbBlockTableRecord
2
*D10
70
0
280
1
281
0
0
BLOCK_RECORD
5
63
330
1
100
AcDbSymbolTableRecord
100
AcDbBlockTableRecord
2
*D12
70
0
280
1
281
0
0
BLOCK_RECORD
5
66
330
1
100
AcDbSymbolTableRecord
100
AcDbBlockTableRecord
2
*D5
70
0
280
1
281
0
0
BLOCK_RECORD
5
69
330
1
100
AcDbSymbolTableRecord
100
AcDbBlockTableRecord
2
*D4
70
0
280
1
281
0
0
BLOCK_RECORD
5
6C
330
1
100
AcDbSymbolTableRecord
100
AcDbBlockTableRecord
2
*D14
70
0
280
1
281
0
0
BLOCK_RECORD
5
6F
330
1
100
AcDbSymbolTableRecord
100
AcDbBlockTableRecord
2
*D7
70
0
280
1
281
0
0
ENDTAB
0
ENDSEC
0
SECTION
2
BLOCKS
0
BLOCK
5
20
330
1F
100
AcDbEntity
8
0
100
AcDbBlockBegin
2
*Model_Space
70
0
10
0
20
0
30
0
3
*Model_Space
1

0
ENDBLK
5
21
330
1F
100
AcDbEntity
8
0
100
AcDbBlockEnd
0
BLOCK
5
1C
330
1B
100
AcDbEntity
8
0
100
AcDbBlockBegin
2
*Paper_Space
70
0
10
0
20
0
30
0
3
*Paper_Space
1

0
ENDBLK
5
1D
330
1F
100
AcDbEntity
8
0
100
AcDbBlockEnd
0
BLOCK
5
49
330
48
100
AcDbEntity
8
0
100
AcDbBlockBegin
2
*D1
70
1
10
0
20
0
3
*D1
1

0
LINE
5
72
100
AcDbEntity
8
Quote
6
CONTINUOUS
62
7
370
0
100
AcDbLine
10
2.13162820728e-14
20
-11.22304
11
33.8214704458
21
-11.22304
0
SOLID
5
73
100
AcDbEntity
8
Quote
6
CONTINUOUS
62
7
370
0
100
AcDbTrace
10
2.13162820728e-14
20
-11.22304
30
0
11
2.5
21
-10.8067553422
31
0
12
2.5
22
-11.6393246578
32
0
13
2.5
23
-11.6393246578
33
0
0
SOLID
5
74
100
AcDbEntity
8
Quote
6
CONTINUOUS
62
7
370
0
100
AcDbTrace
10
33.8214704458
20
-11.22304
30
0
11
31.3214704458
21
-11.6393246578
31
0
12
31.3214704458
22
-10.8067553422
32
0
13
31.3214704458
23
-10.8067553422
33
0
0
MTEXT
5
75
100
AcDbEntity
8
Quote
6
CONTINUOUS
62
7
370
0
100
AcDbMText
10
16.9107352229
20
-9.34804
30
0
40
2.5
41
11.1111111111
71
5
72
1
1
33.8215
7
standard
210
0
220
0
230
1
50
0
73
2
44
1
0
LINE
5
76
100
AcDbEntity
8
Quote
6
CONTINUOUS
62
7
370
0
100
AcDbLine
10
2.43781253455e-14
20
1.375
11
2.1086660798e-14
21
-12.47304
0
LINE
5
77
100
AcDbEntity
8
Quote
6
CONTINUOUS
62
7
370
0
100
AcDbLine
10
33.8214704458
20
-0.0574296472642
11
33.8214704458
21
-12.47304
0
ENDBLK
5
4A
330
48
100
AcDbEntity
8
0
100
AcDbBlockEnd
0
BLOCK
5
4C
330
4B
100
AcDbEntity
8
0
100
AcDbBlockBegin
2
*D2
70
1
10
0
20
0
3
*D2
1

0
LINE
5
78
100
AcDbEntity
8
Quote
6
CONTINUOUS
62
7
370
0
100
AcDbLine
10
-2.12992
20
7
11
-2.12992
21
-4.43242964726
0
SOLID
5
79
100
AcDbEntity
8
Quote
6
CONTINUOUS
62
7
370
0
100
AcDbTrace
10
-2.12992
20
2
30
0
11
-2.54620465777
21
4.5
31
0
12
-1.71363534223
22
4.5
32
0
13
-1.71363534223
23
4.5
33
0
0
SOLID
5
7A
100
AcDbEntity
8
Quote
6
CONTINUOUS
62
7
370
0
100
AcDbTrace
10
-2.12992
20
0.567570352736
30
0
11
-1.71363534223
21
-1.93242964726
31
0
12
-2.54620465777
22
-1.93242964726
32
0
13
-2.54620465777
23
-1.93242964726
33
0
0
MTEXT
5
7B
100
AcDbEntity
8
Quote
6
CONTINUOUS
62
7
370
0
100
AcDbMText
10
-4.00492
20
7.48611111111
30
0
40
2.5
41
9.72222222222
71
5
72
1
1
1.4324
7
standard
210
0
220
0
230
1
50
90
73
2
44
1
0
LINE
5
7C
100
AcDbEntity
8
Quote
6
CONTINUOUS
62
7
370
0
100
AcDbLine
10
-0.625
20
2
11
-3.37992
21
2
0
LINE
5
7D
100
AcDbEntity
8
Quote
6
CONTINUOUS
62
7
370
0
100
AcDbLine
10
33.1964704458
20
0.567570352736
11
-3.37992
21
0.567570352736
0
ENDBLK
5
4D
330
4B
100
AcDbEntity
8
0
100
AcDbBlockEnd
0
BLOCK
5
4F
330
4E
100
AcDbEntity
8
0
100
AcDbBlockBegin
2
*D3
70
1
10
0
20
0
3
*D3
1

0
LINE
5
7E
100
AcDbEntity
8
Quote
6
CONTINUOUS
62
7
370
0
100
AcDbLine
10
33.8743199974
20
1.19033188407
11
34.6208794479
21
9.98812755499
0
LINE
5
7F
100
AcDbEntity
8
Quote
6
CONTINUOUS
62
7
370
0
100
AcDbLine
10
47.251518826
20
0.0551754676361
11
47.9980782765
21
8.85297113855
0
LINE
5
80
100
AcDbEntity
8
Quote
6
CONTINUOUS
62
7
370
0
100
AcDbLine
10
34.5151873527
20
8.74260389763
11
47.8923861813
21
7.6074474812
0
SOLID
5
81
100
AcDbEntity
8
Quote
6
CONTINUOUS
62
7
370
0
100
AcDbTrace
10
34.5151873527
20
8.74260389763
30
0
11
37.0414330656
21
8.94601361889
31
0
12
36.9710362693
22
8.11642579577
32
0
13
36.9710362693
23
8.11642579577
33
0
0
SOLID
5
82
100
AcDbEntity
8
Quote
6
CONTINUOUS
62
7
370
0
100
AcDbTrace
10
47.8923861813
20
7.6074474812
30
0
11
45.3661404685
21
7.40403775995
31
0
12
45.4365372647
22
8.23362558307
32
0
13
45.4365372647
23
8.23362558307
33
0
0
MTEXT
5
83
100
AcDbEntity
8
Quote
6
CONTINUOUS
62
7
370
0
100
AcDbMText
10
41.3623249098
20
10.0433111754
30
0
40
2.5
41
11.3888888889
71
5
72
1
1
13.4253
7
standard
210
0
220
0
230
1
50
355.14964
73
2
44
1
0
ENDBLK
5
50
330
4E
100
AcDbEntity
8
0
100
AcDbBlockEnd
0
BLOCK
5
52
330
51
100
AcDbEntity
8
0
100
AcDbBlockBegin
2
*D11
70
1
10
0
20
0
3
*D11
1

0
LINE
5
84
100
AcDbEntity
8
Quote
6
CONTINUOUS
62
7
370
0
100
AcDbLine
10
162.04
20
27
11
2.44929359829e-14
21
27
0
SOLID
5
85
100
AcDbEntity
8
Quote
6
CONTINUOUS
62
7
370
0
100
AcDbTrace
10
162.04
20
27
30
0
11
159.54
21
26.5837153422
31
0
12
159.54
22
27.4162846578
32
0
13
159.54
23
27.4162846578
33
0
0
SOLID
5
86
100
AcDbEntity
8
Quote
6
CONTINUOUS
62
7
370
0
100
AcDbTrace
10
2.44929359829e-14
20
27
30
0
11
2.5
21
27.4162846578
31
0
12
2.5
22
26.5837153422
32
0
13
2.5
23
26.5837153422
33
0
0
MTEXT
5
87
100
AcDbEntity
8
Quote
6
CONTINUOUS
62
7
370
0
100
AcDbMText
10
81.02
20
28.875
30
0
40
2.5
41
9.44444444444
71
5
72
1
1
162.04
7
standard
210
0
220
0
230
1
50
360
73
2
44
1
0
LINE
5
88
100
AcDbEntity
8
Quote
6
CONTINUOUS
62
7
370
0
100
AcDbLine
10
162.04
20
2.625
11
162.04
21
28.25
0
LINE
5
89
100
AcDbEntity
8
Quote
6
CONTINUOUS
62
7
370
0
100
AcDbLine
10
2.45312061954e-14
20
2.625
11
2.45694764079e-14
21
28.25
0
ENDBLK
5
53
330
51
100
AcDbEntity
8
0
100
AcDbBlockEnd
0
BLOCK
5
55
330
54
100
AcDbEntity
8
0
100
AcDbBlockBegin
2
*D9
70
1
10
0
20
0
3
*D9
1

0
LINE
5
8A
100
AcDbEntity
8
Quote
6
CONTINUOUS
62
7
370
0
100
AcDbLine
10
81.0201445729
20
15.6
11
2.44929359829e-14
21
15.6
0
SOLID
5
8B
100
AcDbEntity
8
Quote
6
CONTINUOUS
62
7
370
0
100
AcDbTrace
10
81.0201445729
20
15.6
30
0
11
78.5201445729
21
15.1837153422
31
0
12
78.5201445729
22
16.0162846578
32
0
13
78.5201445729
23
16.0162846578
33
0
0
SOLID
5
8C
100
AcDbEntity
8
Quote
6
CONTINUOUS
62
7
370
0
100
AcDbTrace
10
2.44929359829e-14
20
15.6
30
0
11
2.5
21
16.0162846578
31
0
12
2.5
22
15.1837153422
32
0
13
2.5
23
15.1837153422
33
0
0
MTEXT
5
8D
100
AcDbEntity
8
Quote
6
CONTINUOUS
62
7
370
0
100
AcDbMText
10
40.5100722865
20
17.475
30
0
40
2.5
41
10.5555555556
71
5
72
1
1
81.0201
7
standard
210
0
220
0
230
1
50
360
73
2
44
1
0
LINE
5
8E
100
AcDbEntity
8
Quote
6
CONTINUOUS
62
7
370
0
100
AcDbLine
10
81.0201445729
20
-1.3750160083
11
81.0201445729
21
16.85
0
LINE
5
8F
100
AcDbEntity
8
Quote
6
CONTINUOUS
62
7
370
0
100
AcDbLine
10
2.45312061954e-14
20
2.625
11
2.45694764079e-14
21
16.85
0
ENDBLK
5
56
330
54
100
AcDbEntity
8
0
100
AcDbBlockEnd
0
BLOCK
5
58
330
57
100
AcDbEntity
8
0
100
AcDbBlockBegin
2
*D13
70
1
10
0
20
0
3
*D13
1

0
LINE
5
90
100
AcDbEntity
8
Quote
6
CONTINUOUS
62
7
370
0
100
AcDbLine
10
-12.032
20
4.43242964726
11
-12.032
21
-7
0
SOLID
5
91
100
AcDbEntity
8
Quote
6
CONTINUOUS
62
7
370
0
100
AcDbTrace
10
-12.032
20
-0.567570352736
30
0
11
-12.4482846578
21
1.93242964726
31
0
12
-11.6157153422
22
1.93242964726
32
0
13
-11.6157153422
23
1.93242964726
33
0
0
SOLID
5
92
100
AcDbEntity
8
Quote
6
CONTINUOUS
62
7
370
0
100
AcDbTrace
10
-12.032
20
-2
30
0
11
-11.6157153422
21
-4.5
31
0
12
-12.4482846578
22
-4.5
32
0
13
-12.4482846578
23
-4.5
33
0
0
MTEXT
5
93
100
AcDbEntity
8
Quote
6
CONTINUOUS
62
7
370
0
100
AcDbMText
10
-13.907
20
4.91854075838
30
0
40
2.5
41
9.72222222222
71
5
72
1
1
1.4324
7
standard
210
0
220
0
230
1
50
90
73
2
44
1
0
LINE
5
94
100
AcDbEntity
8
Quote
6
CONTINUOUS
62
7
370
0
100
AcDbLine
10
46.5735295542
20
-0.567570352736
11
-13.282
21
-0.567570352736
0
LINE
5
95
100
AcDbEntity
8
Quote
6
CONTINUOUS
62
7
370
0
100
AcDbLine
10
80.395
20
-2
11
-13.282
21
-2
0
ENDBLK
5
59
330
57
100
AcDbEntity
8
0
100
AcDbBlockEnd
0
BLOCK
5
5B
330
5A
100
AcDbEntity
8
0
100
AcDbBlockBegin
2
*D6
70
1
10
0
20
0
3
*D6
1

0
LINE
5
96
100
AcDbEntity
8
Quote
6
CONTINUOUS
62
7
370
0
100
AcDbLine
10
81.0201445729
20
-11.0592
11
114.841470446
21
-11.0592
0
SOLID
5
97
100
AcDbEntity
8
Quote
6
CONTINUOUS
62
7
370
0
100
AcDbTrace
10
81.0201445729
20
-11.0592
30
0
11
83.5201445729
21
-10.6429153422
31
0
12
83.5201445729
22
-11.4754846578
32
0
13
83.5201445729
23
-11.4754846578
33
0
0
SOLID
5
98
100
AcDbEntity
8
Quote
6
CONTINUOUS
62
7
370
0
100
AcDbTrace
10
114.841470446
20
-11.0592
30
0
11
112.341470446
21
-11.4754846578
31
0
12
112.341470446
22
-10.6429153422
32
0
13
112.341470446
23
-10.6429153422
33
0
0
MTEXT
5
99
100
AcDbEntity
8
Quote
6
CONTINUOUS
62
7
370
0
100
AcDbMText
10
97.9308075094
20
-9.1842
30
0
40
2.5
41
11.1111111111
71
5
72
1
1
33.8213
7
standard
210
0
220
0
230
1
50
0
73
2
44
1
0
LINE
5
9A
100
AcDbEntity
8
Quote
6
CONTINUOUS
62
7
370
0
100
AcDbLine
10
81.0201445729
20
-2.6250160083
11
81.0201445729
21
-12.3092
0
LINE
5
9B
100
AcDbEntity
8
Quote
6
CONTINUOUS
62
7
370
0
100
AcDbLine
10
114.841470446
20
-1.19257035274
11
114.841470446
21
-12.3092
0
ENDBLK
5
5C
330
5A
100
AcDbEntity
8
0
100
AcDbBlockEnd
0
BLOCK
5
5E
330
5D
100
AcDbEntity
8
0
100
AcDbBlockBegin
2
*D8
70
1
10
0
20
0
3
*D8
1

0
LINE
5
9C
100
AcDbEntity
8
Quote
6
CONTINUOUS
62
7
370
0
100
AcDbLine
10
128.2185296
20
-10.9568
11
162.039996696
21
-10.9568
0
SOLID
5
9D
100
AcDbEntity
8
Quote
6
CONTINUOUS
62
7
370
0
100
AcDbTrace
10
128.2185296
20
-10.9568
30
0
11
130.7185296
21
-10.5405153422
31
0
12
130.7185296
22
-11.3730846578
32
0
13
130.7185296
23
-11.3730846578
33
0
0
SOLID
5
9E
100
AcDbEntity
8
Quote
6
CONTINUOUS
62
7
370
0
100
AcDbTrace
10
162.039996696
20
-10.9568
30
0
11
159.539996696
21
-11.3730846578
31
0
12
159.539996696
22
-10.5405153422
32
0
13
159.539996696
23
-10.5405153422
33
0
0
MTEXT
5
9F
100
AcDbEntity
8
Quote
6
CONTINUOUS
62
7
370
0
100
AcDbMText
10
145.129263148
20
-9.0818
30
0
40
2.5
41
11.1111111111
71
5
72
1
1
33.8215
7
standard
210
0
220
0
230
1
50
0
73
2
44
1
0
LINE
5
A0
100
AcDbEntity
8
Quote
6
CONTINUOUS
62
7
370
0
100
AcDbLine
10
128.2185296
20
-0.0574296433969
11
128.2185296
21
-12.2068
0
LINE
5
A1
100
AcDbEntity
8
Quote
6
CONTINUOUS
62
7
370
0
100
AcDbLine
10
162.039996696
20
1.375
11
162.039996696
21
-12.2068
0
ENDBLK
5
5F
330
5D
100
AcDbEntity
8
0
100
AcDbBlockEnd
0
BLOCK
5
61
330
60
100
AcDbEntity
8
0
100
AcDbBlockBegin
2
*D10
70
1
10
0
20
0
3
*D10
1

0
LINE
5
A2
100
AcDbEntity
8
Quote
6
CONTINUOUS
62
7
370
0
100
AcDbLine
10
81.0201445729
20
15.6
11
162.04
21
15.6
0
SOLID
5
A3
100
AcDbEntity
8
Quote
6
CONTINUOUS
62
7
370
0
100
AcDbTrace
10
81.0201445729
20
15.6
30
0
11
83.5201445729
21
16.0162846578
31
0
12
83.5201445729
22
15.1837153422
32
0
13
83.5201445729
23
15.1837153422
33
0
0
SOLID
5
A4
100
AcDbEntity
8
Quote
6
CONTINUOUS
62
7
370
0
100
AcDbTrace
10
162.04
20
15.6
30
0
11
159.54
21
15.1837153422
31
0
12
159.54
22
16.0162846578
32
0
13
159.54
23
16.0162846578
33
0
0
MTEXT
5
A5
100
AcDbEntity
8
Quote
6
CONTINUOUS
62
7
370
0
100
AcDbMText
10
121.530072286
20
17.475
30
0
40
2.5
41
10.5555555556
71
5
72
1
1
81.0199
7
standard
210
0
220
0
230
1
50
0
73
2
44
1
0
LINE
5
A6
100
AcDbEntity
8
Quote
6
CONTINUOUS
62
7
370
0
100
AcDbLine
10
81.0201445729
20
-1.3750160083
11
81.0201445729
21
16.85
0
LINE
5
A7
100
AcDbEntity
8
Quote
6
CONTINUOUS
62
7
370
0
100
AcDbLine
10
162.04
20
2.625
11
162.04
21
16.85
0
ENDBLK
5
62
330
60
100
AcDbEntity
8
0
100
AcDbBlockEnd
0
BLOCK
5
64
330
63
100
AcDbEntity
8
0
100
AcDbBlockBegin
2
*D12
70
1
10
0
20
0
3
*D12
1

0
LINE
5
A8
100
AcDbEntity
8
Quote
6
CONTINUOUS
62
7
370
0
100
AcDbLine
10
-7.12704
20
5.56757065008
11
-7.12704
21
-5.56757035274
0
SOLID
5
A9
100
AcDbEntity
8
Quote
6
CONTINUOUS
62
7
370
0
100
AcDbTrace
10
-7.12704
20
0.567570650079
30
0
11
-7.54332465777
21
3.06757065008
31
0
12
-6.71075534223
22
3.06757065008
32
0
13
-6.71075534223
23
3.06757065008
33
0
0
SOLID
5
AA
100
AcDbEntity
8
Quote
6
CONTINUOUS
62
7
370
0
100
AcDbTrace
10
-7.12704
20
-0.567570352736
30
0
11
-6.71075534223
21
-3.06757035274
31
0
12
-7.54332465777
22
-3.06757035274
32
0
13
-7.54332465777
23
-3.06757035274
33
0
0
MTEXT
5
AB
100
AcDbEntity
8
Quote
6
CONTINUOUS
62
7
370
0
100
AcDbMText
10
-9.00204
20
5.22034842786
30
0
40
2.5
41
8.05555555556
71
5
72
1
1
1.1351
7
standard
210
0
220
0
230
1
50
90
73
2
44
1
0
LINE
5
AC
100
AcDbEntity
8
Quote
6
CONTINUOUS
62
7
370
0
100
AcDbLine
10
33.1964669418
20
0.567570650079
11
-8.37704
21
0.567570650079
0
LINE
5
AD
100
AcDbEntity
8
Quote
6
CONTINUOUS
62
7
370
0
100
AcDbLine
10
46.5735295542
20
-0.567570352736
11
-8.37704
21
-0.567570352736
0
ENDBLK
5
65
330
63
100
AcDbEntity
8
0
100
AcDbBlockEnd
0
BLOCK
5
67
330
66
100
AcDbEntity
8
0
100
AcDbBlockBegin
2
*D5
70
1
10
0
20
0
3
*D5
1

0
LINE
5
AE
100
AcDbEntity
8
Quote
6
CONTINUOUS
62
7
370
0
100
AcDbLine
10
47.1985295542
20
-11.1616
11
81.02
21
-11.1616
0
SOLID
5
AF
100
AcDbEntity
8
Quote
6
CONTINUOUS
62
7
370
0
100
AcDbTrace
10
47.1985295542
20
-11.1616
30
0
11
49.6985295542
21
-10.7453153422
31
0
12
49.6985295542
22
-11.5778846578
32
0
13
49.6985295542
23
-11.5778846578
33
0
0
SOLID
5
B0
100
AcDbEntity
8
Quote
6
CONTINUOUS
62
7
370
0
100
AcDbTrace
10
81.02
20
-11.1616
30
0
11
78.52
21
-11.5778846578
31
0
12
78.52
22
-10.7453153422
32
0
13
78.52
23
-10.7453153422
33
0
0
MTEXT
5
B1
100
AcDbEntity
8
Quote
6
CONTINUOUS
62
7
370
0
100
AcDbMText
10
64.1092647771
20
-9.2866
30
0
40
2.5
41
11.1111111111
71
5
72
1
1
33.8215
7
standard
210
0
220
0
230
1
50
0
73
2
44
1
0
LINE
5
B2
100
AcDbEntity
8
Quote
6
CONTINUOUS
62
7
370
0
100
AcDbLine
10
47.1985295542
20
-1.19257035274
11
47.1985295542
21
-12.4116
0
LINE
5
B3
100
AcDbEntity
8
Quote
6
CONTINUOUS
62
7
370
0
100
AcDbLine
10
81.02
20
-2.625
11
81.02
21
-12.4116
0
ENDBLK
5
68
330
66
100
AcDbEntity
8
0
100
AcDbBlockEnd
0
BLOCK
5
6A
330
69
100
AcDbEntity
8
0
100
AcDbBlockBegin
2
*D4
70
1
10
0
20
0
3
*D4
1

0
LINE
5
B4
100
AcDbEntity
8
Quote
6
CONTINUOUS
62
7
370
0
100
AcDbLine
10
33.8214739498
20
-11.136
11
47.1983945258
21
-11.136
0
SOLID
5
B5
100
AcDbEntity
8
Quote
6
CONTINUOUS
62
7
370
0
100
AcDbTrace
10
33.8214739498
20
-11.136
30
0
11
36.3214739498
21
-10.7197153422
31
0
12
36.3214739498
22
-11.5522846578
32
0
13
36.3214739498
23
-11.5522846578
33
0
0
SOLID
5
B6
100
AcDbEntity
8
Quote
6
CONTINUOUS
62
7
370
0
100
AcDbTrace
10
47.1983945258
20
-11.136
30
0
11
44.6983945258
21
-11.5522846578
31
0
12
44.6983945258
22
-10.7197153422
32
0
13
44.6983945258
23
-10.7197153422
33
0
0
MTEXT
5
B7
100
AcDbEntity
8
Quote
6
CONTINUOUS
62
7
370
0
100
AcDbMText
10
40.5099342378
20
-9.261
30
0
40
2.5
41
11.1111111111
71
5
72
1
1
13.3769
7
standard
210
0
220
0
230
1
50
0
73
2
44
1
0
LINE
5
B8
100
AcDbEntity
8
Quote
6
CONTINUOUS
62
7
370
0
100
AcDbLine
10
33.8214739498
20
-0.057429944607
11
33.8214739498
21
-12.386
0
LINE
5
B9
100
AcDbEntity
8
Quote
6
CONTINUOUS
62
7
370
0
100
AcDbLine
10
47.1983945258
20
-1.1925627491
11
47.1983945258
21
-12.386
0
ENDBLK
5
6B
330
69
100
AcDbEntity
8
0
100
AcDbBlockEnd
0
BLOCK
5
6D
330
6C
100
AcDbEntity
8
0
100
AcDbBlockBegin
2
*D14
70
1
10
0
20
0
3
*D14
1

0
LINE
5
BA
100
AcDbEntity
8
Quote
6
CONTINUOUS
62
7
370
0
100
AcDbLine
10
162.665
20
2
11
200.34698033
21
2
0
LINE
5
BB
100
AcDbEntity
8
Quote
6
CONTINUOUS
62
7
370
0
100
AcDbLine
10
162.602209261
20
3.48527551667
11
200.149134512
21
6.67140505929
0
ARC
5
BC
100
AcDbEntity
8
Quote
6
CONTINUOUS
62
7
370
0
100
AcDbCircle
10
145.098988486
20
2
40
53.9979918442
100
AcDbArc
50
0
51
4.85034360848
0
SOLID
5
BD
100
AcDbEntity
8
Quote
6
CONTINUOUS
62
7
370
0
100
AcDbTrace
10
199.09698033
20
2
30
0
11
199.571020808
21
-0.48969446749
31
0
12
198.738674559
22
-0.508965900789
32
0
13
198.738674559
23
-0.508965900789
33
0
0
SOLID
5
BE
100
AcDbEntity
8
Quote
6
CONTINUOUS
62
7
370
0
100
AcDbTrace
10
198.903610825
20
6.56571332048
30
0
11
198.334446591
21
9.0353985212
31
0
12
199.16544163
22
9.08657379769
32
0
13
199.16544163
23
9.08657379769
33
0
0
MTEXT
5
BF
100
AcDbEntity
8
Quote
6
CONTINUOUS
62
7
370
0
100
AcDbMText
10
199.673056505
20
4.31134978679
30
0
40
2.5
41
7.77777777778
71
8
72
1
1
4.85%%D
7
standard
210
0
220
0
230
1
50
272.425171804
73
2
44
1
0
ENDBLK
5
6E
330
6C
100
AcDbEntity
8
0
100
AcDbBlockEnd
0
BLOCK
5
70
330
6F
100
AcDbEntity
8
0
100
AcDbBlockBegin
2
*D7
70
1
10
0
20
0
3
*D7
1

0
LINE
5
C0
100
AcDbEntity
8
Quote
6
CONTINUOUS
62
7
370
0
100
AcDbLine
10
114.841470446
20
-10.9568
11
128.2185296
21
-10.9568
0
SOLID
5
C1
100
AcDbEntity
8
Quote
6
CONTINUOUS
62
7
370
0
100
AcDbTrace
10
114.841470446
20
-10.9568
30
0
11
117.341470446
21
-10.5405153422
31
0
12
117.341470446
22
-11.3730846578
32
0
13
117.341470446
23
-11.3730846578
33
0
0
SOLID
5
C2
100
AcDbEntity
8
Quote
6
CONTINUOUS
62
7
370
0
100
AcDbTrace
10
128.2185296
20
-10.9568
30
0
11
125.7185296
21
-11.3730846578
31
0
12
125.7185296
22
-10.5405153422
32
0
13
125.7185296
23
-10.5405153422
33
0
0
MTEXT
5
C3
100
AcDbEntity
8
Quote
6
CONTINUOUS
62
7
370
0
100
AcDbMText
10
121.530000023
20
-9.0818
30
0
40
2.5
41
10.5555555556
71
5
72
1
1
13.3771
7
standard
210
0
220
0
230
1
50
0
73
2
44
1
0
LINE
5
C4
100
AcDbEntity
8
Quote
6
CONTINUOUS
62
7
370
0
100
AcDbLine
10
114.841470446
20
-1.19257035274
11
114.841470446
21
-12.2068
0
LINE
5
C5
100
AcDbEntity
8
Quote
6
CONTINUOUS
62
7
370
0
100
AcDbLine
10
128.2185296
20
-0.0574296433969
11
128.2185296
21
-12.2068
0
ENDBLK
5
71
330
6F
100
AcDbEntity
8
0
100
AcDbBlockEnd
0
ENDSEC
0
SECTION
2
ENTITIES
0
ARC
5
C6
100
AcDbEntity
8
0
6
ByLayer
62
256
370
-1
100
AcDbCircle
10
0
20
-398
40
400
100
AcDbArc
50
85.14964
51
90
0
DIMENSION
5
C7
100
AcDbEntity
8
Quote
6
ByLayer
62
256
370
-1
100
AcDbDimension
2
*D1
10
33.8214704458
20
-11.22304
30
0
11
16.9107352229
21
-9.34804
31
0
70
32
71
5
3
Standard
53
0
210
0
220
0
230
1
100
AcDbAlignedDimension
13
2.44929359829e-14
23
2
33
0
14
33.8214704458
24
0.567570352736
34
0
100
AcDbRotatedDimension
0
DIMENSION
5
C8
100
AcDbEntity
8
Quote
6
ByLayer
62
256
370
-1
100
AcDbDimension
2
*D2
10
-2.12992
20
0.567570352736
30
0
11
-4.00492
21
1.28378517637
31
0
70
32
71
5
3
Standard
53
0
210
0
220
0
230
1
100
AcDbAlignedDimension
13
2.44929359829e-14
23
2
33
0
14
33.8214704458
24
0.567570352736
34
0
50
90
100
AcDbRotatedDimension
0
DIMENSION
5
C9
100
AcDbEntity
8
Quote
6
ByLayer
62
256
370
-1
100
AcDbDimension
2
*D3
10
47.8923861813
20
7.6074474812
30
0
11
41.3623249098
21
10.0433111754
31
0
70
33
71
5
3
Standard
53
0
210
0
220
0
230
1
100
AcDbAlignedDimension
13
33.8214739498
23
0.567570055393
33
0
14
47.1986727784
24
-0.56758636104
34
0
0
DIMENSION
5
CA
100
AcDbEntity
8
Quote
6
ByLayer
62
256
370
-1
100
AcDbDimension
2
*D4
10
47.1983945258
20
-11.136
30
0
11
40.5099342378
21
-9.261
31
0
70
32
71
5
3
Standard
53
0
210
0
220
0
230
1
100
AcDbAlignedDimension
13
33.8214739498
23
0.567570055393
33
0
14
47.1983945258
24
-0.567562749102
34
0
100
AcDbRotatedDimension
0
LINE
5
CB
100
AcDbEntity
8
0
6
ByLayer
62
256
370
-1
100
AcDbLine
10
81.0201445729
20
-2.0000160083
11
0.000144572936605
21
-2.0000160083
0
LINE
5
CC
100
AcDbEntity
8
0
6
ByLayer
62
256
370
-1
100
AcDbLine
10
33.8214669418
20
0.567570650079
11
47.1983945258
21
-0.567562749102
0
ARC
5
CD
100
AcDbEntity
8
0
6
ByLayer
62
256
370
-1
100
AcDbCircle
10
81.02
20
398
40
400
100
AcDbArc
50
265.14964
51
270
0
ARC
5
CE
100
AcDbEntity
8
0
6
ByLayer
62
256
370
-1
100
AcDbCircle
10
81.02
20
398
40
400
100
AcDbArc
50
270
51
274.85036
0
ARC
5
CF
100
AcDbEntity
8
0
6
ByLayer
62
256
370
-1
100
AcDbCircle
10
162.04
20
-398
40
400
100
AcDbArc
50
90
51
94.85036
0
LINE
5
D0
100
AcDbEntity
8
0
6
ByLayer
62
256
370
-1
100
AcDbLine
10
114.841470446
20
-0.567570352736
11
128.218529554
21
0.567570352736
0
LINE
5
D1
100
AcDbEntity
8
0
6
ByLayer
62
256
370
-1
100
AcDbLine
10
162.04
20
2
11
2.44929359829e-14
21
2
0
LINE
5
D2
100
AcDbEntity
8
0
6
ByLayer
62
256
370
-1
100
AcDbLine
10
81.0201445729
20
-2.0000160083
11
162.040144573
21
-2.0000160083
0
DIMENSION
5
D3
100
AcDbEntity
8
Quote
6
ByLayer
62
256
370
-1
100
AcDbDimension
2
*D5
10
81.02
20
-11.1616
30
0
11
64.1092647771
21
-9.2866
31
0
70
32
71
5
3
Standard
53
0
210
0
220
0
230
1
100
AcDbAlignedDimension
13
47.1985295542
23
-0.567570352736
33
0
14
81.02
24
-2
34
0
100
AcDbRotatedDimension
0
DIMENSION
5
D4
100
AcDbEntity
8
Quote
6
ByLayer
62
256
370
-1
100
AcDbDimension
2
*D6
10
114.841470446
20
-11.0592
30
0
11
97.9308075094
21
-9.1842
31
0
70
32
71
5
3
Standard
53
0
210
0
220
0
230
1
100
AcDbAlignedDimension
13
81.0201445729
23
-2.0000160083
33
0
14
114.841470446
24
-0.567570352736
34
0
100
AcDbRotatedDimension
0
DIMENSION
5
D5
100
AcDbEntity
8
Quote
6
ByLayer
62
256
370
-1
100
AcDbDimension
2
*D7
10
128.2185296
20
-10.9568
30
0
11
121.530000023
21
-9.0818
31
0
70
32
71
5
3
Standard
53
0
210
0
220
0
230
1
100
AcDbAlignedDimension
13
114.841470446
23
-0.567570352736
33
0
14
128.2185296
24
0.567570356603
34
0
100
AcDbRotatedDimension
0
DIMENSION
5
D6
100
AcDbEntity
8
Quote
6
ByLayer
62
256
370
-1
100
AcDbDimension
2
*D8
10
162.039996696
20
-10.9568
30
0
11
145.129263148
21
-9.0818
31
0
70
32
71
5
3
Standard
53
0
210
0
220
0
230
1
100
AcDbAlignedDimension
13
128.2185296
23
0.567570356603
33
0
14
162.039996696
24
2
34
0
100
AcDbRotatedDimension
0
DIMENSION
5
D7
100
AcDbEntity
8
Quote
6
ByLayer
62
256
370
-1
100
AcDbDimension
2
*D9
10
2.53256958064e-14
20
15.6
30
0
11
40.5100722865
21
17.475
31
0
70
32
71
5
3
Standard
53
0
210
0
220
0
230
1
100
AcDbAlignedDimension
13
81.0201445729
23
-2.0000160083
33
0
14
2.44929359829e-14
24
2
34
0
100
AcDbRotatedDimension
0
DIMENSION
5
D8
100
AcDbEntity
8
Quote
6
ByLayer
62
256
370
-1
100
AcDbDimension
2
*D10
10
162.04
20
15.6
30
0
11
121.530072286
21
17.475
31
0
70
32
71
5
3
Standard
53
0
210
0
220
0
230
1
100
AcDbAlignedDimension
13
81.0201445729
23
-2.0000160083
33
0
14
162.04
24
2
34
0
100
AcDbRotatedDimension
0
DIMENSION
5
D9
100
AcDbEntity
8
Quote
6
ByLayer
62
256
370
-1
100
AcDbDimension
2
*D11
10
2.60237444819e-14
20
27
30
0
11
81.02
21
28.875
31
0
70
32
71
5
3
Standard
53
0
210
0
220
0
230
1
100
AcDbAlignedDimension
13
162.04
23
2
33
0
14
2.44929359829e-14
24
2
34
0
100
AcDbRotatedDimension
0
DIMENSION
5
DA
100
AcDbEntity
8
Quote
6
ByLayer
62
256
370
-1
100
AcDbDimension
2
*D12
10
-7.12704
20
-0.567570352736
30
0
11
-9.00204
21
1.48671429175e-07
31
0
70
32
71
5
3
Standard
53
0
210
0
220
0
230
1
100
AcDbAlignedDimension
13
33.8214669418
23
0.567570650079
33
0
14
47.1985295542
24
-0.567570352736
34
0
50
90
100
AcDbRotatedDimension
0
DIMENSION
5
DB
100
AcDbEntity
8
Quote
6
ByLayer
62
256
370
-1
100
AcDbDimension
2
*D13
10
-12.032
20
-2
30
0
11
-13.907
21
-1.28378517637
31
0
70
32
71
5
3
Standard
53
0
210
0
220
0
230
1
100
AcDbAlignedDimension
13
47.1985295542
23
-0.567570352736
33
0
14
81.02
24
-2
34
0
50
90
100
AcDbRotatedDimension
0
DIMENSION
5
DC
100
AcDbEntity
8
Quote
6
ByLayer
62
256
370
-1
100
AcDbDimension
2
*D14
10
114.841470446
20
-0.567570352736
30
0
11
0
21
0
31
0
70
34
71
5
3
Standard
53
0
210
0
220
0
230
1
100
AcDb2LineAngularDimension
13
162.04
23
2
33
0
14
2.44929359829e-14
24
2
34
0
15
128.218529554
25
0.567570352736
35
0
16
199.04
26
4.48
36
0
0
MTEXT
5
DD
100
AcDbEntity
8
Text
6
ByLayer
62
256
370
-1
100
AcDbMText
10
54.5
20
62.25
30
0
40
8
41
59.3333316373
71
1
72
1
1
Line Switch
7
standard
210
0
220
0
230
1
50
0
73
2
44
1
0
ENDSEC
0
SECTION
2
OBJECTS
0
DICTIONARY
5
C
330
0
100
AcDbDictionary
281
1
3
ACAD_GROUP
350
D
0
DICTIONARY
5
D
330
C
100
AcDbDictionary
281
1
0
ENDSEC
0
EOF
